<?xml version="1.0" encoding="utf-8"?>
<!-- Generator: Adobe Illustrator 24.0.1, SVG Export Plug-In . SVG Version: 6.00 Build 0)  -->
<svg version="1.1" id="Capa_1" xmlns="http://www.w3.org/2000/svg" xmlns:xlink="http://www.w3.org/1999/xlink" x="0px" y="0px" viewBox="0 0 16.34 16.34" style="enable-background:new 0 0 16.34 16.34;" xml:space="preserve">
<style type="text/css">
	.st0{fill:#EF4874;}
</style>
<g>
	<path class="st0" d="M8.58,0.61c0.27,0.04,0.53,0.07,0.8,0.12c2.59,0.46,4.69,2.57,5.15,5.17c0.57,3.2-1.23,6.27-4.28,7.31&#xA;		c-0.07,0.02-0.14,0.08-0.19,0.15c-0.46,0.66-0.9,1.33-1.36,1.99c-0.3,0.44-0.77,0.44-1.06,0c-0.45-0.66-0.9-1.33-1.36-1.99&#xA;		c-0.05-0.07-0.13-0.12-0.2-0.15c-2.46-0.94-3.96-2.69-4.32-5.31C1.35,4.89,3.09,2.07,5.93,1.01c0.55-0.2,1.12-0.33,1.7-0.37&#xA;		c0.04,0,0.09-0.02,0.13-0.03C8.03,0.61,8.31,0.61,8.58,0.61z M8.17,14.03c0.03-0.04,0.05-0.06,0.06-0.08&#xA;		c0.32-0.47,0.65-0.95,0.96-1.42c0.13-0.2,0.3-0.32,0.53-0.39c2.69-0.8,4.29-3.65,3.58-6.37C12.48,2.63,9.11,0.95,6.12,2.2&#xA;		c-2.24,0.93-3.6,3.34-3.17,5.72c0.38,2.13,1.65,3.54,3.7,4.22c0.2,0.07,0.36,0.17,0.47,0.35C7.46,13,7.81,13.5,8.17,14.03z" />
	<path class="st0" d="M8.82,7.96c0,0.5,0,1.01,0,1.51c0,0.16-0.06,0.27-0.19,0.34c-0.29,0.17-0.6,0.18-0.9,0.02&#xA;		C7.6,9.76,7.53,9.64,7.53,9.47c0-1.01,0-2.02,0-3.03c0-0.19,0.08-0.31,0.25-0.38c0.27-0.11,0.55-0.11,0.81,0.01&#xA;		c0.16,0.07,0.24,0.19,0.23,0.37C8.81,6.95,8.82,7.45,8.82,7.96z" />
	<path class="st0" d="M8.17,5.22c-0.35,0-0.66-0.26-0.68-0.57C7.47,4.3,7.82,4,8.21,4.03c0.06,0,0.12,0.01,0.17,0.03&#xA;		c0.3,0.09,0.5,0.36,0.46,0.62C8.8,4.98,8.51,5.22,8.17,5.22z" />
</g>
</svg>