<?xml version="1.0" encoding="utf-8"?>
<!-- Generator: Adobe Illustrator 24.0.1, SVG Export Plug-In . SVG Version: 6.00 Build 0)  -->
<svg version="1.1" id="Capa_1" xmlns="http://www.w3.org/2000/svg" xmlns:xlink="http://www.w3.org/1999/xlink" x="0px" y="0px" viewBox="0 0 25 25" style="enable-background:new 0 0 25 25;" xml:space="preserve">
<style type="text/css">
	.st0{fill:#EF4874;}
</style>
<g>
	<g>
		<path class="st0" d="M-162.25,62.02c0-0.03,0-0.07,0-0.1c0-1.19,0-2.37,0-3.56c0-0.03,0-0.07,0-0.11c-0.43,0-0.84,0-1.27,0&#xA;			c0-0.49,0-0.98,0-1.47c0.42,0,0.84,0,1.27,0c0-0.04,0-0.07,0-0.1c0-0.39-0.01-0.77,0.01-1.16c0.02-0.46,0.16-0.89,0.48-1.24&#xA;			c0.25-0.26,0.56-0.41,0.91-0.49c0.28-0.06,0.57-0.05,0.86-0.04c0.23,0.01,0.47,0.03,0.7,0.04c0.02,0,0.04,0.01,0.06,0.01&#xA;			c0,0.43,0,0.87,0,1.31c-0.03,0-0.06,0-0.08,0c-0.29,0-0.58,0-0.86,0.01c-0.34,0.02-0.53,0.21-0.55,0.55&#xA;			c-0.01,0.35-0.01,0.71-0.01,1.07c0,0,0,0.01,0.01,0.02c0.47,0,0.95,0,1.44,0c-0.06,0.49-0.13,0.98-0.19,1.47&#xA;			c-0.42,0-0.84,0-1.26,0c0,0.03-0.01,0.05-0.01,0.08c0,1.21,0,2.43,0,3.64c0,0.02,0,0.04,0,0.06&#xA;			C-161.23,62.02-161.74,62.02-162.25,62.02z" />
	</g>
</g>
<g>
	<g>
		<path class="st0" d="M27.27,59.09c-0.02,0.23-0.02,0.46-0.05,0.69c-0.04,0.4-0.07,0.79-0.15,1.18c-0.17,0.87-0.82,1.45-1.7,1.57&#xA;			c-0.99,0.14-1.98,0.18-2.97,0.19c-1.18,0.01-2.35,0.01-3.53-0.03c-0.76-0.02-1.52-0.09-2.27-0.19c-0.91-0.12-1.5-0.75-1.67-1.67&#xA;			c-0.11-0.64-0.16-1.29-0.16-1.94c0-0.85,0.03-1.71,0.07-2.56c0.02-0.33,0.07-0.66,0.16-0.97c0.24-0.82,0.81-1.3,1.65-1.42&#xA;			c0.98-0.15,1.98-0.18,2.97-0.19c1.2-0.01,2.39-0.01,3.59,0.03c0.74,0.02,1.48,0.08,2.21,0.19c0.92,0.13,1.52,0.74,1.67,1.66&#xA;			c0.08,0.5,0.11,1.01,0.16,1.52c0.01,0.06,0.01,0.13,0.02,0.19C27.27,57.92,27.27,58.5,27.27,59.09z M20.71,61.79&#xA;			c1.07-0.03,1.83-0.04,2.58-0.08c0.62-0.03,1.24-0.08,1.86-0.14c0.6-0.06,0.9-0.35,0.99-0.95c0.06-0.4,0.11-0.8,0.12-1.2&#xA;			c0.02-0.81,0.03-1.61,0-2.42c-0.02-0.46-0.08-0.92-0.17-1.38c-0.07-0.37-0.33-0.59-0.68-0.69c-0.1-0.03-0.21-0.05-0.31-0.06&#xA;			c-0.92-0.06-1.83-0.15-2.75-0.16c-1.18-0.02-2.37,0-3.55,0.03c-0.64,0.02-1.28,0.08-1.92,0.14c-0.56,0.06-0.85,0.33-0.96,0.88&#xA;			c-0.06,0.29-0.09,0.59-0.12,0.89c-0.07,0.92-0.08,1.85-0.02,2.77c0.03,0.47,0.09,0.94,0.17,1.4c0.07,0.38,0.34,0.61,0.71,0.69&#xA;			c0.21,0.05,0.43,0.08,0.65,0.1C18.54,61.69,19.79,61.75,20.71,61.79z" />
	</g>
	<g>
		<path class="st0" d="M23.19,58.24c-1.15,0.66-2.27,1.32-3.41,1.98c0-1.32,0-2.63,0-3.95C20.91,56.92,22.04,57.57,23.19,58.24z" />
	</g>
</g>
<g>
	<path class="st0" d="M2.68,59.01c-1.62,0-3.23,0-4.85,0c-0.17-0.04-0.34-0.06-0.5-0.11c-0.95-0.31-1.57-1.16-1.57-2.16&#xA;		c0-1.49,0-2.98,0-4.47c0-0.48,0.14-0.93,0.42-1.32c0.47-0.63,1.1-0.95,1.88-0.95c1.45,0,2.9,0,4.35,0c0.15,0,0.31,0.01,0.45,0.03&#xA;		c0.83,0.15,1.41,0.62,1.73,1.4c0.08,0.2,0.11,0.42,0.16,0.63c0,1.62,0,3.23,0,4.85C4.75,57,4.74,57.06,4.72,57.13&#xA;		c-0.16,0.83-0.62,1.4-1.4,1.72C3.12,58.93,2.9,58.96,2.68,59.01z M0.26,50.77C0.26,50.77,0.26,50.76,0.26,50.77&#xA;		c-0.73,0-1.46-0.01-2.2,0c-0.18,0-0.37,0.02-0.53,0.08c-0.63,0.21-1.02,0.77-1.02,1.45c0,1.48,0,2.96,0,4.44&#xA;		c0,0.12,0.01,0.24,0.03,0.35c0.17,0.72,0.75,1.18,1.49,1.18c1.48,0,2.96,0,4.44,0c0.17,0,0.35-0.03,0.52-0.08&#xA;		c0.63-0.21,1.01-0.76,1.01-1.44c0-1.48,0-2.96,0-4.45c0-0.09-0.01-0.18-0.02-0.27c-0.09-0.66-0.71-1.24-1.38-1.25&#xA;		C1.82,50.76,1.04,50.77,0.26,50.77z" />
	<path class="st0" d="M0.26,56.76c-1.24,0-2.25-1.02-2.25-2.25c0.01-1.24,1.01-2.25,2.25-2.24c1.24,0,2.25,1.02,2.25,2.25&#xA;		C2.5,55.76,1.49,56.76,0.26,56.76z M0.26,56.01c0.83,0,1.5-0.67,1.5-1.5c0-0.83-0.67-1.5-1.5-1.5c-0.83,0-1.5,0.67-1.5,1.5&#xA;		C-1.23,55.35-0.57,56.01,0.26,56.01z" />
	<path class="st0" d="M2.7,52.63c-0.31,0-0.56-0.25-0.56-0.56c0-0.31,0.25-0.57,0.56-0.57c0.31,0,0.57,0.26,0.56,0.57&#xA;		C3.25,52.39,3,52.63,2.7,52.63z" />
</g>
<g>
	<path class="st0" d="M32.81,61.53c1.03,0.09,1.94-0.16,2.76-0.77c-0.86-0.08-1.43-0.51-1.76-1.31c0.29,0.03,0.55,0.04,0.84-0.04&#xA;		c-0.45-0.11-0.81-0.33-1.08-0.68c-0.27-0.34-0.41-0.74-0.41-1.19c0.26,0.13,0.53,0.22,0.82,0.22c-0.83-0.7-1.02-1.52-0.56-2.52&#xA;		c1.03,1.21,2.32,1.87,3.88,1.98c-0.01-0.19-0.02-0.37-0.02-0.54c0.02-0.78,0.62-1.51,1.37-1.7c0.7-0.18,1.31-0.02,1.83,0.47&#xA;		c0.04,0.04,0.07,0.05,0.13,0.03c0.39-0.09,0.75-0.23,1.12-0.44c-0.15,0.45-0.41,0.77-0.78,1.02c0.35-0.03,0.68-0.13,1.03-0.27&#xA;		c-0.24,0.35-0.51,0.65-0.83,0.89c-0.08,0.06-0.1,0.12-0.1,0.22c0.02,0.87-0.17,1.69-0.55,2.46c-0.45,0.93-1.1,1.69-1.99,2.24&#xA;		c-0.63,0.39-1.32,0.62-2.05,0.72c-0.64,0.09-1.28,0.06-1.92-0.07c-0.61-0.13-1.17-0.36-1.69-0.69&#xA;		C32.84,61.55,32.83,61.55,32.81,61.53z" />
</g>
<g>
	<g>
		<path class="st0" d="M-71.51,40.88c-0.01,0.21-0.02,0.42-0.04,0.63c-0.04,0.36-0.07,0.72-0.14,1.08&#xA;			c-0.16,0.79-0.74,1.32-1.54,1.43c-0.9,0.12-1.8,0.16-2.7,0.17c-1.07,0.01-2.14,0.01-3.21-0.03c-0.69-0.02-1.38-0.08-2.07-0.17&#xA;			c-0.83-0.11-1.37-0.68-1.52-1.52c-0.1-0.59-0.15-1.18-0.15-1.77c0-0.78,0.03-1.55,0.06-2.33c0.01-0.3,0.06-0.6,0.14-0.89&#xA;			c0.22-0.75,0.73-1.18,1.5-1.3c0.9-0.13,1.8-0.16,2.7-0.17c1.09-0.01,2.18-0.01,3.27,0.03c0.67,0.02,1.35,0.08,2.01,0.17&#xA;			c0.84,0.12,1.39,0.68,1.52,1.51c0.07,0.46,0.1,0.92,0.14,1.38c0.01,0.06,0.01,0.12,0.02,0.17&#xA;			C-71.51,39.81-71.51,40.35-71.51,40.88z M-77.48,43.34c0.98-0.03,1.66-0.04,2.35-0.07c0.57-0.03,1.13-0.07,1.69-0.13&#xA;			c0.55-0.06,0.82-0.32,0.9-0.86c0.05-0.36,0.1-0.73,0.11-1.09c0.02-0.73,0.02-1.47,0-2.2c-0.01-0.42-0.08-0.84-0.15-1.25&#xA;			c-0.06-0.33-0.3-0.54-0.62-0.63c-0.09-0.03-0.19-0.05-0.28-0.05c-0.83-0.05-1.67-0.13-2.51-0.15c-1.08-0.02-2.16,0-3.23,0.02&#xA;			c-0.58,0.01-1.17,0.07-1.75,0.13c-0.51,0.05-0.78,0.3-0.87,0.8c-0.05,0.27-0.08,0.54-0.1,0.81c-0.06,0.84-0.07,1.68-0.02,2.52&#xA;			c0.03,0.43,0.08,0.86,0.16,1.28c0.06,0.34,0.31,0.55,0.65,0.63c0.19,0.04,0.39,0.08,0.59,0.09&#xA;			C-79.45,43.25-78.32,43.3-77.48,43.34z" />
	</g>
	<g>
		<path class="st0" d="M-75.22,40.1c-1.04,0.6-2.07,1.2-3.11,1.8c0-1.2,0-2.39,0-3.6C-77.29,38.91-76.27,39.5-75.22,40.1z" />
	</g>
</g>
<g>
	<g>
		<path class="st0" d="M11.81,1.52c0.46,0,0.91,0,1.37,0c0.06,0.01,0.12,0.03,0.19,0.04c0.49,0.07,0.99,0.12,1.48,0.22&#xA;			c6.9,1.49,10.62,9.13,7.54,15.49c-2.22,4.58-7.2,7.01-12.21,5.96c-4.34-0.91-7.75-4.46-8.5-8.84c-0.07-0.4-0.11-0.8-0.17-1.21&#xA;			c0-0.46,0-0.91,0-1.37c0.07-0.49,0.12-0.98,0.21-1.46c0.82-4.37,4.47-7.94,8.85-8.67C10.99,1.63,11.4,1.58,11.81,1.52z&#xA;			 M19.47,19.21c3.6-3.67,3.75-9.86-0.3-13.74C15.13,1.62,8.7,1.98,5.07,6.29c-3.5,4.17-2.65,9.88,0.46,12.91&#xA;			c1.42-2.9,3.71-4.56,6.96-4.56C15.75,14.64,18.04,16.3,19.47,19.21z M6.58,20.16c3.5,2.76,8.53,2.66,11.82,0&#xA;			c-0.62-2.03-2.7-4.17-5.76-4.26C9.93,15.83,7.36,17.63,6.58,20.16z" />
	</g>
	<g>
		<path class="st0" d="M8.41,9.05c0.01-2.26,1.85-4.1,4.1-4.08c2.26,0.02,4.08,1.86,4.07,4.11c-0.01,2.26-1.85,4.08-4.11,4.07&#xA;			C10.22,13.13,8.41,11.3,8.41,9.05z M9.7,9.05c0,1.54,1.24,2.8,2.78,2.81c1.55,0.01,2.81-1.24,2.82-2.79c0-1.55-1.25-2.81-2.8-2.81&#xA;			C10.96,6.25,9.7,7.51,9.7,9.05z" />
	</g>
</g>
</svg>