<?xml version="1.0" encoding="utf-8"?>
<!-- Generator: Adobe Illustrator 24.0.1, SVG Export Plug-In . SVG Version: 6.00 Build 0)  -->
<svg version="1.1" id="Capa_1" xmlns="http://www.w3.org/2000/svg" xmlns:xlink="http://www.w3.org/1999/xlink" x="0px" y="0px"
	 viewBox="0 0 68.95 68.95" style="enable-background:new 0 0 68.95 68.95;" xml:space="preserve">
<style type="text/css">
	.st0{fill:#6015AF;}
	.st1{fill:none;}
	.st2{fill:#FFFFFF;}
</style>
<g>
	<path class="st0" d="M-20.03,95.72c-2.84,0-5.15,2.31-5.15,5.15v0.84h-0.09c-1.19,0-2.16,0.97-2.16,2.16v7.49
		c0,1.19,0.97,2.16,2.16,2.16h10.49c1.19,0,2.16-0.97,2.16-2.16v-7.49c0-1.19-0.97-2.16-2.16-2.16h-0.09v-0.84
		C-14.88,98.03-17.19,95.72-20.03,95.72z M-23.87,100.87c0-2.11,1.72-3.84,3.84-3.84c2.12,0,3.84,1.72,3.84,3.84v0.84h-7.67V100.87z
		 M-14.79,103.03c0.46,0,0.84,0.38,0.84,0.84v7.49c0,0.46-0.38,0.84-0.84,0.84h-10.49c-0.46,0-0.84-0.38-0.84-0.84v-7.49
		c0-0.46,0.38-0.84,0.84-0.84H-14.79z"/>
	<path class="st0" d="M-20.03,110.51c0.36,0,0.66-0.29,0.66-0.66v-1.33l0.06-0.02c0.86-0.31,1.44-1.12,1.44-2.02
		c0-1.19-0.97-2.16-2.16-2.16c-1.19,0-2.16,0.97-2.16,2.16c0,0.9,0.58,1.72,1.44,2.02l0.06,0.02v1.33
		C-20.69,110.22-20.39,110.51-20.03,110.51z M-20.87,106.49c0-0.46,0.38-0.84,0.84-0.84c0.46,0,0.84,0.38,0.84,0.84
		c0,0.46-0.38,0.84-0.84,0.84C-20.49,107.33-20.87,106.95-20.87,106.49z"/>
</g>
<rect class="st1" width="68.95" height="68.95"/>
<g>
	<path class="st2" d="M19.01,31.67c0-0.52,0-0.88,0-1.23c0.01-4.47-0.01-8.94,0.03-13.4c0.03-3.52,2.14-6.02,5.46-6.47
		c0.61-0.08,1.25-0.01,1.87,0.09c0.61,0.1,1.2,0.32,1.89,0.52c-0.11-2.67,0.16-5.2,2.34-7.06c1.26-1.08,2.77-1.55,4.4-1.52
		c3.99,0.08,6.23,2.58,6.7,7.5c2.83-1.25,5.53-1.19,7.93,0.94c2.39,2.12,2.3,4.97,2.16,7.95c0.4-0.16,0.66-0.25,0.92-0.36
		c4.21-1.79,9.14,1.09,9.23,5.66c0.09,5.08-0.06,10.19-0.38,15.26c-0.24,3.82-1.58,7.42-3.17,10.89c-1.27,2.76-2.52,5.53-3.81,8.29
		c-2.31,4.93-6.19,7.41-11.64,7.4c-5.3-0.01-10.59-0.03-15.89-0.02c-2.56,0.01-4.88-0.69-7.02-2.08c-2.61-1.69-5.27-3.32-7.23-5.82
		c-3-3.84-4.78-8.13-4.83-13.05c-0.02-2.45-0.04-4.9-0.02-7.35c0.04-5.35,5.38-8.74,10.23-6.49C18.41,31.4,18.62,31.49,19.01,31.67z
		 M22.17,44.3c1.14,0,2.1-0.01,3.05,0.01c4.34,0.08,7.7,1.92,9.95,5.66c0.99,1.65,1.44,3.47,1.47,5.4c0.01,0.97-0.58,1.63-1.45,1.7
		c-0.87,0.07-1.53-0.5-1.68-1.46c-0.05-0.29-0.06-0.59-0.09-0.89c-0.38-3.8-3.28-6.77-7.09-7.13c-1.68-0.16-3.37-0.09-5.06-0.1
		c-1.84-0.02-2.27-0.44-2.28-2.29c-0.01-2.58,0.07-5.17-0.04-7.74c-0.09-2.19-1.94-3.78-4.03-3.68c-2.14,0.1-3.75,1.77-3.78,3.96
		c-0.03,2.38-0.06,4.77,0,7.15c0.06,2.26,0.43,4.44,1.29,6.57c2,4.97,5.85,8.09,10.4,10.46c1.18,0.62,2.65,0.92,3.99,0.95
		c5.53,0.11,11.06,0.1,16.58,0.06c3.67-0.03,6.38-1.74,8.03-5.03c0.75-1.51,1.47-3.04,2.12-4.59c1.37-3.26,2.91-6.46,3.97-9.82
		c1.96-6.24,1.26-12.73,1.23-19.13c-0.01-2.22-2.5-3.6-4.61-2.87c-1.44,0.5-2.31,1.76-2.32,3.46c-0.02,2.71,0,5.43-0.03,8.14
		c-0.01,1.21-0.61,1.87-1.59,1.88c-0.99,0.01-1.56-0.66-1.58-1.86c-0.01-0.93,0-1.85,0-2.78c0.01-4.7,0.03-9.4,0.02-14.1
		c-0.01-2.23-1.43-3.78-3.45-3.81c-2.1-0.04-3.59,1.55-3.59,3.88c-0.02,5.99-0.02,11.98-0.03,17.98c0,0.33,0.01,0.66-0.02,0.99
		c-0.09,0.85-0.61,1.33-1.42,1.41c-0.82,0.08-1.41-0.34-1.63-1.15c-0.1-0.37-0.1-0.78-0.1-1.18c0-4.3,0.01-8.61,0.02-12.91
		c0.01-4.01,0.02-8.01,0.01-12.02c0-1.66-0.82-2.9-2.2-3.45c-2.38-0.94-4.78,0.79-4.79,3.49c-0.02,8.21-0.03,16.42-0.04,24.63
		c0,1.23-0.63,1.99-1.6,1.99c-0.98,0-1.58-0.75-1.58-1.99c0-3.31,0.01-6.62,0.01-9.93c0-2.48,0.03-4.97,0-7.45
		c-0.02-1.56-1.15-2.77-2.66-2.99c-1.32-0.19-2.77,0.69-3.17,2.02c-0.16,0.53-0.18,1.11-0.18,1.67c-0.02,8.57-0.03,17.15-0.05,25.72
		C22.17,43.46,22.17,43.82,22.17,44.3z"/>
</g>
</svg>
