<?xml version="1.0" encoding="utf-8"?>
<!-- Generator: Adobe Illustrator 24.0.1, SVG Export Plug-In . SVG Version: 6.00 Build 0)  -->
<svg version="1.1" id="Capa_1" xmlns="http://www.w3.org/2000/svg" xmlns:xlink="http://www.w3.org/1999/xlink" x="0px" y="0px"
	 viewBox="0 0 60 60" style="enable-background:new 0 0 60 60;" xml:space="preserve">
<style type="text/css">
	.st0{fill:#fff;}
</style>	 
<g>
	<path class="st0" d="M35.75,57.73c-0.92-0.24-1.81-0.56-2.53-1.22c-1.02-0.93-1.55-2.09-1.6-3.47c-0.01-0.15,0-0.3,0-0.53
		c-0.25,0-0.47,0-0.69,0c-6.23,0-12.46,0-18.68,0c-1.07,0-2.05-0.22-2.87-0.95c-0.75-0.67-1.19-1.51-1.26-2.52
		C8.1,48.83,8.1,48.6,8.1,48.38c0-13.18,0-26.36-0.01-39.54c0-1.67,0.6-2.97,2.13-3.71c0.54-0.26,1.19-0.39,1.79-0.4
		c7.52-0.03,15.04-0.02,22.56-0.02c0.62,0,1.14,0.21,1.58,0.65c2.47,2.48,4.95,4.96,7.43,7.43c0.5,0.5,0.65,1.1,0.65,1.79
		c-0.01,7.18,0,14.35-0.01,21.53c0,0.45,0.1,0.81,0.35,1.19c0.43,0.66,0.76,1.39,1.1,2.1c0.16,0.33,0.35,0.48,0.73,0.53
		c1.14,0.17,2.3,0.21,3.35,0.79c2.66,1.46,3.31,5.05,1.29,7.32c-0.49,0.55-1.03,1.06-1.57,1.57c-0.23,0.21-0.3,0.42-0.23,0.73
		c0.12,0.61,0.22,1.22,0.31,1.83c0.37,2.58-1.15,4.82-3.68,5.43c-0.13,0.03-0.26,0.08-0.39,0.12c-0.45,0-0.9,0-1.35,0
		c-1.07-0.48-2.14-0.97-3.22-1.43c-0.17-0.07-0.43-0.07-0.61,0c-1.08,0.46-2.15,0.95-3.22,1.43C36.65,57.73,36.2,57.73,35.75,57.73z
		 M32.04,8.94c-6.67,0-13.27,0-19.86,0c0,13.14,0,26.23,0,39.33c6.06,0,12.1,0,18.19,0c-0.12-0.15-0.19-0.24-0.27-0.33
		c-2.14-2.6-1-6.56,2.21-7.57c0.81-0.26,1.69-0.34,2.54-0.45c0.35-0.05,0.55-0.18,0.69-0.5c0.3-0.66,0.62-1.31,0.98-1.94
		c0.68-1.18,1.72-1.93,3.05-2.2c0.49-0.1,0.55-0.28,0.55-0.7c-0.01-5.66-0.01-11.32-0.01-16.98c0-0.2,0-0.4,0-0.63
		c-0.38,0-0.67,0-0.96,0c-1.64-0.01-3.28,0.02-4.91-0.05c-1.13-0.05-1.98-0.91-2.15-2.03c-0.04-0.27-0.05-0.55-0.06-0.82
		C32.04,12.38,32.04,10.67,32.04,8.94z M34.85,52.81c0.02,1.33,1.22,2.03,2.35,1.46c1.02-0.51,2.02-1.05,3.02-1.59
		c0.29-0.16,0.52-0.16,0.81,0c1.01,0.55,2.04,1.09,3.06,1.62c0.59,0.31,1.18,0.26,1.7-0.15c0.5-0.39,0.68-0.93,0.57-1.57
		c-0.2-1.14-0.37-2.28-0.59-3.41c-0.06-0.3,0.01-0.48,0.22-0.68c0.81-0.77,1.61-1.56,2.42-2.34c0.49-0.48,0.75-1.04,0.51-1.73
		c-0.24-0.7-0.78-1-1.49-1.1c-1.09-0.15-2.18-0.33-3.28-0.47c-0.29-0.04-0.45-0.16-0.57-0.42c-0.47-1-0.98-1.98-1.46-2.97
		c-0.31-0.64-0.78-1.07-1.51-1.07c-0.73,0-1.2,0.44-1.51,1.08c-0.45,0.95-0.95,1.88-1.38,2.83c-0.17,0.38-0.41,0.53-0.8,0.58
		c-1.04,0.13-2.08,0.3-3.12,0.44c-0.7,0.09-1.24,0.4-1.48,1.1c-0.23,0.69,0.03,1.25,0.52,1.72c0.69,0.67,1.35,1.38,2.09,2.01
		c0.5,0.42,0.61,0.84,0.47,1.47C35.16,50.73,35.01,51.85,34.85,52.81z"/>
	<path class="st0" d="M26.13,22.02c2.79,0,5.59-0.01,8.38,0c1.18,0,1.97,0.65,2.11,1.71c0.13,0.96-0.5,1.88-1.45,2.09
		c-0.25,0.06-0.51,0.08-0.77,0.08c-5.5,0-11.01,0.01-16.51,0c-1.32,0-2.19-0.74-2.23-1.87c-0.04-1.16,0.82-2.01,2.08-2.01
		c1.98-0.01,3.97,0,5.95,0C24.51,22.02,25.32,22.02,26.13,22.02z"/>
	<path class="st0" d="M26.18,37.53c-2.81,0-5.62,0.01-8.44,0c-1.25,0-2.11-0.86-2.07-2.02c0.03-0.91,0.71-1.68,1.61-1.81
		c0.25-0.04,0.52-0.05,0.77-0.05c5.4,0,10.8,0,16.2,0c0.36,0,0.73,0.02,1.07,0.12c0.8,0.23,1.34,1.02,1.32,1.84
		c-0.02,0.86-0.59,1.61-1.42,1.82c-0.28,0.07-0.58,0.09-0.87,0.09C31.63,37.53,28.9,37.53,26.18,37.53z"/>
</g>
</svg>
