<?xml version="1.0" encoding="utf-8"?>
<!-- Generator: Adobe Illustrator 24.0.1, SVG Export Plug-In . SVG Version: 6.00 Build 0)  -->
<svg version="1.1" id="Capa_1" xmlns="http://www.w3.org/2000/svg" xmlns:xlink="http://www.w3.org/1999/xlink" x="0px" y="0px"
	 viewBox="0 0 22 22" style="enable-background:new 0 0 22 22;" xml:space="preserve">
<style type="text/css">
	.st0{fill:#fff;}
</style>
<path class="st0" d="M17.83,4.17C16,2.35,13.58,1.35,11,1.35c-2.58,0-5,1-6.83,2.83C2.35,6,1.35,8.42,1.35,11s1,5,2.83,6.83
	C6,19.65,8.42,20.65,11,20.65s5-1,6.83-2.83c1.82-1.82,2.83-4.25,2.83-6.83S19.65,6,17.83,4.17z M11,6.76
	c1.67,0,3.03,1.36,3.03,3.03s-1.36,3.03-3.03,3.03c-1.67,0-3.03-1.36-3.03-3.03S9.33,6.76,11,6.76z M11,14.01
	c2.36,0,4.36,1.68,4.77,3.99c-1.41,0.96-3.06,1.47-4.77,1.47s-3.36-0.51-4.77-1.47C6.64,15.68,8.64,14.01,11,14.01z M15.22,9.79
	c0-2.32-1.89-4.22-4.22-4.22S6.78,7.47,6.78,9.79c0,1.41,0.7,2.72,1.87,3.5c-0.63,0.26-1.2,0.63-1.7,1.08
	c-0.83,0.75-1.44,1.72-1.75,2.79c-1.7-1.6-2.68-3.85-2.68-6.17c0-4.67,3.8-8.47,8.47-8.47c4.67,0,8.47,3.8,8.47,8.47
	c0,2.33-0.98,4.57-2.68,6.17c-0.31-1.07-0.91-2.04-1.75-2.79c-0.5-0.46-1.08-0.82-1.7-1.08C14.52,12.51,15.22,11.2,15.22,9.79z"/>
<g>
	<path class="st0" d="M10.76,54.83c-2.84,0-5.15,2.31-5.15,5.15v0.84H5.51c-1.19,0-2.16,0.97-2.16,2.16v7.49
		c0,1.19,0.97,2.16,2.16,2.16H16c1.19,0,2.16-0.97,2.16-2.16v-7.49c0-1.19-0.97-2.16-2.16-2.16h-0.09v-0.84
		C15.91,57.14,13.6,54.83,10.76,54.83z M6.92,59.98c0-2.11,1.72-3.84,3.84-3.84c2.12,0,3.84,1.72,3.84,3.84v0.84H6.92V59.98z
		 M16,62.14c0.46,0,0.84,0.38,0.84,0.84v7.49c0,0.46-0.38,0.84-0.84,0.84H5.51c-0.46,0-0.84-0.38-0.84-0.84v-7.49
		c0-0.46,0.38-0.84,0.84-0.84H16z"/>
	<path class="st0" d="M10.76,69.62c0.36,0,0.66-0.29,0.66-0.66v-1.33l0.06-0.02c0.86-0.31,1.44-1.12,1.44-2.02
		c0-1.19-0.97-2.16-2.16-2.16S8.6,64.41,8.6,65.6c0,0.9,0.58,1.72,1.44,2.02l0.06,0.02v1.33C10.1,69.33,10.39,69.62,10.76,69.62z
		 M9.92,65.6c0-0.46,0.38-0.84,0.84-0.84s0.84,0.38,0.84,0.84c0,0.46-0.38,0.84-0.84,0.84S9.92,66.06,9.92,65.6z"/>
</g>
</svg>
