<?xml version="1.0" encoding="utf-8"?>
<!-- Generator: Adobe Illustrator 24.0.1, SVG Export Plug-In . SVG Version: 6.00 Build 0)  -->
<svg version="1.1" id="Capa_1" xmlns="http://www.w3.org/2000/svg" xmlns:xlink="http://www.w3.org/1999/xlink" x="0px" y="0px" viewBox="0 0 120 120" style="enable-background:new 0 0 120 120;" xml:space="preserve">
<style type="text/css">
	.st0{fill:#2A898E;}
</style>
<g>
	<g>
		<path class="st0" d="M90.73,21.48H78.09v-4.41c0-1.7-1.38-3.07-3.07-3.07s-3.07,1.38-3.07,3.07v4.41H42.83V17.4c0-1.7-1.38-3.07-3.07-3.07&#xA;			c-1.7,0-3.07,1.38-3.07,3.07v4.08H24.74c-7.89,0-14.3,6.42-14.3,14.3V90.7c0,7.89,6.42,14.3,14.3,14.3h65.99&#xA;			c7.89,0,14.3-6.42,14.3-14.3V35.79C105.04,27.9,98.62,21.48,90.73,21.48z M24.74,27.63h11.94v4.62c0,1.7,1.38,3.07,3.07,3.07&#xA;			c1.7,0,3.07-1.38,3.07-3.07v-4.62h29.11v4.29c0,1.7,1.38,3.07,3.07,3.07s3.07-1.38,3.07-3.07v-4.29h12.65&#xA;			c4.5,0,8.16,3.66,8.16,8.16v8.63H16.58v-8.63C16.58,31.29,20.24,27.63,24.74,27.63z M90.73,98.85H24.74&#xA;			c-4.5,0-8.16-3.66-8.16-8.16V50.57h82.31V90.7C98.89,95.19,95.23,98.85,90.73,98.85z" />
		<circle class="st0" cx="31.45" cy="65.21" r="6.09" />
		<path class="st0" d="M49.01,59.12c-3.36,0-6.09,2.73-6.09,6.09s2.73,6.09,6.09,6.09c3.36,0,6.09-2.73,6.09-6.09S52.37,59.12,49.01,59.12z" />
		<path class="st0" d="M66.46,59.12c-3.36,0-6.09,2.73-6.09,6.09s2.73,6.09,6.09,6.09c3.36,0,6.09-2.73,6.09-6.09S69.83,59.12,66.46,59.12z" />
		<circle class="st0" cx="84.02" cy="65.21" r="6.09" />
		<path class="st0" d="M31.45,77c-3.36,0-6.09,2.73-6.09,6.09c0,3.36,2.73,6.09,6.09,6.09s6.09-2.73,6.09-6.09C37.54,79.73,34.81,77,31.45,77z" />
		<path class="st0" d="M49.01,77c-3.36,0-6.09,2.73-6.09,6.09c0,3.36,2.73,6.09,6.09,6.09c3.36,0,6.09-2.73,6.09-6.09&#xA;			C55.1,79.73,52.37,77,49.01,77z" />
		<path class="st0" d="M66.46,77c-3.36,0-6.09,2.73-6.09,6.09c0,3.36,2.73,6.09,6.09,6.09c3.36,0,6.09-2.73,6.09-6.09&#xA;			C72.55,79.73,69.83,77,66.46,77z" />
		<path class="st0" d="M84.02,77c-3.36,0-6.09,2.73-6.09,6.09c0,3.36,2.73,6.09,6.09,6.09c3.36,0,6.09-2.73,6.09-6.09&#xA;			C90.11,79.73,87.39,77,84.02,77z" />
	</g>
</g>
</svg>