<?xml version="1.0" encoding="utf-8"?>
<!-- Generator: Adobe Illustrator 24.0.1, SVG Export Plug-In . SVG Version: 6.00 Build 0)  -->
<svg version="1.1" id="Capa_1" xmlns="http://www.w3.org/2000/svg" xmlns:xlink="http://www.w3.org/1999/xlink" x="0px" y="0px" viewBox="0 0 60 60" style="enable-background:new 0 0 60 60;" xml:space="preserve">
<style type="text/css">
	.st0{fill:#FFFFFF;}
</style>
<g>
	<g>
		<path class="st0" d="M5.8,8.35" />
		<path class="st0" d="M5.45,9.51c-0.29,0.02-0.62,0.32-0.86,0.78c-0.31,0.61-0.42,1.36-0.29,2.08c0.14,0.78,0.49,1.7,1.4,1.7&#xA;			l43.7,0.01c1.7,0.01,3.42,0.01,5.13-0.02c0.32-0.01,0.66-0.3,0.9-0.77c0.33-0.66,0.42-1.5,0.24-2.3c-0.3-1.32-0.98-1.48-1.46-1.48&#xA;			H5.8" />
		<path class="st0" d="M46.25,33.2c0.39,0,0.72-0.24,0.98-0.7c0.33-0.58,0.44-1.36,0.32-2.18c-0.12-0.81-0.55-1.67-1.4-1.67&#xA;			l-33.61,0l-7.01,0.01c-0.47,0-0.92,0.51-1.14,1.29c-0.23,0.82-0.18,1.69,0.15,2.38c0.16,0.33,0.49,0.87,1.04,0.87&#xA;			c4.87,0.02,9.75,0.02,14.62,0.01l9.88,0l7.34,0C40.36,33.21,43.3,33.21,46.25,33.2z" />
		<path class="st0" d="M4.62,48.53c-0.46,0.89-0.51,1.66-0.17,2.64c0.39,1.14,0.77,1.15,1.06,1.15c2.54,0.03,5.09,0.03,7.64,0.02&#xA;			l4.61-0.01l2.81,0l9.34-0.01c0.77,0,1.37-1,1.38-2.27c0-1.27-0.6-2.27-1.38-2.28l-3.41-0.01l-6.96,0l-13.84,0&#xA;			C5.23,47.78,4.95,47.89,4.62,48.53z" />
	</g>
</g>
</svg>