<?xml version="1.0" encoding="utf-8"?>
<!-- Generator: Adobe Illustrator 24.0.1, SVG Export Plug-In . SVG Version: 6.00 Build 0)  -->
<svg version="1.1" id="Capa_1" xmlns="http://www.w3.org/2000/svg" xmlns:xlink="http://www.w3.org/1999/xlink" x="0px" y="0px" viewBox="0 0 120 120" style="enable-background:new 0 0 120 120;" xml:space="preserve">
<style type="text/css">
	.st0{fill:#5CCEDF;}
</style>
<g>
	<g>
		<path class="st0" d="M115,81.2l-0.01-39.95c-0.16-0.4-0.31-0.81-0.47-1.22c-0.36-0.98-0.7-1.9-1.22-2.67c-1.45-2.1-3.65-3.18-6.55-3.19&#xA;			c-2.45-0.01-4.89,0-7.34-0.01l-5.42,0V11.94c0-2.56-1.04-3.6-3.59-3.6H27.1c-2.55,0-3.59,1.04-3.59,3.6v22.23h-2.16&#xA;			c-1.02,0-2.04,0.01-3.06,0.02c-2.26,0.02-4.59,0.05-6.91-0.05c-0.13-0.01-0.25-0.01-0.38-0.01c-4.29,0-7.79,2.79-8.37,6.76&#xA;			l-0.12,0.37v40.04c0.47,2.09,1.17,3.52,2.3,4.64c1.64,1.61,3.61,2.39,6.03,2.39c0.03,0,0.06,0,0.08,0&#xA;			c1.41-0.01,2.83-0.01,4.24-0.01c1.01,0,2.02,0,3.02,0l5.34,0v20.64c0,2.56,1.04,3.6,3.59,3.6h63.29c2.55,0,3.59-1.04,3.59-3.6&#xA;			V88.33h2.88c0.97,0,1.93-0.01,2.9-0.02c2.17-0.02,4.34-0.04,6.51,0.04c0.11,0,0.23,0.01,0.34,0.01c4.16,0,7.68-2.82,8.24-6.68&#xA;			C114.89,81.46,114.96,81.3,115,81.2z M29.35,14.17h58.79v19.94H29.35V14.17z M88.14,106.74H29.36V73.9h58.78V106.74z&#xA;			 M109.21,79.44c0,2.42-0.69,3.12-3.08,3.12h-7.38h-4.77V71.63c0-2.47-1.08-3.57-3.51-3.57h-63.4c-2.45,0-3.55,1.09-3.56,3.53&#xA;			v10.96H19.5c-3.05,0.01-6.01,0-8.99-0.01c-1.2,0-2.05-0.79-2.2-2.06c-0.04-0.25-0.04-0.52-0.03-0.79V43.04&#xA;			c0-2.38,0.73-3.11,3.12-3.11h94.65c2.45,0,3.16,0.72,3.16,3.18V79.44z" />
	</g>
	<g>
		<path class="st0" d="M78.49,51.8c0.01,1.62,1.27,2.82,2.98,2.85c1.18,0.03,2.35,0.02,3.51,0.01l1.27,0l1.48,0.01&#xA;			c1.09-0.01,2.18,0.01,3.29-0.01c1.7-0.04,2.96-1.28,2.95-2.88c-0.01-1.57-1.28-2.82-2.88-2.85c-1.61-0.03-3.23-0.03-4.84-0.03&#xA;			s-3.23,0.01-4.84,0.03C79.76,48.93,78.48,50.2,78.49,51.8z" />
	</g>
	<g>
		<path class="st0" d="M75.18,81.44c-3.3-0.01-6.6-0.02-9.9-0.01H42.6c-1.06,0-2.45,0.32-3.06,1.83c-0.36,0.89-0.26,1.84,0.26,2.62&#xA;			c0.55,0.82,1.46,1.29,2.5,1.3c3.86,0.02,7.74,0.02,11.61,0.01l10.18,0c0.88,0,1.76,0,2.64,0c2.71,0,5.43,0,8.14,0.01&#xA;			c0.01,0,0.01,0,0.02,0c1.14,0,1.91-0.3,2.48-0.96c0.83-0.96,0.99-1.97,0.49-3.06C77.37,82.01,76.48,81.45,75.18,81.44z" />
	</g>
	<g>
		<path class="st0" d="M42.57,99.2c5.22,0.01,10.46,0.01,15.66,0.01h5.88h2.98c2.65,0.01,5.3,0,7.94-0.01c1.43-0.01,2.47-0.67,2.93-1.85&#xA;			c0.34-0.89,0.24-1.84-0.28-2.6c-0.55-0.81-1.48-1.28-2.54-1.29c-3.83-0.02-7.67-0.02-11.53-0.01l-7.1,0c-4.68,0-9.37-0.01-14.05,0&#xA;			c-1.47,0-2.51,0.68-2.94,1.91c-0.32,0.9-0.21,1.8,0.31,2.54C40.4,98.73,41.41,99.2,42.57,99.2z" />
	</g>
</g>
</svg>