<?xml version="1.0" encoding="utf-8"?>
<!-- Generator: Adobe Illustrator 24.0.1, SVG Export Plug-In . SVG Version: 6.00 Build 0)  -->
<svg version="1.1" id="Capa_1" xmlns="http://www.w3.org/2000/svg" xmlns:xlink="http://www.w3.org/1999/xlink" x="0px" y="0px" viewBox="0 0 120 120" style="enable-background:new 0 0 120 120;" xml:space="preserve">
<style type="text/css">
	.st0{fill:#5A6EE0;}
</style>
<g>
	<g>
		<path class="st0" d="M109.22,82.6L86.09,59.46c4.34-9.85,2.48-21.8-5.58-29.86c-10.5-10.5-27.5-10.5-38,0c-10.48,10.48-10.48,27.53,0,38&#xA;			c8.32,8.33,20.52,9.91,30.26,5.41L95.8,96.03c3.71,3.71,9.72,3.71,13.43,0C112.93,92.33,112.93,86.31,109.22,82.6L109.22,82.6z&#xA;			 M46.8,63.32c-8.11-8.11-8.11-21.32,0-29.43c8.13-8.13,21.29-8.13,29.42,0c8.11,8.11,8.11,21.32,0,29.43&#xA;			C68.1,71.45,54.94,71.45,46.8,63.32L46.8,63.32z M104.94,91.75c-1.34,1.34-3.51,1.34-4.86,0l-21.99-22&#xA;			c1.81-1.42,3.42-3.06,4.82-4.9l22.03,22.03C106.28,88.23,106.28,90.41,104.94,91.75z" />
	</g>
	<g>
		<path class="st0" d="M11.59,58.04h12.92c1.67,0,3.03-1.36,3.03-3.03c0-1.67-1.36-3.03-3.03-3.03H11.59c-1.67,0-3.03,1.36-3.03,3.03&#xA;			C8.56,56.68,9.91,58.04,11.59,58.04z" />
	</g>
	<g>
		<path class="st0" d="M11.59,70.97h17.77c1.67,0,3.03-1.36,3.03-3.03s-1.36-3.03-3.03-3.03H11.59c-1.67,0-3.03,1.36-3.03,3.03&#xA;			S9.91,70.97,11.59,70.97z" />
	</g>
	<g>
		<path class="st0" d="M11.59,83.9h30.69c1.67,0,3.03-1.36,3.03-3.03c0-1.67-1.36-3.03-3.03-3.03H11.59c-1.67,0-3.03,1.36-3.03,3.03&#xA;			C8.56,82.54,9.91,83.9,11.59,83.9z" />
	</g>
	<g>
		<path class="st0" d="M77.82,90.77H11.59c-1.67,0-3.03,1.36-3.03,3.03c0,1.67,1.36,3.03,3.03,3.03h66.23c1.67,0,3.03-1.36,3.03-3.03&#xA;			C80.85,92.13,79.49,90.77,77.82,90.77z" />
	</g>
	<g>
		<path class="st0" d="M11.13,43.84h12.92c1.67,0,3.03-1.36,3.03-3.03s-1.36-3.03-3.03-3.03H11.13c-1.67,0-3.03,1.36-3.03,3.03&#xA;			S9.46,43.84,11.13,43.84z" />
	</g>
	<g>
		<path class="st0" d="M10.5,29.49h12.92c1.67,0,3.03-1.36,3.03-3.03s-1.36-3.03-3.03-3.03H10.5c-1.67,0-3.03,1.36-3.03,3.03&#xA;			S8.83,29.49,10.5,29.49z" />
	</g>
</g>
</svg>