<?xml version="1.0" encoding="utf-8"?>
<!-- Generator: Adobe Illustrator 24.0.1, SVG Export Plug-In . SVG Version: 6.00 Build 0)  -->
<svg version="1.1" id="Capa_1" xmlns="http://www.w3.org/2000/svg" xmlns:xlink="http://www.w3.org/1999/xlink" x="0px" y="0px" viewBox="0 0 120 120" style="enable-background:new 0 0 120 120;" xml:space="preserve">
<style type="text/css">
	.st0{fill:#35ADB4;}
</style>
<g>
	<g>
		<g>
			<path class="st0" d="M83.22,63.42H36.84c-1.83,0-3.31-1.48-3.31-3.31c0-1.83,1.48-3.31,3.31-3.31h46.37c1.83,0,3.31,1.48,3.31,3.31&#xA;				C86.53,61.94,85.05,63.42,83.22,63.42z" />
		</g>
		<g>
			<path class="st0" d="M60.03,86.61c-1.83,0-3.31-1.48-3.31-3.31V36.92c0-1.83,1.48-3.31,3.31-3.31s3.31,1.48,3.31,3.31V83.3&#xA;				C63.34,85.13,61.86,86.61,60.03,86.61z" />
		</g>
	</g>
	<g>
		<g>
			<g>
				<path class="st0" d="M59.38,114.22c29.84,0,54.11-24.27,54.11-54.11S89.22,6,59.38,6S5.27,30.28,5.27,60.11S29.55,114.22,59.38,114.22z&#xA;					 M59.38,14.38c25.21,0,45.73,20.51,45.73,45.73s-20.52,45.73-45.73,45.73c-25.22,0-45.73-20.51-45.73-45.73&#xA;					S34.17,14.38,59.38,14.38z" />
			</g>
		</g>
	</g>
</g>
</svg>