<?xml version="1.0" encoding="utf-8"?>
<!-- Generator: Adobe Illustrator 24.0.1, SVG Export Plug-In . SVG Version: 6.00 Build 0)  -->
<svg version="1.1" id="Capa_1" xmlns="http://www.w3.org/2000/svg" xmlns:xlink="http://www.w3.org/1999/xlink" x="0px" y="0px" viewBox="0 0 120 120" style="enable-background:new 0 0 120 120;" xml:space="preserve">
<style type="text/css">
	.st0{fill:#CBDEE7;}
</style>
<g>
	<path class="st0" d="M88.62,115.44H28.16c-13.68,0-24.8-11.12-24.8-24.8V30.18c0-13.67,11.12-24.79,24.8-24.79h60.46&#xA;		c13.67,0,24.79,11.12,24.79,24.79v60.46C113.41,104.32,102.29,115.44,88.62,115.44z M28.16,16.45c-7.58,0-13.74,6.16-13.74,13.73&#xA;		v60.46c0,7.58,6.16,13.74,13.74,13.74h60.46c7.57,0,13.73-6.16,13.73-13.74V30.18c0-7.57-6.16-13.73-13.73-13.73H28.16z" />
</g>
</svg>