<?xml version="1.0" encoding="utf-8"?>
<!-- Generator: Adobe Illustrator 24.0.1, SVG Export Plug-In . SVG Version: 6.00 Build 0)  -->
<svg version="1.1" id="Capa_1" xmlns="http://www.w3.org/2000/svg" xmlns:xlink="http://www.w3.org/1999/xlink" x="0px" y="0px" viewBox="0 0 21 21" style="enable-background:new 0 0 21 21;" xml:space="preserve">
<style type="text/css">
	.st0{fill:#CBDEE7;}
</style>
<g>
	<g>
		<g>
			<g>
				<path class="st0" d="M291.2,67.24c-0.17-0.17-0.45-0.17-0.62,0c-0.63,0.63-0.94,1.51-0.85,2.41c0.02,0.22,0.21,0.39,0.43,0.39&#xA;					c0.01,0,0.03,0,0.04,0c0.24-0.02,0.41-0.24,0.39-0.48c-0.06-0.64,0.15-1.26,0.6-1.71C291.37,67.69,291.37,67.41,291.2,67.24z" />
			</g>
		</g>
		<g>
			<g>
				<path class="st0" d="M292.92,64.56c-2.75,0-4.98,2.23-4.98,4.98s2.23,4.98,4.98,4.98s4.98-2.23,4.98-4.98&#xA;					S295.67,64.56,292.92,64.56z M292.92,73.65c-2.26,0-4.11-1.84-4.11-4.11s1.84-4.11,4.11-4.11c2.26,0,4.11,1.84,4.11,4.11&#xA;					C297.03,71.8,295.19,73.65,292.92,73.65z" />
			</g>
		</g>
		<g>
			<g>
				<path class="st0" d="M299.6,75.6l-3.16-3.16c-0.17-0.17-0.45-0.17-0.62,0c-0.17,0.17-0.17,0.45,0,0.62l3.16,3.16&#xA;					c0.09,0.09,0.2,0.13,0.31,0.13s0.22-0.04,0.31-0.13C299.77,76.05,299.77,75.77,299.6,75.6z" />
			</g>
		</g>
	</g>
</g>
<g>
	<g>
		<path class="st0" d="M20.18,11.71c0.01-0.62,0.01-1.23,0-1.83c-0.01-0.47-0.32-0.85-0.78-0.95c-0.37-0.08-0.76-0.15-1.14-0.2&#xA;			L18.09,8.7c-0.19-0.03-0.31-0.13-0.38-0.31c-0.13-0.34-0.28-0.69-0.43-1.04c-0.06-0.13-0.1-0.3,0.05-0.49&#xA;			c0.24-0.32,0.47-0.64,0.69-0.96c0.34-0.49,0.31-1-0.11-1.43c-0.39-0.4-0.79-0.8-1.18-1.19c-0.23-0.23-0.49-0.34-0.76-0.34&#xA;			c-0.22,0-0.45,0.08-0.67,0.23c-0.33,0.23-0.66,0.46-0.98,0.7c-0.09,0.06-0.17,0.09-0.26,0.09c-0.06,0-0.13-0.01-0.19-0.05&#xA;			c-0.38-0.17-0.76-0.32-1.13-0.46c-0.17-0.07-0.27-0.18-0.29-0.36c-0.06-0.4-0.13-0.79-0.2-1.19c-0.09-0.53-0.47-0.88-0.97-0.9&#xA;			c-0.31-0.01-0.62-0.02-0.94-0.02S9.7,0.99,9.38,1C8.92,1.01,8.54,1.33,8.44,1.78c-0.07,0.34-0.13,0.7-0.19,1.05L8.21,3.11&#xA;			C8.17,3.31,8.08,3.43,7.9,3.49C7.58,3.61,7.25,3.75,6.85,3.94c-0.07,0.03-0.14,0.05-0.2,0.05c-0.12,0-0.21-0.06-0.27-0.1&#xA;			C6.13,3.71,5.89,3.53,5.64,3.35L5.46,3.22C5.21,3.05,4.97,2.96,4.74,2.96c-0.28,0-0.55,0.13-0.8,0.38&#xA;			c-0.37,0.37-0.74,0.73-1.1,1.1c-0.46,0.46-0.5,0.97-0.13,1.5l0.25,0.35c0.15,0.21,0.3,0.42,0.45,0.64&#xA;			c0.07,0.11,0.09,0.28,0.05,0.4C3.31,7.72,3.15,8.1,2.99,8.46C2.94,8.59,2.8,8.7,2.67,8.72c-0.26,0.06-0.53,0.1-0.79,0.14&#xA;			L1.47,8.93C1.12,8.99,0.86,9.15,0.7,9.43C0.66,9.5,0.62,9.59,0.59,9.69c-0.01,0.04-0.03,0.07-0.04,0.1v2.12&#xA;			c0.1,0.28,0.19,0.51,0.4,0.64c0.17,0.1,0.35,0.18,0.53,0.22c0.31,0.07,0.63,0.12,0.95,0.17l0.23,0.04c0.2,0.03,0.33,0.13,0.4,0.32&#xA;			c0.12,0.31,0.25,0.63,0.43,1.03c0.08,0.18,0.07,0.34-0.05,0.49c-0.22,0.3-0.44,0.6-0.65,0.9c-0.38,0.54-0.34,1.05,0.1,1.49&#xA;			c0.38,0.38,0.76,0.77,1.14,1.14c0.24,0.24,0.5,0.36,0.78,0.36c0.22,0,0.45-0.08,0.68-0.24c0.12-0.09,0.24-0.17,0.36-0.26&#xA;			c0.21-0.15,0.43-0.3,0.65-0.45c0.09-0.06,0.2-0.07,0.25-0.07c0.06,0,0.11,0.01,0.16,0.03c0.18,0.07,0.36,0.14,0.54,0.22&#xA;			c0.17,0.07,0.34,0.14,0.5,0.2c0.18,0.07,0.27,0.19,0.3,0.37c0.03,0.2,0.06,0.39,0.1,0.59c0.03,0.18,0.06,0.37,0.09,0.55&#xA;			c0.08,0.52,0.35,0.83,0.84,0.95c0.02,0.01,0.04,0.02,0.06,0.02h2.09c0.03-0.01,0.05-0.02,0.08-0.03c0.44-0.13,0.7-0.41,0.79-0.88&#xA;			c0.07-0.39,0.14-0.79,0.2-1.19c0.03-0.2,0.13-0.32,0.33-0.4c0.31-0.12,0.65-0.26,1.03-0.43c0.08-0.03,0.14-0.05,0.21-0.05&#xA;			c0.09,0,0.18,0.03,0.26,0.1c0.26,0.19,0.52,0.38,0.78,0.56l0.17,0.12c0.23,0.17,0.47,0.25,0.69,0.25c0.28,0,0.54-0.12,0.79-0.37&#xA;			c0.38-0.37,0.76-0.75,1.13-1.13c0.44-0.45,0.48-0.95,0.11-1.47l-0.24-0.33c-0.15-0.21-0.31-0.43-0.45-0.64&#xA;			c-0.08-0.11-0.1-0.29-0.05-0.41c0.15-0.38,0.3-0.76,0.47-1.13c0.05-0.12,0.2-0.23,0.33-0.26c0.25-0.05,0.51-0.09,0.76-0.13&#xA;			c0.15-0.02,0.3-0.05,0.46-0.08C19.82,12.64,20.17,12.24,20.18,11.71z M19.46,11.57c0,0.18-0.06,0.4-0.38,0.45&#xA;			c-0.24,0.04-0.48,0.08-0.72,0.12c-0.26,0.04-0.52,0.09-0.78,0.13c-0.24,0.04-0.37,0.15-0.46,0.41c-0.18,0.51-0.4,1.04-0.66,1.58&#xA;			c-0.12,0.25-0.11,0.42,0.04,0.62c0.16,0.21,0.31,0.42,0.46,0.64c0.14,0.2,0.28,0.39,0.42,0.58c0.17,0.23,0.15,0.43-0.05,0.62&#xA;			c-0.33,0.31-0.67,0.66-1.06,1.06c-0.04,0.04-0.15,0.15-0.31,0.15c-0.12,0-0.21-0.06-0.28-0.11c-0.21-0.15-0.42-0.3-0.63-0.45&#xA;			c-0.21-0.15-0.42-0.3-0.63-0.45c-0.11-0.08-0.21-0.12-0.31-0.12c-0.08,0-0.17,0.03-0.26,0.08c-0.51,0.3-1.07,0.53-1.67,0.69&#xA;			c-0.21,0.06-0.32,0.17-0.35,0.39c-0.04,0.23-0.07,0.45-0.11,0.67c-0.05,0.29-0.1,0.58-0.14,0.87c-0.04,0.27-0.19,0.4-0.45,0.4&#xA;			c-0.27-0.01-0.51-0.01-0.76-0.01c-0.24,0-0.49,0-0.74,0.01l0,0c-0.41,0-0.45-0.31-0.47-0.41c-0.04-0.29-0.09-0.58-0.14-0.86&#xA;			c-0.04-0.21-0.07-0.43-0.1-0.64c-0.03-0.23-0.15-0.35-0.39-0.44c-0.53-0.19-1.05-0.4-1.55-0.63c-0.12-0.05-0.22-0.08-0.31-0.08&#xA;			c-0.11,0-0.21,0.04-0.32,0.12c-0.21,0.16-0.43,0.31-0.65,0.47c-0.2,0.14-0.41,0.29-0.6,0.43c-0.06,0.05-0.16,0.1-0.27,0.1&#xA;			c-0.16,0-0.27-0.12-0.31-0.15c-0.35-0.36-0.71-0.72-1.07-1.07c-0.18-0.18-0.2-0.37-0.05-0.57c0.14-0.2,0.29-0.4,0.43-0.59&#xA;			c0.16-0.22,0.31-0.44,0.48-0.66c0.14-0.19,0.15-0.35,0.03-0.6c-0.23-0.48-0.45-1-0.67-1.59c-0.1-0.26-0.22-0.36-0.44-0.4&#xA;			c-0.28-0.04-0.56-0.09-0.84-0.14c-0.24-0.04-0.47-0.08-0.71-0.12c-0.26-0.04-0.38-0.19-0.38-0.45c0.01-0.49,0.01-1,0-1.52&#xA;			c0-0.25,0.12-0.4,0.37-0.44c0.2-0.03,0.41-0.07,0.61-0.1c0.29-0.05,0.58-0.1,0.88-0.14c0.26-0.04,0.4-0.15,0.49-0.43&#xA;			c0.17-0.5,0.38-1.01,0.64-1.57C4.41,7.17,4.4,7,4.25,6.8C4.07,6.57,3.9,6.34,3.74,6.11C3.61,5.92,3.47,5.73,3.33,5.54&#xA;			C3.18,5.33,3.19,5.13,3.38,4.95c0.39-0.38,0.75-0.73,1.07-1.07c0.1-0.1,0.2-0.15,0.31-0.15c0.12,0,0.22,0.06,0.28,0.11&#xA;			c0.19,0.14,0.38,0.27,0.57,0.41C5.83,4.4,6.06,4.56,6.28,4.72c0.11,0.08,0.2,0.12,0.31,0.12c0.09,0,0.19-0.03,0.31-0.08&#xA;			C7.43,4.5,7.95,4.28,8.46,4.1C8.73,4,8.85,3.86,8.89,3.6c0.04-0.28,0.09-0.56,0.14-0.84c0.03-0.21,0.07-0.43,0.1-0.64&#xA;			c0.04-0.26,0.19-0.39,0.44-0.39c0.26,0.01,0.5,0.01,0.74,0.01c0.26,0,0.53,0,0.79-0.01l0,0c0.17,0,0.38,0.06,0.42,0.36&#xA;			c0.04,0.27,0.09,0.55,0.14,0.82c0.04,0.25,0.09,0.51,0.13,0.76c0.03,0.21,0.14,0.32,0.34,0.37c0.6,0.16,1.19,0.4,1.74,0.71&#xA;			c0.09,0.05,0.17,0.07,0.24,0.07c0.09,0,0.19-0.04,0.29-0.11c0.24-0.17,0.47-0.34,0.71-0.51c0.19-0.14,0.38-0.27,0.57-0.41&#xA;			c0.06-0.04,0.14-0.1,0.26-0.1c0.1,0,0.2,0.05,0.28,0.13c0.23,0.24,0.47,0.47,0.7,0.7l0.42,0.42c0.03,0.03,0.06,0.08,0.09,0.12&#xA;			l0.03,0.04l0.08,0.1l-0.07,0.11l-0.04,0.06c-0.03,0.04-0.05,0.09-0.08,0.12l-0.23,0.33c-0.22,0.31-0.43,0.62-0.66,0.92&#xA;			c-0.14,0.19-0.15,0.36-0.03,0.62c0.26,0.54,0.48,1.07,0.65,1.56c0.09,0.27,0.22,0.38,0.46,0.42c0.23,0.03,0.46,0.07,0.69,0.11&#xA;			c0.26,0.04,0.53,0.09,0.79,0.13c0.28,0.04,0.42,0.2,0.41,0.49C19.45,10.51,19.45,10.97,19.46,11.57z" />
	</g>
	<g>
		<path class="st0" d="M6.24,10.81c0,2.27,1.85,4.12,4.12,4.12s4.12-1.85,4.13-4.12c0.01-1.09-0.42-2.13-1.2-2.91&#xA;			c-0.78-0.79-1.81-1.22-2.91-1.22V6.59h-0.01l-0.01,0.1C8.09,6.7,6.24,8.55,6.24,10.81z M13.75,10.78&#xA;			c0.02,0.88-0.32,1.72-0.94,2.36c-0.64,0.66-1.51,1.04-2.43,1.05h-0.04c-1.81,0-3.32-1.51-3.36-3.36C6.97,9.96,7.3,9.12,7.93,8.47&#xA;			c0.64-0.67,1.51-1.04,2.43-1.05l0,0C12.21,7.42,13.72,8.93,13.75,10.78z" />
	</g>
</g>
</svg>