<?xml version="1.0" encoding="utf-8"?>
<!-- Generator: Adobe Illustrator 24.0.1, SVG Export Plug-In . SVG Version: 6.00 Build 0)  -->
<svg version="1.1" id="Capa_1" xmlns="http://www.w3.org/2000/svg" xmlns:xlink="http://www.w3.org/1999/xlink" x="0px" y="0px" viewBox="0 0 131.5 77.1" style="enable-background:new 0 0 131.5 77.1;" xml:space="preserve">
<style type="text/css">
	.white{fill:#FFFFFF;}
	.st0{fill:#35ADB4;}
	.black{fill:#020203;}
</style>
<path class="white" d="M115.4,69.8H16.5c-6.6,0-11.9-5.3-11.9-11.9V20.2c0-6.6,5.3-11.9,11.9-11.9h98.9c6.6,0,11.9,5.3,11.9,11.9v37.7&#xA;	C127.3,64.5,122,69.8,115.4,69.8z" />
<circle class="st0" cx="65.8" cy="29.1" r="17.1" />
<g>
	<g>
		<rect x="60" y="22.1" class="white" width="3.1" height="14" />
	</g>
	<g>
		<rect x="68.5" y="22.1" class="white" width="3.1" height="14" />
	</g>
</g>
<rect x="46.5" y="50.4" class="black" width="38.5" height="5.7" />
<g>
	<rect x="90.8" y="59.4" class="black" width="22.8" height="5.7" />
</g>
<g>
	<path class="st0" d="M13.4,14.2c0.1-0.5,0.4-0.7,0.7-0.7c0.4,0,0.6,0.3,0.7,0.7c1.4,0,2.8,0,4.2,0c0.1-0.4,0.3-0.7,0.7-0.7&#xA;		c0.4,0,0.6,0.2,0.7,0.7c0.3,0.1,0.6,0.1,0.9,0.2c1.5,0.4,2.5,1.7,2.6,3.3c0,2.2,0,4.3,0,6.5c0,1.8-1.5,3.4-3.4,3.4&#xA;		c-2.4,0-4.8,0-7.2,0c-1.9,0-3.4-1.5-3.4-3.4c0-2.1,0-4.3,0-6.4C9.9,15.7,11.4,14.3,13.4,14.2C13.3,14.2,13.3,14.2,13.4,14.2z&#xA;		 M11.3,19.1c0,0.1,0,0.1,0,0.2c0,1.6,0,3.1,0,4.7c0,1.2,0.9,2.2,2.2,2.2c2.3,0,4.6,0,6.9,0c0.2,0,0.3,0,0.5,0&#xA;		c1-0.2,1.7-1.1,1.7-2.1c0-1.6,0-3.1,0-4.7c0-0.1,0-0.1,0-0.2C18.8,19.1,15,19.1,11.3,19.1z M19,15.6c-1.4,0-2.8,0-4.2,0&#xA;		c0,0.2,0,0.5,0,0.7c0,0.3-0.3,0.6-0.6,0.7c-0.4,0-0.7-0.2-0.7-0.6c0-0.2,0-0.4,0-0.6c0-0.1,0-0.1,0-0.2c-1.2,0-2.2,1.1-2.1,2.1&#xA;		c3.7,0,7.4,0,11.1,0c0-1.2-1.1-2.1-2.1-2.1c0,0.2,0,0.4,0,0.7c0,0.4-0.3,0.7-0.7,0.7c-0.4,0-0.7-0.3-0.7-0.7C19,16,19,15.8,19,15.6&#xA;		z" />
	<path class="st0" d="M19,21.2c0-0.4,0.3-0.7,0.7-0.7c0.4,0,0.7,0.3,0.7,0.7c0,0.4-0.3,0.7-0.7,0.7C19.3,21.9,19,21.6,19,21.2z" />
	<path class="st0" d="M14.1,24.7c-0.4,0-0.7-0.3-0.7-0.7c0-0.4,0.3-0.7,0.7-0.7c0.4,0,0.7,0.3,0.7,0.7&#xA;		C14.8,24.4,14.5,24.7,14.1,24.7z" />
	<path class="st0" d="M19.7,24.7c-0.4,0-0.7-0.3-0.7-0.7c0-0.4,0.3-0.7,0.7-0.7c0.4,0,0.7,0.3,0.7,0.7&#xA;		C20.4,24.4,20.1,24.7,19.7,24.7z" />
	<path class="st0" d="M14.8,21.2c0,0.4-0.3,0.7-0.7,0.7c-0.4,0-0.7-0.3-0.7-0.7c0-0.4,0.3-0.7,0.7-0.7&#xA;		C14.5,20.5,14.8,20.8,14.8,21.2z" />
	<path class="st0" d="M17.6,21.2c0,0.4-0.3,0.7-0.7,0.7c-0.4,0-0.7-0.3-0.7-0.7c0-0.4,0.3-0.7,0.7-0.7&#xA;		C17.3,20.5,17.6,20.8,17.6,21.2z" />
	<path class="st0" d="M17.6,24c0,0.4-0.3,0.7-0.7,0.7c-0.4,0-0.7-0.3-0.7-0.7c0-0.4,0.3-0.7,0.7-0.7C17.3,23.3,17.6,23.6,17.6,24z" />
</g>
<g>
	<g>
		<path d="M116.9,65.4c-0.1,0-0.2-0.1-0.3-0.2c-0.1-0.2-0.1-0.4,0-0.6c0,0,0.1-0.1,0.1-0.1c0.8-0.8,1.6-1.6,2.4-2.4c0,0,0,0,0.1-0.1&#xA;			c0,0,0,0-0.1,0c-0.8-0.8-1.6-1.6-2.4-2.4c-0.1-0.1-0.2-0.3-0.1-0.5c0.1-0.3,0.5-0.4,0.7-0.2c0,0,0.1,0,0.1,0.1&#xA;			c0.9,0.9,1.8,1.8,2.8,2.8c0.2,0.2,0.2,0.4,0.1,0.6c0,0-0.1,0.1-0.1,0.1c-0.9,0.9-1.8,1.8-2.7,2.7c-0.1,0.1-0.2,0.2-0.3,0.2&#xA;			C117,65.4,117,65.4,116.9,65.4z" />
		<path d="M117.1,65.7l-0.2,0c-0.2-0.1-0.4-0.1-0.5-0.3c-0.2-0.3-0.2-0.7,0-1c0,0,0.1-0.1,0.1-0.1l2.2-2.2l-2.2-2.2&#xA;			c-0.2-0.2-0.3-0.5-0.2-0.8c0.1-0.2,0.3-0.4,0.5-0.5c0.2-0.1,0.5,0,0.7,0.1c0,0,0.1,0.1,0.1,0.1l2.8,2.8c0.3,0.3,0.3,0.7,0.1,1&#xA;			c0,0.1-0.1,0.1-0.2,0.2l-2.7,2.7C117.5,65.5,117.3,65.6,117.1,65.7L117.1,65.7z M117,65L117,65c0.1,0,0.1-0.1,0.2-0.1l2.7-2.7&#xA;			c0,0,0,0,0.1-0.1c0,0,0-0.1,0-0.2l-2.8-2.8c-0.1-0.1-0.1-0.1-0.1-0.1c0,0-0.1,0-0.1,0.1c0,0.1,0,0.1,0.1,0.2l2.4,2.4l0.3,0.2&#xA;			l-0.2,0.3c0,0.1-0.1,0.1-0.1,0.1l-2.4,2.4c0,0,0,0-0.1,0.1C116.9,64.9,116.9,64.9,117,65C116.9,65,116.9,65,117,65z" />
	</g>
</g>
</svg>