<?xml version="1.0" encoding="utf-8"?>
<!-- Generator: Adobe Illustrator 24.0.1, SVG Export Plug-In . SVG Version: 6.00 Build 0)  -->
<svg version="1.1" id="Capa_1" xmlns="http://www.w3.org/2000/svg" xmlns:xlink="http://www.w3.org/1999/xlink" x="0px" y="0px" viewBox="0 0 120 120" style="enable-background:new 0 0 120 120;" xml:space="preserve">
<style type="text/css">
	.st1{fill:#6015AF;}
</style>
<g>
	<path class="st1" d="M59.87,116.52c-30.25,0-54.86-24.61-54.86-54.86S29.62,6.8,59.87,6.8s54.86,24.61,54.86,54.86&#xA;		S90.13,116.52,59.87,116.52z M59.87,10.42c-28.25,0-51.24,22.99-51.24,51.24s22.99,51.24,51.24,51.24s51.24-22.99,51.24-51.24&#xA;		S88.13,10.42,59.87,10.42z" />
</g>
<g>
	<path class="st1" d="M33.44,40.7c6.3,8.87,12.59,17.76,18.92,26.62c1.39,1.94,2.07,4.04,2.06,6.43&#xA;		c-0.04,6.98-0.01,13.96-0.01,20.93c0,0.24,0,0.48,0,0.81c0.29-0.1,0.48-0.15,0.67-0.22c3.05-1.16,6.09-2.34,9.15-3.47&#xA;		c0.47-0.17,0.58-0.4,0.58-0.87c-0.02-5.75,0.01-11.49-0.02-17.24c-0.01-2.32,0.65-4.38,2-6.27c6.34-8.9,12.66-17.81,18.98-26.72&#xA;		c0.12-0.17,0.23-0.35,0.37-0.55c-17.72,0-35.36,0-53.07,0C33.22,40.37,33.33,40.54,33.44,40.7z" />
	<path class="st1" d="M59.61,7.63c-29.3,0-53.05,23.75-53.05,53.05s23.75,53.05,53.05,53.05s53.05-23.75,53.05-53.05&#xA;		S88.91,7.63,59.61,7.63z M89.5,40.79c-0.14,0.27-0.31,0.52-0.48,0.77c-6.53,9.21-13.06,18.42-19.61,27.61&#xA;		c-1,1.41-1.48,2.9-1.47,4.62c0.03,5.93,0.01,11.86,0.01,17.79c0,1.66-0.46,2.33-2,2.92c-3.61,1.38-7.23,2.75-10.83,4.14&#xA;		c-1.11,0.43-2.13,0.39-3.04-0.45c-0.68-0.63-0.81-1.45-0.81-2.32c0.01-6.68,0-13.35,0-20.03c0-0.71-0.03-1.41,0.01-2.12&#xA;		c0.09-1.69-0.45-3.14-1.42-4.51c-6.59-9.24-13.15-18.5-19.72-27.76c-0.92-1.3-1.01-2.56-0.11-3.54c0.39-0.42,0.98-0.65,1.48-0.97&#xA;		c18.72,0,37.45,0,56.17,0c0.5,0.29,1.08,0.49,1.48,0.88C89.94,38.61,90.04,39.79,89.5,40.79z" />
</g>
<g>
	<g>
		<path class="st1" d="M235.8,41.51c0.5,0.29,1.08,0.49,1.48,0.88c0.8,0.78,0.9,1.95,0.36,2.96c-0.14,0.27-0.31,0.52-0.48,0.77&#xA;			c-6.53,9.21-13.06,18.42-19.61,27.61c-1,1.41-1.48,2.9-1.47,4.62c0.03,5.93,0.01,11.86,0.01,17.79c0,1.66-0.46,2.33-2,2.92&#xA;			c-3.61,1.38-7.23,2.75-10.83,4.14c-1.11,0.43-2.13,0.39-3.04-0.45c-0.68-0.63-0.81-1.45-0.81-2.32c0.01-6.68,0-13.35,0-20.03&#xA;			c0-0.71-0.03-1.41,0.01-2.12c0.09-1.69-0.45-3.14-1.42-4.51c-6.59-9.24-13.15-18.5-19.72-27.76c-0.92-1.3-1.01-2.56-0.11-3.54&#xA;			c0.39-0.42,0.98-0.65,1.48-0.97C198.36,41.51,217.08,41.51,235.8,41.51z M202.54,100.05c0.29-0.1,0.48-0.15,0.67-0.22&#xA;			c3.05-1.16,6.09-2.34,9.15-3.47c0.47-0.17,0.58-0.4,0.58-0.87c-0.02-5.75,0.01-11.49-0.02-17.24c-0.01-2.32,0.65-4.38,2-6.27&#xA;			c6.34-8.9,12.66-17.81,18.98-26.72c0.12-0.17,0.23-0.35,0.37-0.55c-17.72,0-35.36,0-53.07,0c0.15,0.22,0.26,0.39,0.38,0.55&#xA;			c6.3,8.87,12.59,17.76,18.92,26.62c1.39,1.94,2.07,4.04,2.06,6.43c-0.04,6.98-0.01,13.96-0.01,20.93&#xA;			C202.54,99.47,202.54,99.71,202.54,100.05z" />
	</g>
</g>
</svg>