<?xml version="1.0" encoding="utf-8"?>
<!-- Generator: Adobe Illustrator 24.0.1, SVG Export Plug-In . SVG Version: 6.00 Build 0)  -->
<svg version="1.1" id="Capa_1" xmlns="http://www.w3.org/2000/svg" xmlns:xlink="http://www.w3.org/1999/xlink" x="0px" y="0px" viewBox="0 0 25 25" style="enable-background:new 0 0 25 25;" xml:space="preserve">
<style type="text/css">
	.st0{fill:#A83453;}
</style>
<g>
	<g>
		<path class="st0" d="M22.81,17.63c-0.25,0.34-0.41,0.37-0.8,0.16c-1.44-0.79-2.88-1.57-4.32-2.36c-0.07-0.04-0.14-0.07-0.25-0.13&#xA;			c-0.01,0.09-0.01,0.16-0.01,0.23c0,0.48,0.01,0.95-0.01,1.43c-0.05,1.1-0.98,2-2.09,2.03c-0.52,0.01-1.03,0-1.55,0&#xA;			c-3.11,0-6.23,0-9.34,0c-1.07,0-1.94-0.66-2.18-1.68c-0.05-0.19-0.06-0.4-0.06-0.6c0-2.81,0-5.62,0-8.43C2.19,6.94,3.13,6,4.49,6&#xA;			c2.8,0,5.6,0,8.39,0c0.76,0,1.53-0.01,2.29,0c1.13,0.01,2.05,0.74,2.21,1.81c0.07,0.43,0.03,0.87,0.04,1.31c0,0.19,0,0.38,0,0.61&#xA;			c0.1-0.05,0.17-0.08,0.24-0.12c1.45-0.79,2.89-1.58,4.34-2.37c0.39-0.21,0.54-0.18,0.8,0.16C22.81,10.81,22.81,14.22,22.81,17.63z&#xA;			 M9.8,18.12c1.79,0,3.57,0,5.36,0c0.85,0,1.4-0.55,1.4-1.4c0-2.81,0-5.62,0-8.44c0-0.85-0.56-1.41-1.4-1.41&#xA;			c-3.57,0-7.14,0-10.71,0c-0.83,0-1.38,0.55-1.38,1.37c0,2.83,0,5.66,0,8.5c0,0.21,0.04,0.45,0.14,0.64&#xA;			c0.25,0.52,0.7,0.74,1.28,0.74C6.26,18.12,8.03,18.12,9.8,18.12z M21.92,8.29c-0.05,0.03-0.09,0.04-0.12,0.06&#xA;			c-1.41,0.77-2.82,1.54-4.24,2.31c-0.12,0.07-0.13,0.15-0.13,0.26c0,1.06,0,2.12,0,3.18c0,0.15,0.05,0.23,0.18,0.29&#xA;			c1.38,0.75,2.75,1.5,4.13,2.25c0.06,0.03,0.12,0.06,0.18,0.09C21.92,13.91,21.92,11.11,21.92,8.29z" />
		<path class="st0" d="M14.67,19.12c-0.15,0-0.3,0-0.45,0l-2.99,0c-2.26,0-4.53,0-6.79,0c-1.14,0-2.04-0.7-2.3-1.77&#xA;			c-0.04-0.19-0.07-0.4-0.07-0.63c0-2.81,0-5.62,0-8.44c0-1.42,1-2.41,2.42-2.41c2,0,4,0,6,0l2.4,0l0.7,0c0.53,0,1.06,0,1.59,0&#xA;			c1.2,0.01,2.16,0.8,2.33,1.92c0.05,0.31,0.05,0.63,0.04,0.94c0,0.13,0,0.26,0,0.38c0,0.13,0,0.27,0,0.41&#xA;			c0.02-0.01,0.04-0.02,0.05-0.03l4.34-2.37c0.44-0.24,0.66-0.19,0.96,0.2l0.03,0.03v10.31l-0.02,0.03&#xA;			c-0.28,0.39-0.51,0.44-0.96,0.2l-4.32-2.36c-0.02-0.01-0.05-0.03-0.07-0.04c0,0.01,0,0.02,0,0.03c0,0.15,0,0.3,0,0.46&#xA;			c0,0.32,0,0.65-0.01,0.98c-0.06,1.17-1.03,2.12-2.21,2.15C15.11,19.12,14.89,19.12,14.67,19.12z M13.78,18.87l0.45,0&#xA;			c0.37,0,0.73,0,1.1-0.01c1.03-0.03,1.92-0.89,1.97-1.91c0.02-0.32,0.01-0.65,0.01-0.96c0-0.15,0-0.31,0-0.46&#xA;			c0-0.04,0-0.09,0.01-0.14l0.02-0.29l0.28,0.15c0.05,0.03,0.1,0.05,0.14,0.07l4.32,2.36c0.32,0.18,0.42,0.16,0.61-0.1V7.44&#xA;			c-0.2-0.26-0.29-0.27-0.61-0.09l-4.34,2.37c-0.04,0.02-0.09,0.05-0.14,0.07l-0.29,0.14l0-0.4c0-0.14,0-0.27,0-0.41&#xA;			c0-0.13,0-0.26,0-0.39c0-0.3,0.01-0.61-0.04-0.9c-0.15-0.99-1.01-1.7-2.09-1.71c-0.53,0-1.06,0-1.59,0l-0.7,0l-2.4,0c-2,0-4,0-6,0&#xA;			c-1.28,0-2.17,0.89-2.17,2.16c0,2.81,0,5.62,0,8.43c0,0.21,0.02,0.4,0.06,0.57c0.23,0.96,1.04,1.58,2.06,1.58&#xA;			c2.26,0,4.53,0,6.79,0H13.78z M4.48,18.25c-0.66,0-1.12-0.27-1.38-0.81C3,17.24,2.95,17,2.95,16.75c-0.01-2.83-0.01-5.66,0-8.5&#xA;			c0-0.9,0.61-1.5,1.51-1.5c3.57,0,7.14,0,10.71,0c0.91,0,1.52,0.62,1.52,1.53c0,2.81,0,5.62,0,8.44c0,0.92-0.6,1.52-1.53,1.52&#xA;			c-1.26,0-2.52,0-3.78,0l-3.06,0C7.04,18.24,5.77,18.24,4.48,18.25C4.49,18.25,4.48,18.25,4.48,18.25z M9.81,7&#xA;			C8.02,7,6.24,7,4.45,7C3.69,7,3.2,7.49,3.2,8.25c0,2.83,0,5.66,0,8.5c0,0.21,0.04,0.42,0.12,0.58C3.54,17.78,3.92,18,4.48,18&#xA;			c0,0,0,0,0.01,0c1.28,0,2.55,0,3.83,0l3.06,0c1.26,0,2.52,0,3.78,0c0.79,0,1.28-0.49,1.28-1.27c0-2.81,0-5.62,0-8.44&#xA;			c0-0.78-0.5-1.28-1.27-1.28C13.38,7,11.59,7,9.81,7z M22.05,16.93l-0.25-0.12c-0.04-0.02-0.08-0.04-0.12-0.06l-0.72-0.39&#xA;			c-1.14-0.62-2.27-1.24-3.41-1.86c-0.17-0.09-0.24-0.21-0.24-0.41c0.01-1.06,0-2.12,0-3.18c0-0.11,0-0.27,0.2-0.37&#xA;			c1.16-0.63,2.32-1.26,3.48-1.89l0.76-0.41c0.03-0.02,0.06-0.03,0.09-0.05l0.21-0.1V16.93z M21.8,8.5l-0.7,0.38&#xA;			c-1.16,0.63-2.32,1.27-3.48,1.89c-0.06,0.03-0.06,0.05-0.06,0.15c0,1.06,0,2.12,0,3.18c0,0.1,0.02,0.13,0.11,0.18&#xA;			c1.14,0.62,2.28,1.24,3.41,1.86l0.72,0.39V8.5z" />
	</g>
</g>
</svg>