<?xml version="1.0" encoding="utf-8"?>
<!-- Generator: Adobe Illustrator 24.0.1, SVG Export Plug-In . SVG Version: 6.00 Build 0)  -->
<svg version="1.1" id="Capa_1" xmlns="http://www.w3.org/2000/svg" xmlns:xlink="http://www.w3.org/1999/xlink" x="0px" y="0px"
	 viewBox="0 0 114 114" style="enable-background:new 0 0 114 114;" xml:space="preserve">
<style type="text/css">
	.st0{fill:#EE715F;}
	.st1{opacity:0.3;}
	.st2{fill:#010202;}
	.st3{fill:#E1E0E0;}
	.st4{fill:#ECECEC;}
	.st5{fill:#FBFBFB;}
	.st6{fill:none;}
</style>
<g>
	<g>
		<g>
			<path class="st0" d="M24.74,85.76L5.13,38.44c-0.9-2.16,0.23-3.91,2.51-3.91h3.95c1.61,0,2.71-0.89,2.81-2.27l0.13-1.74
				c0.1-1.38,1.2-2.27,2.82-2.27h18.75c1.46,0,3.11,0.73,4.34,1.92l1.52,1.47c1.23,1.19,2.88,1.92,4.34,1.92h23.88
				c2.28,0,4.83,1.75,5.7,3.91l19.44,48.28H24.74z"/>
		</g>
	</g>
	<g class="st1">
		<g>
			<path class="st2" d="M24.74,85.76L5.13,38.44c-0.9-2.16,0.23-3.91,2.51-3.91h3.95c1.61,0,2.71-0.89,2.81-2.27l0.13-1.74
				c0.1-1.38,1.2-2.27,2.82-2.27h18.75c1.46,0,3.11,0.73,4.34,1.92l1.52,1.47c1.23,1.19,2.88,1.92,4.34,1.92h23.88
				c2.28,0,4.83,1.75,5.7,3.91l19.44,48.28H24.74z"/>
		</g>
	</g>
	<g>
		<path class="st3" d="M21.5,69.69l-7.4-28.6c-0.49-1.88,0.75-3.77,2.46-3.77h57.98c1.15,0,2.15,0.87,2.47,2.13l10.77,43.05
			c0.47,1.89-0.28,3.02-2,3l-58.33,0.02c-1.13-0.01-2.12-0.87-2.44-2.11L21.5,69.69z"/>
	</g>
	<g>
		<g>
			<path class="st4" d="M25.51,84.46l-3.15-45.04c-0.11-1.6,1.15-2.95,2.76-2.95h60.07v47.99H25.51z"/>
		</g>
		<g>
			<g>
				<g>
					<g>
						<path class="st5" d="M24.83,85.49l7.15-46.43c0.33-1.51,1.69-2.59,3.27-2.59h60.77c2.4,0,4.02,2.41,3.07,4.58L85.96,83.54
							L24.83,85.49z"/>
					</g>
				</g>
			</g>
		</g>
	</g>
	<g>
		<g>
			<g>
				<g>
					<g>
						<path class="st0" d="M24.74,85.73l14.74-43.48c0.61-1.81,2.26-3.02,4.1-3.02h62.65c2.02,0,3.44,2.07,2.8,4.06L95.32,85.76
							L24.74,85.73z"/>
					</g>
				</g>
			</g>
		</g>
	</g>
</g>
<rect class="st6" width="114" height="114"/>
</svg>
