<?xml version="1.0" encoding="utf-8"?>
<!-- Generator: Adobe Illustrator 24.0.1, SVG Export Plug-In . SVG Version: 6.00 Build 0)  -->
<svg version="1.1" id="Capa_1" xmlns="http://www.w3.org/2000/svg" xmlns:xlink="http://www.w3.org/1999/xlink" x="0px" y="0px"
	 viewBox="0 0 120 120" style="enable-background:new 0 0 120 120;" xml:space="preserve">
<style type="text/css">
	.st0{fill:none;}
</style>
<rect class="st0" width="120" height="120"/>
<g>
	<path d="M56.06,2c2.4,0,4.81,0,7.21,0c0.29,0.06,0.58,0.14,0.87,0.19c2.96,0.46,5.96,0.73,8.87,1.4
		c22.21,5.08,39.68,23.67,43.44,46.14c0.35,2.1,0.59,4.22,0.87,6.34c0,2.4,0,4.81,0,7.21c-0.06,0.29-0.15,0.58-0.19,0.87
		c-0.39,2.67-0.64,5.37-1.18,8c-4.62,22.36-23.74,40.65-46.24,44.3c-2.14,0.35-4.29,0.59-6.44,0.89c-2.4,0-4.81,0-7.21,0
		c-0.25-0.06-0.5-0.14-0.75-0.18c-2.63-0.38-5.29-0.64-7.89-1.16C25.06,111.51,6.53,92.28,2.9,69.82c-0.35-2.18-0.6-4.37-0.9-6.56
		c0-2.4,0-4.81,0-7.21c0.37-2.55,0.65-5.12,1.12-7.66C7.4,25.44,26.58,6.68,49.61,2.89C51.75,2.54,53.91,2.29,56.06,2z M25.05,96.81
		c3.43-10.95,10.35-18.68,20.86-23.37c-6.49-4.54-10.38-10.61-11.18-18.41c-0.8-7.79,1.6-14.62,7.11-20.22
		c9.62-9.8,25.37-9.99,35.18-0.46c4.91,4.76,7.56,10.59,7.68,17.45c0.16,9.19-3.84,16.29-11.25,21.67
		c10.5,4.69,17.42,12.46,20.83,23.37c13.52-12.22,20.64-33.31,13.35-54.24C100.62,22.45,80.77,8.52,59.2,8.76
		C37.14,9.02,17.91,23.16,11.14,44.33C4.67,64.55,11.87,85.01,25.05,96.81z M59.65,110.58c10.04-0.09,19.26-2.8,27.7-8.19
		c0.92-0.59,1.03-1.15,0.8-2.1c-3.37-14.37-16.18-23.77-30.93-22.64c-12.73,0.97-23.56,10.48-26.12,22.91
		c-0.17,0.82,0.02,1.27,0.74,1.73C40.32,107.76,49.6,110.5,59.65,110.58z M59.65,34.09c-10.12,0.01-18.31,8.22-18.3,18.35
		c0.01,10.14,8.19,18.31,18.32,18.3c10.13-0.01,18.31-8.19,18.3-18.33C77.97,42.29,69.76,34.08,59.65,34.09z"/>
</g>
</svg>
