<?xml version="1.0" encoding="utf-8"?>
<!-- Generator: Adobe Illustrator 24.0.1, SVG Export Plug-In . SVG Version: 6.00 Build 0)  -->
<svg version="1.1" id="Capa_1" xmlns="http://www.w3.org/2000/svg" xmlns:xlink="http://www.w3.org/1999/xlink" x="0px" y="0px"
	 viewBox="0 0 130 130" style="enable-background:new 0 0 130 130;" xml:space="preserve">
<style type="text/css">
	.st0{fill-rule:evenodd;clip-rule:evenodd;fill:#6015AF;}
	.st1{fill:#6015AF;}
</style>
<g>
	<path class="st0" d="M77.72,22.67C-5.6-18.38-0.66,70.93,82.79,28.13C17.86,49.65,9.27,2.8,77.72,22.67z"/>
	<path class="st0" d="M78.4,23.2c40.16,21.99,54.62-21.61,11.27,0.64C123.4,12.67,113.95,33.51,78.4,23.2z"/>
	<path class="st1" d="M14.08,47.83h13.2l-3.33,16.14l17.18-16.14h17.55l-18.9,16.12l7.8,19.24c0.62-0.86,1.29-1.72,2.03-2.56
		c2.71-3.1,7.35-6.75,13.9-10.98c4.02-2.57,6.64-4.54,7.9-5.88c1.25-1.34,2-2.62,2.25-3.82c0.27-1.3,0-2.41-0.75-3.34
		c-0.78-0.91-1.9-1.38-3.35-1.38c-1.52,0-2.86,0.48-4.02,1.43c-1.15,0.95-2.15,2.63-2.98,5.05l-11.69-0.97
		c1.16-3.34,2.55-5.95,4.18-7.83c1.63-1.87,3.68-3.32,6.15-4.31c2.46-1.02,5.71-1.5,9.71-1.5c4.18,0,7.33,0.47,9.46,1.42
		c2.12,0.96,3.66,2.42,4.56,4.39c0.28,0.58,0.49,1.2,0.64,1.82l1.43-6.91h24.73c4.12,0,7.07,1.02,8.85,3.06
		c1.79,2.04,2.38,4.57,1.76,7.58c-0.53,2.53-1.76,4.7-3.7,6.51c-1.3,1.21-3.03,2.16-5.2,2.86c2.92,0.74,4.91,2.01,6,3.81
		c1.08,1.8,1.34,4.06,0.78,6.77c-0.46,2.22-1.39,4.21-2.78,5.98c-1.39,1.78-3.09,3.17-5.09,4.2c-1.24,0.63-3.01,1.1-5.31,1.39
		c-3.05,0.39-5.07,0.59-6.04,0.59H79.49H78.2H50.58h-6.73h-9.54l-5.39-17.59l-8.3,7.14l-2.15,10.44H5.27L14.08,47.83L14.08,47.83z
		 M83.57,64.52c-0.52,0.85-1.13,1.67-1.82,2.49c-2.01,2.37-5.33,4.97-9.93,7.81c-2.74,1.65-4.57,2.81-5.51,3.47
		c-0.94,0.67-2.08,1.53-3.38,2.6H80.2L83.57,64.52L83.57,64.52z M96.88,64.6h5.74c2.06,0,3.56-0.35,4.53-1.07
		c0.95-0.71,1.55-1.74,1.84-3.07c0.25-1.25,0.06-2.22-0.6-2.92c-0.67-0.7-2-1.05-4.01-1.05h-5.83L96.88,64.6L96.88,64.6z
		 M93.43,81.39h6.74c2.28,0,3.96-0.4,5.05-1.2c1.1-0.81,1.79-1.9,2.08-3.26c0.26-1.26,0.02-2.28-0.75-3.04
		c-0.77-0.77-2.3-1.16-4.62-1.16h-6.71L93.43,81.39L93.43,81.39z"/>
	<g>
		<path class="st1" d="M20.69,118.4v-14.76h-7.24v-2.39h17.18v2.39h-7.26v14.76H20.69z"/>
		<path class="st1" d="M42.3,118.95c-3.06,0-5.57-0.87-7.54-2.59c-1.97-1.73-2.95-3.9-2.95-6.52c0-2.62,0.98-4.79,2.94-6.5
			c1.96-1.71,4.48-2.57,7.55-2.57c3.09,0,5.62,0.85,7.59,2.55c1.96,1.7,2.95,3.87,2.95,6.52c0,2.63-0.99,4.8-2.96,6.53
			C47.91,118.08,45.38,118.95,42.3,118.95z M42.3,116.45c2.29,0,4.16-0.63,5.61-1.86c1.45-1.25,2.17-2.83,2.17-4.75
			c0-1.9-0.72-3.48-2.18-4.73c-1.45-1.25-3.32-1.87-5.6-1.87c-2.28,0-4.14,0.62-5.59,1.86c-1.44,1.24-2.16,2.82-2.16,4.74
			c0,1.92,0.72,3.5,2.16,4.75C38.16,115.82,40.03,116.45,42.3,116.45z"/>
		<path class="st1" d="M66.22,118.95c-3.06,0-5.57-0.87-7.54-2.59c-1.97-1.73-2.95-3.9-2.95-6.52c0-2.62,0.98-4.79,2.94-6.5
			c1.96-1.71,4.48-2.57,7.55-2.57c3.09,0,5.62,0.85,7.58,2.55c1.96,1.7,2.94,3.87,2.94,6.52c0,2.63-0.98,4.8-2.95,6.53
			C71.82,118.08,69.3,118.95,66.22,118.95z M66.22,116.45c2.29,0,4.16-0.63,5.61-1.86c1.45-1.25,2.17-2.83,2.17-4.75
			c0-1.9-0.73-3.48-2.18-4.73c-1.45-1.25-3.32-1.87-5.6-1.87c-2.29,0-4.14,0.62-5.58,1.86c-1.44,1.24-2.16,2.82-2.16,4.74
			c0,1.92,0.72,3.5,2.16,4.75C62.08,115.82,63.93,116.45,66.22,116.45z"/>
		<path class="st1" d="M81.09,118.4v-17.15h2.7v14.69h12.73v2.46H81.09z"/>
		<path class="st1" d="M98.12,116.23l1.31-2.25c1.18,0.79,2.46,1.4,3.85,1.84c1.4,0.44,2.73,0.66,4,0.66c1.52,0,2.76-0.31,3.7-0.94
			c0.93-0.62,1.41-1.43,1.41-2.41c0-0.98-0.43-1.7-1.29-2.19c-0.85-0.47-2.2-0.74-4.05-0.79c-3.13-0.04-5.27-0.4-6.43-1.09
			c-1.17-0.68-1.75-1.82-1.75-3.4c0-1.47,0.64-2.66,1.92-3.56c1.28-0.9,3-1.35,5.15-1.35c1.48,0,2.91,0.21,4.3,0.62
			c1.39,0.42,2.72,1.04,4.01,1.85l-1.36,2.23c-1.07-0.72-2.22-1.28-3.45-1.68c-1.23-0.4-2.41-0.59-3.53-0.59
			c-1.29,0-2.35,0.22-3.13,0.68c-0.79,0.46-1.18,1.05-1.18,1.79c0,0.76,0.4,1.31,1.19,1.63c0.79,0.33,2.17,0.49,4.15,0.49
			c2.73,0,4.79,0.46,6.18,1.39c1.39,0.92,2.09,2.3,2.09,4.12c0,1.62-0.71,2.97-2.12,4.04c-1.41,1.07-3.25,1.61-5.49,1.61
			c-1.67,0-3.31-0.24-4.96-0.71C101,117.77,99.49,117.1,98.12,116.23z"/>
	</g>
</g>
</svg>
