<?xml version="1.0" encoding="utf-8"?>
<!-- Generator: Adobe Illustrator 24.0.1, SVG Export Plug-In . SVG Version: 6.00 Build 0)  -->
<svg version="1.1" id="Capa_1" xmlns="http://www.w3.org/2000/svg" xmlns:xlink="http://www.w3.org/1999/xlink" x="0px" y="0px" viewBox="0 0 16.34 16.34" style="enable-background:new 0 0 16.34 16.34;" xml:space="preserve">
<style type="text/css">
	.st1{fill:#CBDEE7;}
</style>
<g>
	<path class="st1" d="M5.69,3.69c0.26-0.2,0.55-0.38,0.89-0.53c1.11-0.51,2.38-0.46,3.49,0.12c1.12,0.59,1.89,1.62,2.1,2.83&#xA;		c0.05,0.26,0.07,0.55,0.08,0.87c0.01,0.87,0.01,1.75,0,2.62c0,0.32,0.07,0.6,0.21,0.86l2.18,2.18c0.1-0.51-0.03-1.03-0.39-1.42&#xA;		c-0.25-0.27-0.54-0.56-0.86-0.88c-0.22-0.21-0.32-0.46-0.32-0.77l0-0.26c0.01-0.77,0.01-1.57,0-2.35&#xA;		c-0.04-2.11-1.04-3.65-2.96-4.56c-0.11-0.05-0.23-0.1-0.35-0.14C9.7,2.23,9.64,2.21,9.58,2.19L9.49,2.15l0.01-0.1&#xA;		c0.05-0.44-0.05-0.83-0.31-1.13C8.96,0.65,8.6,0.48,8.26,0.46C7.9,0.45,7.58,0.56,7.31,0.79C6.95,1.11,6.8,1.53,6.87,2.05l0.01,0.1&#xA;		L6.8,2.18C6.72,2.21,6.64,2.24,6.57,2.27c-0.15,0.06-0.3,0.11-0.43,0.18C5.75,2.64,5.41,2.86,5.11,3.11L5.69,3.69z M7.8,1.46&#xA;		c0.08-0.1,0.21-0.16,0.35-0.17c0.14-0.01,0.27,0.04,0.37,0.13c0.11,0.1,0.17,0.26,0.16,0.45l0,0.12H7.71L7.7,1.87&#xA;		C7.68,1.71,7.71,1.57,7.8,1.46z" />
	<path class="st1" d="M10.89,13.14c-0.31,0-0.63,0-0.94,0H6.43c-1.02,0-2.05,0-3.08,0c-0.29,0-0.55-0.14-0.7-0.37&#xA;		c-0.15-0.22-0.18-0.48-0.08-0.72c0.04-0.11,0.12-0.21,0.22-0.33c0.28-0.3,0.55-0.57,0.81-0.82c0.36-0.36,0.54-0.78,0.54-1.3l0-0.37&#xA;		c0-0.75-0.01-1.53,0-2.3c0-0.18,0.02-0.35,0.04-0.52L3.46,5.71C3.39,6,3.34,6.3,3.32,6.62C3.28,7.34,3.29,8.08,3.3,8.8&#xA;		c0,0.25,0.01,0.5,0.01,0.75c0,0.33-0.1,0.58-0.32,0.79c-0.26,0.25-0.53,0.53-0.8,0.81c-0.15,0.16-0.25,0.29-0.32,0.43&#xA;		c-0.26,0.5-0.25,1.09,0.05,1.58c0.29,0.49,0.8,0.79,1.37,0.8c0.59,0.01,1.19,0.01,1.79,0l1.03,0l0.03,0.15&#xA;		c0.01,0.03,0.01,0.06,0.02,0.08c0.11,0.59,0.42,1.04,0.93,1.37c0.27,0.18,0.57,0.26,0.87,0.32h0.46c0.03-0.01,0.06-0.02,0.08-0.03&#xA;		c0.83-0.15,1.37-0.61,1.65-1.41c0.03-0.09,0.05-0.18,0.07-0.27c0.01-0.04,0.02-0.09,0.03-0.13l0.02-0.09h0.93c0.17,0,0.34,0,0.51,0&#xA;		L10.89,13.14z M9.37,14.1c-0.05,0.5-0.58,0.95-1.14,0.96c-0.01,0-0.03,0-0.04,0c-0.58,0-1.12-0.42-1.2-0.96l-0.02-0.14h2.42&#xA;		L9.37,14.1z" />
</g>
<g>
	<path class="st1" d="M14.76,15.39c-0.13,0-0.26-0.05-0.35-0.15L2.36,3.19c-0.2-0.2-0.2-0.51,0-0.71s0.51-0.2,0.71,0l12.05,12.05&#xA;		c0.2,0.2,0.2,0.51,0,0.71C15.02,15.34,14.89,15.39,14.76,15.39z" />
</g>
</svg>