<?xml version="1.0" encoding="utf-8"?>
<!-- Generator: Adobe Illustrator 24.0.1, SVG Export Plug-In . SVG Version: 6.00 Build 0)  -->
<svg version="1.1" id="Capa_1" xmlns="http://www.w3.org/2000/svg" xmlns:xlink="http://www.w3.org/1999/xlink" x="0px" y="0px"
	 viewBox="0 0 20.51 20.51" style="enable-background:new 0 0 20.51 20.51;" xml:space="preserve">
<style type="text/css">
	.st0{fill:#364953;}
	.st1{fill:#F0123C;}
	.st2{fill:none;}
</style>
<g>
	<g>
		<g>
			<g>
				<path class="st0" d="M102.87,13.71c-0.17-0.17-0.45-0.17-0.62,0c-0.63,0.63-0.94,1.51-0.85,2.41c0.02,0.22,0.21,0.39,0.43,0.39
					c0.01,0,0.03,0,0.04,0c0.24-0.02,0.41-0.24,0.39-0.48c-0.06-0.64,0.15-1.26,0.6-1.71C103.04,14.16,103.04,13.88,102.87,13.71z"
					/>
			</g>
		</g>
		<g>
			<g>
				<path class="st0" d="M104.6,11.03c-2.75,0-4.98,2.23-4.98,4.98s2.23,4.98,4.98,4.98c2.75,0,4.98-2.23,4.98-4.98
					S107.34,11.03,104.6,11.03z M104.6,20.12c-2.26,0-4.11-1.84-4.11-4.11s1.84-4.11,4.11-4.11c2.26,0,4.11,1.84,4.11,4.11
					S106.86,20.12,104.6,20.12z"/>
			</g>
		</g>
		<g>
			<g>
				<path class="st0" d="M111.28,22.07l-3.16-3.16c-0.17-0.17-0.45-0.17-0.62,0c-0.17,0.17-0.17,0.45,0,0.62l3.16,3.16
					c0.09,0.09,0.2,0.13,0.31,0.13s0.22-0.04,0.31-0.13C111.45,22.52,111.45,22.24,111.28,22.07z"/>
			</g>
		</g>
	</g>
</g>
<g>
	<g>
		<g>
			<path class="st0" d="M-177.26,10.03c-0.13-0.03-0.25-0.06-0.38-0.09c-1.09-0.33-1.77-1.04-2.03-2.14
				c-0.01-0.05-0.02-0.1-0.04-0.16c-0.07,0-0.13,0-0.2,0c-1.28,0-2.55,0.01-3.83,0c-0.48,0-0.85-0.24-1.07-0.67
				c-0.21-0.43-0.16-0.85,0.11-1.24c0.07-0.1,0.16-0.18,0.25-0.26c1.27-1.14,1.9-2.57,1.92-4.27c0.01-0.84-0.01-1.69,0.01-2.53
				c0.04-2.29,1.59-4.39,3.77-5.11c0.17-0.06,0.23-0.13,0.22-0.31c-0.01-0.32-0.02-0.64,0.01-0.95c0.07-0.72,0.56-1.25,1.27-1.41
				c0.03-0.01,0.06-0.02,0.09-0.03c0.15,0,0.3,0,0.45,0c0.1,0.03,0.2,0.06,0.3,0.09c0.65,0.23,1.06,0.82,1.07,1.54
				c0.01,0.27,0.01,0.55,0,0.82c-0.01,0.13,0.04,0.19,0.17,0.24c1.87,0.67,3.08,1.95,3.64,3.86c0.15,0.51,0.19,1.03,0.19,1.56
				c0,0.92-0.02,1.85,0.03,2.77c0.09,1.44,0.71,2.65,1.76,3.64c0.08,0.08,0.17,0.15,0.25,0.23c0.35,0.35,0.46,0.87,0.27,1.31
				c-0.21,0.47-0.58,0.73-1.1,0.74c-1.29,0.01-2.59,0-3.88,0c-0.04,0-0.09,0-0.15,0c-0.02,0.09-0.04,0.18-0.07,0.27
				c-0.33,1.16-1.09,1.86-2.28,2.09c-0.03,0.01-0.07,0.02-0.1,0.04C-176.81,10.03-177.03,10.03-177.26,10.03z M-176.93,6.84
				C-176.93,6.83-176.93,6.83-176.93,6.84c0.8-0.01,1.6-0.01,2.4-0.01c1.41,0,2.81,0.01,4.22,0.01c0.06,0,0.13,0,0.19,0
				c0.18-0.01,0.31-0.09,0.37-0.27c0.06-0.17,0.01-0.32-0.12-0.44c-0.1-0.1-0.21-0.18-0.3-0.28c-1.3-1.28-1.95-2.83-1.95-4.65
				c0-0.77,0-1.54,0-2.31c0-0.25-0.01-0.5-0.05-0.75c-0.44-2.86-3.17-4.66-5.98-3.95c-2.04,0.52-3.54,2.42-3.57,4.52
				c-0.01,0.87,0.01,1.74-0.01,2.6c-0.02,1.47-0.48,2.79-1.42,3.94c-0.25,0.3-0.54,0.57-0.82,0.85c-0.13,0.13-0.2,0.27-0.14,0.45
				c0.07,0.19,0.21,0.27,0.41,0.27c0.06,0,0.11,0,0.17,0C-181.32,6.84-179.13,6.84-176.93,6.84z M-178.87,7.64
				c0.14,0.88,1.01,1.59,1.95,1.59c0.94,0,1.82-0.72,1.94-1.59C-176.27,7.64-177.56,7.64-178.87,7.64z M-177.71-6.74
				c0.53,0,1.05,0,1.57,0c0-0.32,0.03-0.65-0.01-0.98c-0.04-0.37-0.41-0.65-0.78-0.65c-0.39,0-0.75,0.3-0.78,0.67
				C-177.73-7.38-177.71-7.06-177.71-6.74z"/>
		</g>
	</g>
</g>
<circle class="st1" cx="-168.46" cy="6.72" r="5.78"/>
<text transform="matrix(1 0 0 1 -170.9623 9.3174)" class="st0" style="font-family:'HelveticaNeue-Bold'; font-size:8.4762px;">2</text>
<g>
	<g>
		<path class="st0" d="M-168.14-41.82c0.01-0.62,0.01-1.23,0-1.83c-0.01-0.47-0.32-0.85-0.78-0.95c-0.37-0.08-0.76-0.15-1.14-0.2
			l-0.17-0.03c-0.19-0.03-0.31-0.13-0.38-0.31c-0.13-0.34-0.28-0.69-0.43-1.04c-0.06-0.13-0.1-0.3,0.05-0.49
			c0.24-0.32,0.47-0.64,0.69-0.96c0.34-0.49,0.31-1-0.11-1.43c-0.39-0.4-0.79-0.8-1.18-1.19c-0.23-0.23-0.49-0.34-0.76-0.34
			c-0.22,0-0.45,0.08-0.67,0.23c-0.33,0.23-0.66,0.46-0.98,0.7c-0.09,0.06-0.17,0.09-0.26,0.09c-0.06,0-0.13-0.01-0.19-0.05
			c-0.38-0.17-0.76-0.32-1.13-0.46c-0.17-0.07-0.27-0.18-0.29-0.36c-0.06-0.4-0.13-0.79-0.2-1.19c-0.09-0.53-0.47-0.89-0.97-0.91
			c-0.31-0.01-0.62-0.02-0.94-0.02c-0.32,0-0.64,0.01-0.97,0.01c-0.46,0.01-0.84,0.33-0.94,0.78c-0.08,0.35-0.14,0.71-0.19,1.05
			l-0.05,0.28c-0.03,0.19-0.13,0.31-0.31,0.38c-0.31,0.12-0.64,0.26-1.05,0.44c-0.07,0.03-0.14,0.05-0.2,0.05
			c-0.12,0-0.21-0.06-0.27-0.1c-0.24-0.18-0.49-0.36-0.73-0.53l-0.18-0.13c-0.24-0.17-0.48-0.26-0.71-0.26
			c-0.28,0-0.54,0.13-0.8,0.38c-0.37,0.37-0.74,0.73-1.11,1.1c-0.46,0.46-0.5,0.97-0.13,1.5l0.25,0.35c0.15,0.21,0.3,0.42,0.45,0.64
			c0.07,0.11,0.09,0.28,0.05,0.4c-0.15,0.39-0.3,0.77-0.46,1.13c-0.06,0.13-0.19,0.24-0.32,0.27c-0.26,0.05-0.53,0.09-0.79,0.14
			l-0.41,0.07c-0.36,0.06-0.61,0.22-0.77,0.5c-0.05,0.08-0.08,0.17-0.12,0.26c-0.01,0.04-0.03,0.07-0.04,0.1v2.12
			c0.1,0.28,0.19,0.51,0.4,0.64c0.17,0.1,0.35,0.18,0.53,0.22c0.31,0.07,0.63,0.12,0.95,0.17l0.23,0.04c0.2,0.03,0.33,0.13,0.4,0.32
			c0.12,0.31,0.25,0.63,0.43,1.03c0.08,0.18,0.07,0.34-0.05,0.49c-0.22,0.3-0.44,0.6-0.65,0.9c-0.38,0.54-0.34,1.05,0.1,1.49
			c0.38,0.38,0.76,0.77,1.14,1.14c0.24,0.24,0.5,0.36,0.78,0.36c0.22,0,0.45-0.08,0.68-0.24c0.12-0.09,0.24-0.17,0.36-0.26
			c0.21-0.15,0.43-0.3,0.65-0.45c0.09-0.06,0.2-0.07,0.25-0.07c0.06,0,0.11,0.01,0.16,0.03c0.18,0.07,0.36,0.14,0.54,0.22
			c0.17,0.07,0.34,0.14,0.5,0.2c0.18,0.07,0.27,0.19,0.3,0.37c0.03,0.2,0.06,0.39,0.1,0.59c0.03,0.18,0.06,0.37,0.09,0.55
			c0.08,0.52,0.35,0.83,0.84,0.95c0.02,0.01,0.04,0.02,0.06,0.02h2.09c0.03-0.01,0.05-0.02,0.08-0.03c0.44-0.13,0.7-0.41,0.79-0.88
			c0.07-0.39,0.14-0.79,0.2-1.19c0.03-0.2,0.13-0.32,0.33-0.4c0.31-0.12,0.65-0.26,1.03-0.43c0.08-0.03,0.14-0.05,0.21-0.05
			c0.09,0,0.18,0.03,0.26,0.1c0.26,0.19,0.52,0.38,0.78,0.56l0.17,0.12c0.23,0.17,0.47,0.25,0.69,0.25c0.28,0,0.54-0.12,0.79-0.37
			c0.38-0.37,0.76-0.75,1.13-1.13c0.44-0.45,0.48-0.95,0.11-1.47l-0.24-0.33c-0.15-0.21-0.31-0.43-0.45-0.64
			c-0.08-0.11-0.1-0.29-0.05-0.41c0.15-0.38,0.3-0.76,0.47-1.13c0.05-0.12,0.2-0.23,0.33-0.26c0.25-0.05,0.51-0.09,0.76-0.13
			c0.15-0.02,0.3-0.05,0.46-0.08C-168.51-40.9-168.15-41.3-168.14-41.82z M-168.87-41.97c0,0.18-0.06,0.4-0.38,0.45
			c-0.24,0.04-0.48,0.08-0.72,0.12c-0.26,0.04-0.52,0.09-0.78,0.13c-0.24,0.04-0.37,0.15-0.46,0.41c-0.18,0.51-0.4,1.04-0.66,1.58
			c-0.12,0.25-0.11,0.42,0.04,0.62c0.16,0.21,0.31,0.42,0.46,0.64c0.14,0.2,0.28,0.39,0.42,0.58c0.17,0.23,0.15,0.43-0.05,0.62
			c-0.33,0.31-0.67,0.66-1.06,1.06c-0.04,0.04-0.15,0.15-0.31,0.15c-0.12,0-0.21-0.06-0.28-0.11c-0.21-0.15-0.42-0.3-0.63-0.45
			c-0.21-0.15-0.42-0.3-0.63-0.45c-0.11-0.08-0.21-0.12-0.31-0.12c-0.08,0-0.17,0.03-0.26,0.08c-0.51,0.3-1.07,0.53-1.67,0.69
			c-0.21,0.06-0.32,0.17-0.35,0.39c-0.04,0.23-0.07,0.45-0.11,0.67c-0.05,0.29-0.1,0.58-0.14,0.87c-0.04,0.27-0.19,0.4-0.45,0.4
			c-0.27-0.01-0.51-0.01-0.76-0.01c-0.24,0-0.49,0-0.74,0.01c0,0,0,0,0,0c-0.41,0-0.45-0.31-0.47-0.41
			c-0.04-0.29-0.09-0.58-0.14-0.86c-0.04-0.21-0.07-0.43-0.1-0.64c-0.03-0.23-0.15-0.35-0.39-0.44c-0.53-0.19-1.05-0.4-1.55-0.63
			c-0.12-0.05-0.22-0.08-0.31-0.08c-0.11,0-0.21,0.04-0.32,0.12c-0.21,0.16-0.43,0.31-0.65,0.47c-0.2,0.14-0.41,0.29-0.6,0.43
			c-0.06,0.05-0.16,0.1-0.27,0.1c-0.16,0-0.27-0.12-0.31-0.15c-0.35-0.36-0.71-0.72-1.07-1.07c-0.18-0.18-0.2-0.37-0.05-0.57
			c0.14-0.2,0.29-0.4,0.43-0.59c0.16-0.22,0.31-0.44,0.48-0.66c0.14-0.19,0.15-0.35,0.03-0.6c-0.23-0.48-0.45-1-0.67-1.59
			c-0.1-0.26-0.22-0.36-0.44-0.4c-0.28-0.04-0.56-0.09-0.84-0.14c-0.24-0.04-0.47-0.08-0.71-0.12c-0.26-0.04-0.38-0.19-0.38-0.45
			c0.01-0.49,0.01-1,0-1.52c0-0.25,0.12-0.4,0.37-0.44c0.2-0.03,0.41-0.07,0.61-0.1c0.29-0.05,0.58-0.1,0.88-0.14
			c0.26-0.04,0.4-0.15,0.49-0.43c0.17-0.5,0.38-1.01,0.64-1.57c0.12-0.25,0.11-0.42-0.04-0.62c-0.17-0.23-0.33-0.46-0.49-0.69
			c-0.13-0.19-0.27-0.38-0.41-0.57c-0.15-0.21-0.14-0.41,0.05-0.59c0.39-0.38,0.75-0.73,1.07-1.07c0.1-0.1,0.2-0.15,0.31-0.15
			c0.12,0,0.22,0.06,0.28,0.11c0.19,0.14,0.38,0.27,0.57,0.41c0.22,0.16,0.45,0.32,0.67,0.48c0.11,0.08,0.2,0.12,0.31,0.12
			c0.09,0,0.19-0.03,0.31-0.08c0.53-0.25,1.06-0.47,1.56-0.66c0.28-0.1,0.39-0.23,0.43-0.49c0.04-0.28,0.09-0.56,0.14-0.84
			c0.04-0.22,0.07-0.43,0.11-0.65c0.04-0.26,0.19-0.39,0.44-0.39c0.26,0.01,0.5,0.01,0.74,0.01c0.26,0,0.53,0,0.79-0.01c0,0,0,0,0,0
			c0.17,0,0.38,0.06,0.42,0.36c0.04,0.27,0.09,0.55,0.14,0.82c0.04,0.25,0.09,0.51,0.13,0.76c0.03,0.21,0.14,0.32,0.34,0.37
			c0.6,0.16,1.19,0.4,1.74,0.71c0.09,0.05,0.17,0.07,0.24,0.07c0.09,0,0.19-0.04,0.29-0.11c0.24-0.17,0.47-0.34,0.71-0.51
			c0.19-0.14,0.38-0.27,0.57-0.41c0.06-0.04,0.14-0.1,0.26-0.1c0.1,0,0.2,0.05,0.28,0.13c0.23,0.24,0.47,0.47,0.7,0.7l0.42,0.42
			c0.03,0.03,0.06,0.08,0.09,0.12l0.03,0.04l0.08,0.1l-0.07,0.11l-0.04,0.06c-0.03,0.04-0.05,0.09-0.08,0.12l-0.23,0.33
			c-0.22,0.31-0.43,0.62-0.66,0.92c-0.14,0.19-0.15,0.36-0.03,0.62c0.26,0.54,0.48,1.07,0.65,1.56c0.09,0.27,0.22,0.38,0.46,0.42
			c0.23,0.03,0.46,0.07,0.69,0.11c0.26,0.04,0.53,0.09,0.79,0.13c0.28,0.04,0.42,0.2,0.41,0.49
			C-168.88-43.02-168.88-42.56-168.87-41.97z"/>
	</g>
	<g>
		<path class="st0" d="M-182.08-42.72c0,2.27,1.85,4.12,4.12,4.12c2.27,0,4.12-1.85,4.13-4.12c0.01-1.09-0.42-2.13-1.2-2.91
			c-0.78-0.79-1.81-1.22-2.91-1.22v-0.09c0,0-0.01,0-0.01,0l-0.01,0.1C-180.24-46.84-182.09-44.98-182.08-42.72z M-174.57-42.75
			c0.02,0.88-0.32,1.72-0.94,2.36c-0.64,0.66-1.51,1.04-2.43,1.05l-0.04,0c-1.81,0-3.32-1.51-3.36-3.36
			c-0.02-0.88,0.32-1.72,0.94-2.36c0.64-0.67,1.51-1.04,2.43-1.05c0,0,0,0,0,0C-176.12-46.11-174.61-44.6-174.57-42.75z"/>
	</g>
</g>
<g>
	<rect x="-157.17" y="-10.9" class="st0" width="0.77" height="24.66"/>
</g>
<g>
	<rect x="-115.94" y="-10.9" class="st0" width="0.77" height="24.66"/>
</g>
<g>
	<g>
		<g>
			<g>
				<path class="st0" d="M2.09,7.68l7.19,7.19c0.56,0.56,1.47,0.56,2.03,0l7.19-7.19c0.46-0.54,0.46-1.33,0-1.87
					c-0.52-0.6-1.42-0.67-2.03-0.16l-6.17,6.17L4.12,5.65c-0.56-0.56-1.47-0.56-2.03,0C1.53,6.21,1.53,7.12,2.09,7.68z"/>
			</g>
		</g>
	</g>
</g>
<rect x="-188.33" y="-53.53" class="st2" width="21" height="21"/>
<g>
	<g>
		<g>
			<path class="st0" d="M-152.16-68.43c-0.13-0.03-0.25-0.06-0.38-0.09c-1.09-0.33-1.77-1.04-2.03-2.14
				c-0.01-0.05-0.02-0.1-0.04-0.16c-0.07,0-0.13,0-0.2,0c-1.28,0-2.55,0.01-3.83,0c-0.48,0-0.85-0.24-1.07-0.67
				c-0.21-0.43-0.16-0.85,0.11-1.24c0.07-0.1,0.16-0.18,0.25-0.26c1.27-1.14,1.9-2.57,1.92-4.27c0.01-0.84-0.01-1.69,0.01-2.53
				c0.04-2.29,1.59-4.39,3.77-5.11c0.17-0.06,0.23-0.13,0.22-0.31c-0.01-0.32-0.02-0.64,0.01-0.95c0.07-0.72,0.56-1.25,1.27-1.41
				c0.03-0.01,0.06-0.02,0.09-0.03c0.15,0,0.3,0,0.45,0c0.1,0.03,0.2,0.06,0.3,0.09c0.65,0.23,1.06,0.82,1.07,1.54
				c0.01,0.27,0.01,0.55,0,0.82c0,0.13,0.04,0.19,0.17,0.24c1.87,0.67,3.08,1.95,3.64,3.86c0.15,0.51,0.19,1.03,0.19,1.56
				c0,0.92-0.02,1.85,0.03,2.77c0.09,1.44,0.71,2.65,1.76,3.64c0.08,0.08,0.17,0.15,0.25,0.23c0.35,0.35,0.46,0.87,0.27,1.31
				c-0.21,0.47-0.58,0.73-1.1,0.74c-1.29,0.01-2.59,0-3.88,0c-0.04,0-0.09,0-0.15,0c-0.02,0.09-0.04,0.18-0.07,0.27
				c-0.33,1.16-1.09,1.86-2.28,2.09c-0.03,0.01-0.07,0.02-0.1,0.04C-151.71-68.43-151.94-68.43-152.16-68.43z M-151.83-71.63
				C-151.83-71.63-151.83-71.64-151.83-71.63c0.8-0.01,1.6-0.01,2.4-0.01c1.41,0,2.81,0.01,4.22,0.01c0.06,0,0.13,0,0.19,0
				c0.18-0.01,0.31-0.09,0.37-0.27c0.06-0.17,0.01-0.32-0.12-0.44c-0.1-0.1-0.21-0.18-0.3-0.28c-1.3-1.28-1.95-2.83-1.95-4.65
				c0-0.77,0-1.54,0-2.31c0-0.25-0.01-0.5-0.05-0.75c-0.44-2.86-3.17-4.66-5.98-3.95c-2.04,0.52-3.54,2.42-3.57,4.52
				c-0.01,0.87,0.01,1.74-0.01,2.6c-0.02,1.47-0.48,2.79-1.42,3.94c-0.25,0.3-0.54,0.57-0.82,0.85c-0.13,0.13-0.2,0.27-0.14,0.45
				c0.07,0.19,0.21,0.27,0.41,0.27c0.06,0,0.11,0,0.17,0C-156.23-71.63-154.03-71.63-151.83-71.63z M-153.77-70.82
				c0.14,0.88,1.01,1.59,1.95,1.59c0.94,0,1.82-0.72,1.94-1.59C-151.18-70.82-152.47-70.82-153.77-70.82z M-152.61-85.21
				c0.53,0,1.05,0,1.57,0c0-0.32,0.03-0.65-0.01-0.98c-0.04-0.37-0.41-0.65-0.78-0.65c-0.39,0-0.75,0.3-0.78,0.67
				C-152.63-85.84-152.61-85.53-152.61-85.21z"/>
		</g>
	</g>
</g>
<rect class="st2" width="20.51" height="20.51"/>
</svg>
