<?xml version="1.0" encoding="utf-8"?>
<!-- Generator: Adobe Illustrator 24.0.1, SVG Export Plug-In . SVG Version: 6.00 Build 0)  -->
<svg version="1.1" id="Capa_1" xmlns="http://www.w3.org/2000/svg" xmlns:xlink="http://www.w3.org/1999/xlink" x="0px" y="0px"
	 viewBox="0 0 114 114" style="enable-background:new 0 0 114 114;" xml:space="preserve">
<style type="text/css">
	.st0{fill:none;}
	.st1{opacity:0.3;}
	.st2{fill:#F1C413;}
	.st3{fill:#FFFFFF;}
</style>
<rect y="0" class="st0" width="114" height="114"/>
<g>
	<g>
		<path class="st2" d="M57.9,94.22L57.9,94.22c-20.98,0-37.99-17.01-37.99-37.99l0,0c0-20.98,17.01-37.99,37.99-37.99l0,0
			c20.98,0,37.99,17.01,37.99,37.99l0,0C95.89,77.21,78.88,94.22,57.9,94.22z"/>
	</g>
</g>
<g>
	<g>
		<path class="st3" d="M33.32,67.61c0.23-2.09,1.34-3.81,2.36-5.57c0.87-1.49,1.72-2.98,2.58-4.47c3.61-6.26,7.23-12.51,10.84-18.78
			c1.32-2.28,3.21-3.72,5.82-4.23c2.96-0.58,6.45,0.78,8.04,3.34c1.7,2.75,3.28,5.57,4.9,8.36c3.41,5.89,6.81,11.79,10.22,17.69
			c1.1,1.9,1.51,3.91,1.04,6.09c-0.82,3.79-4.16,6.45-8.16,6.47c-4.34,0.01-8.69,0-13.03,0c-5.41,0-10.81,0-16.22,0
			c-2.62,0-4.82-0.95-6.5-2.98c-1-1.2-1.59-2.59-1.81-4.14c-0.02-0.12-0.05-0.23-0.08-0.34C33.32,68.57,33.32,68.09,33.32,67.61z
			 M56.28,72.8c4.84,0,9.67,0.02,14.51-0.02c0.73-0.01,1.51-0.13,2.17-0.42c2.48-1.09,3.36-4,2-6.39c-1.5-2.63-3.02-5.24-4.53-7.85
			c-3.36-5.82-6.72-11.63-10.07-17.45c-0.57-0.99-1.31-1.77-2.4-2.2c-1.9-0.74-4.33-0.14-5.63,2.14
			c-3.83,6.7-7.71,13.37-11.57,20.06c-1.09,1.89-2.22,3.76-3.25,5.69c-0.79,1.49-0.64,3.02,0.27,4.43c0.93,1.43,2.31,2.02,3.98,2.02
			C46.61,72.8,51.44,72.8,56.28,72.8z"/>
	</g>
	<g>
		<path class="st3" d="M58.66,50.3c-0.18,3.08-0.36,6.22-0.54,9.35c-0.03,0.43-0.01,0.87-0.08,1.3c-0.14,0.84-0.86,1.43-1.71,1.43
			c-0.87,0.01-1.62-0.57-1.72-1.45c-0.14-1.22-0.18-2.44-0.25-3.67c-0.15-2.34-0.27-4.69-0.44-7.03c-0.12-1.72,1.12-3.06,2.7-2.87
			c1.09,0.13,1.95,1.02,2.04,2.12C58.68,49.74,58.66,49.99,58.66,50.3z"/>
	</g>
	<g>
		<path class="st3" d="M53.98,66.34c0.01-1.28,1.08-2.33,2.36-2.33c1.3,0,2.32,1.06,2.3,2.41c-0.01,1.27-1.06,2.3-2.32,2.3
			C55.02,68.72,53.96,67.64,53.98,66.34z"/>
	</g>
</g>
</svg>
