<?xml version="1.0" encoding="utf-8"?>
<!-- Generator: Adobe Illustrator 24.0.1, SVG Export Plug-In . SVG Version: 6.00 Build 0)  -->
<svg version="1.1" id="Capa_1" xmlns="http://www.w3.org/2000/svg" xmlns:xlink="http://www.w3.org/1999/xlink" x="0px" y="0px"
	 viewBox="0 0 114 114" style="enable-background:new 0 0 114 114;" xml:space="preserve">
<style type="text/css">
	.st0{fill:none;}
	.st1{opacity:0.3;}
	.st2{fill:#E52E18;}
	.st3{fill:#fff;}
</style>
<rect y="0" class="st0" width="114" height="114"/>
<g>
	<g>
		<path class="st2" d="M59.03,93.28L59.03,93.28c-20.98,0-37.99-17.01-37.99-37.99l0,0c0-20.98,17.01-37.99,37.99-37.99l0,0
			c20.98,0,37.99,17.01,37.99,37.99l0,0C97.02,76.27,80.01,93.28,59.03,93.28z"/>
	</g>
	<g>
		<polygon class="st3" points="64.75,56.87 77.59,44.03 70.29,36.73 57.45,49.57 44.61,36.73 37.31,44.03 50.15,56.87 37.31,69.7 
			44.61,77 57.45,64.17 70.29,77 77.59,69.7 		"/>
	</g>
</g>
</svg>
