<?xml version="1.0" encoding="utf-8"?>
<!-- Generator: Adobe Illustrator 24.0.1, SVG Export Plug-In . SVG Version: 6.00 Build 0)  -->
<svg version="1.1" id="Capa_1" xmlns="http://www.w3.org/2000/svg" xmlns:xlink="http://www.w3.org/1999/xlink" x="0px" y="0px"
	 viewBox="0 0 60 60" style="enable-background:new 0 0 60 60;" xml:space="preserve">
<style type="text/css">
	.st0{fill:#fff;}
</style>
<g>
	<g>
		<path class="st0" d="M49.26,16.62c-0.21,0.22-0.35,0.35-0.49,0.49c-5.1,5.47-10.2,10.95-15.29,16.43
			c-0.77,0.83-1.66,1.25-2.72,0.86c-0.45-0.16-0.88-0.49-1.22-0.85c-1.75-1.84-3.47-3.71-5.2-5.57c-0.14-0.15-0.24-0.32-0.6-0.6
			c-0.14,0.24-0.25,0.52-0.43,0.71c-4.5,4.85-9.02,9.69-13.53,14.55c-0.74,0.8-1.58,1.19-2.63,0.89c-1.79-0.5-2.49-2.81-1.31-4.35
			c0.12-0.16,0.26-0.31,0.4-0.46c5.21-5.6,10.42-11.19,15.62-16.79c0.79-0.85,1.68-1.28,2.76-0.88c0.45,0.16,0.87,0.5,1.22,0.86
			c1.71,1.8,3.4,3.63,5.09,5.45c0.17,0.19,0.32,0.4,0.44,0.55c4.75-5.1,9.43-10.13,14.11-15.16c-0.08-0.01-0.22-0.03-0.37-0.03
			c-1.66,0-3.31,0-4.97,0c-1.58,0-2.73-1.14-2.74-2.71c-0.01-1.57,1.14-2.74,2.71-2.74c3.82,0,7.65,0,11.47,0
			c1.69,0,2.73,1.13,2.73,2.95c0,4.16,0.01,8.33,0,12.49c0,1.38-0.89,2.47-2.14,2.71c-1.16,0.22-2.37-0.53-2.77-1.76
			c-0.11-0.35-0.16-0.74-0.16-1.11c-0.02-1.76-0.01-3.52-0.01-5.28C49.26,17.09,49.26,16.91,49.26,16.62z"/>
		<path class="st0" d="M29.77,54.54c-7.28,0-14.56,0-21.84,0c-1.55,0-2.7-1.2-2.67-2.78c0.02-1.39,1.06-2.57,2.36-2.66
			c0.14-0.01,0.28-0.01,0.42-0.01c14.5,0,29.01,0,43.51,0c1.56,0,2.7,1.05,2.77,2.56c0.08,1.54-1.02,2.84-2.46,2.89
			c-0.77,0.02-1.55,0.01-2.33,0.01C42.95,54.54,36.36,54.54,29.77,54.54z"/>
	</g>
</g>
</svg>
