<?xml version="1.0" encoding="utf-8"?>
<!-- Generator: Adobe Illustrator 24.0.1, SVG Export Plug-In . SVG Version: 6.00 Build 0)  -->
<svg version="1.1" id="Capa_1" xmlns="http://www.w3.org/2000/svg" xmlns:xlink="http://www.w3.org/1999/xlink" x="0px" y="0px" viewBox="0 0 120 120" style="enable-background:new 0 0 120 120;" xml:space="preserve">
<style type="text/css">
	.st0{fill:#9D86EF;}
</style>
<g>
	<path class="st0" d="M98.37,15.21c-4.98-4.97-13.04-4.97-18.02,0l-4.51,4.53L27.83,67.73l-0.1,0.1c-0.02,0.02-0.02,0.05-0.05,0.05&#xA;		c-0.05,0.08-0.13,0.15-0.18,0.23c0,0.03-0.03,0.03-0.03,0.05c-0.05,0.08-0.08,0.13-0.13,0.2c-0.02,0.03-0.02,0.05-0.05,0.08&#xA;		c-0.03,0.08-0.05,0.13-0.08,0.2c0,0.02-0.02,0.02-0.02,0.05l-10.65,32.03c-0.31,0.91-0.07,1.92,0.61,2.6&#xA;		c0.48,0.48,1.13,0.74,1.81,0.74c0.28,0,0.55-0.05,0.82-0.13l32.01-10.68c0.02,0,0.02,0,0.05-0.02c0.08-0.02,0.16-0.06,0.23-0.1&#xA;		c0.02,0,0.04-0.01,0.05-0.02c0.08-0.05,0.18-0.1,0.25-0.15c0.08-0.05,0.15-0.13,0.23-0.18c0.03-0.03,0.05-0.03,0.05-0.05&#xA;		c0.03-0.03,0.08-0.05,0.1-0.1l52.52-52.52c4.97-4.98,4.97-13.04,0-18.02L98.37,15.21z M50.97,87.28L33.23,69.54l44.39-44.39&#xA;		l17.74,17.74L50.97,87.28z M30.73,74.26l15.49,15.49L22.96,97.5L30.73,74.26z M101.68,36.54l-2.7,2.73L81.24,21.53l2.73-2.73&#xA;		c2.98-2.98,7.82-2.98,10.8,0l6.93,6.93C104.67,28.73,104.66,33.56,101.68,36.54z" />
</g>
</svg>