<?xml version="1.0" encoding="utf-8"?>
<!-- Generator: Adobe Illustrator 24.0.1, SVG Export Plug-In . SVG Version: 6.00 Build 0)  -->
<svg version="1.1" id="Capa_1" xmlns="http://www.w3.org/2000/svg" xmlns:xlink="http://www.w3.org/1999/xlink" x="0px" y="0px" viewBox="0 0 25 25" style="enable-background:new 0 0 25 25;" xml:space="preserve">
<style type="text/css">
	.st0{fill:none;}
	.st1{fill:#9D86EF;}
</style>
<rect class="st0" width="25" height="25" />
<g>
	<path class="st1" d="M12.45,23.52c-2.1,0-4.2,0.01-6.29,0c-0.49,0-1,0.01-1.47-0.1c-1.68-0.4-2.77-1.97-2.72-3.69&#xA;		c0.05-1.93,0.06-3.87,0-5.8c-0.07-2.25,1.85-4.08,4.1-3.8c0.47,0.06,0.78,0.41,0.76,0.84c-0.02,0.43-0.35,0.73-0.81,0.76&#xA;		c-0.28,0.02-0.55,0.03-0.82,0.08c-0.9,0.17-1.41,0.72-1.53,1.63c-0.03,0.25-0.05,0.5-0.05,0.75c0,1.76-0.01,3.52,0,5.28&#xA;		c0,0.3,0.02,0.6,0.08,0.9c0.19,0.89,0.73,1.38,1.63,1.5c0.26,0.03,0.52,0.05,0.78,0.05c4.25,0,8.49,0,12.74,0&#xA;		c0.31,0,0.62-0.02,0.92-0.08c0.88-0.18,1.35-0.68,1.51-1.57c0.04-0.21,0.06-0.42,0.06-0.62c0-1.88,0-3.75,0-5.63&#xA;		c0-0.22-0.02-0.45-0.07-0.67c-0.19-0.95-0.78-1.48-1.76-1.57c-0.19-0.02-0.38-0.03-0.58-0.04c-0.46-0.03-0.79-0.34-0.81-0.76&#xA;		c-0.02-0.43,0.28-0.77,0.74-0.84c1.87-0.27,3.71,1.04,4.04,2.9c0.07,0.37,0.05,0.77,0.05,1.15c0.01,1.89,0,3.79,0.03,5.68&#xA;		c0.03,2.02-1.61,3.7-3.64,3.7c-2.29,0-4.58,0-6.87,0C12.45,23.53,12.45,23.53,12.45,23.52z" />
	<path class="st1" d="M13.27,15.41c0.62-0.62,1.19-1.21,1.78-1.76c0.15-0.14,0.37-0.24,0.57-0.28c0.34-0.06,0.61,0.11,0.76,0.41&#xA;		c0.16,0.31,0.13,0.62-0.1,0.89c-0.13,0.16-0.29,0.3-0.44,0.45c-0.9,0.89-1.79,1.79-2.69,2.68c-0.47,0.47-0.89,0.47-1.37,0&#xA;		c-1.01-1.01-2.01-2.02-3.03-3.02c-0.26-0.26-0.37-0.56-0.24-0.91c0.2-0.56,0.9-0.7,1.34-0.26c0.53,0.52,1.06,1.05,1.59,1.58&#xA;		c0.06,0.06,0.12,0.11,0.22,0.21c0-0.14,0-0.24,0-0.33c0-3.83,0-7.65,0-11.48c0-0.13,0-0.27,0.04-0.4c0.11-0.38,0.46-0.61,0.84-0.57&#xA;		c0.39,0.04,0.7,0.36,0.73,0.75c0.01,0.09,0,0.18,0,0.28c0,3.81,0,7.62,0,11.43C13.27,15.16,13.27,15.25,13.27,15.41z" />
</g>
</svg>