<?xml version="1.0" encoding="utf-8"?>
<!-- Generator: Adobe Illustrator 24.0.1, SVG Export Plug-In . SVG Version: 6.00 Build 0)  -->
<svg version="1.1" id="Capa_1" xmlns="http://www.w3.org/2000/svg" xmlns:xlink="http://www.w3.org/1999/xlink" x="0px" y="0px" viewBox="0 0 131.5 77.1" style="enable-background:new 0 0 131.5 77.1;" xml:space="preserve">
<style type="text/css">
	.white{fill:#FFFFFF;}
	.st0{fill:#FB836F;}
	.black{fill:#020203;}
	.st3{font-family:'HelveticaNeue-Bold',arial;}
	.st4{font-size:12.715px;}
</style>
<path class="white" d="M115.4,69.8H16.5c-6.6,0-11.9-5.3-11.9-11.9V20.2c0-6.6,5.3-11.9,11.9-11.9h98.9c6.6,0,11.9,5.3,11.9,11.9v37.7&#xA;	C127.3,64.5,122,69.8,115.4,69.8z" />
<rect x="9.4" y="31.9" class="st0" width="50.2" height="12.6" />
<circle class="st0" cx="111.4" cy="25.8" r="13.1" />
<rect x="9.4" y="47.4" class="black" width="22.8" height="5.7" />
<g>
	<g>
		<path class="white" d="M108.9,20.6c0.1-0.4,0.3-0.5,0.6-0.5c0.3,0,0.5,0.2,0.5,0.5c1.1,0,2.2,0,3.3,0c0.1-0.3,0.3-0.5,0.5-0.5&#xA;			c0.3,0,0.5,0.2,0.6,0.5c0.2,0,0.5,0.1,0.7,0.1c1.2,0.3,2,1.4,2,2.6c0,1.7,0,3.4,0,5.1c0,1.5-1.2,2.6-2.7,2.7c-1.9,0-3.8,0-5.6,0&#xA;			c-1.5,0-2.6-1.2-2.7-2.7c0-1.7,0-3.4,0-5C106.1,21.8,107.3,20.7,108.9,20.6C108.8,20.6,108.8,20.6,108.9,20.6z M107.2,24.4&#xA;			c0,0.1,0,0.1,0,0.1c0,1.2,0,2.4,0,3.7c0,1,0.7,1.7,1.7,1.7c1.8,0,3.6,0,5.4,0c0.1,0,0.2,0,0.4,0c0.8-0.2,1.3-0.8,1.3-1.7&#xA;			c0-1.2,0-2.4,0-3.7c0,0,0-0.1,0-0.1C113.1,24.4,110.2,24.4,107.2,24.4z M113.3,21.7c-1.1,0-2.2,0-3.3,0c0,0.2,0,0.4,0,0.6&#xA;			c0,0.3-0.2,0.5-0.5,0.5c-0.3,0-0.5-0.2-0.6-0.4c0-0.2,0-0.3,0-0.5c0,0,0-0.1,0-0.1c-1,0-1.7,0.9-1.6,1.6c2.9,0,5.8,0,8.7,0&#xA;			c0-1-0.9-1.7-1.6-1.6c0,0.2,0,0.3,0,0.5c0,0.3-0.2,0.6-0.6,0.6c-0.3,0-0.5-0.2-0.5-0.6C113.3,22.1,113.3,21.9,113.3,21.7z" />
	</g>
	<g>
		<path class="white" d="M113.3,26.1c0-0.3,0.2-0.5,0.5-0.6c0.3,0,0.6,0.2,0.6,0.5c0,0.3-0.2,0.6-0.5,0.6&#xA;			C113.5,26.6,113.3,26.4,113.3,26.1z" />
	</g>
	<g>
		<path class="white" d="M109.4,28.8c-0.3,0-0.6-0.2-0.6-0.5c0-0.3,0.3-0.6,0.6-0.6c0.3,0,0.5,0.2,0.5,0.5&#xA;			C110,28.6,109.7,28.8,109.4,28.8z" />
	</g>
	<g>
		<path class="white" d="M113.8,28.8c-0.3,0-0.5-0.2-0.5-0.5c0-0.3,0.2-0.5,0.5-0.5c0.3,0,0.6,0.3,0.5,0.6&#xA;			C114.4,28.6,114.1,28.8,113.8,28.8z" />
	</g>
	<g>
		<path class="white" d="M110,26.1c0,0.3-0.3,0.5-0.5,0.5c-0.3,0-0.5-0.3-0.5-0.5c0-0.3,0.2-0.5,0.6-0.5C109.7,25.5,110,25.8,110,26.1&#xA;			z" />
	</g>
	<g>
		<path class="white" d="M112.2,26.1c0,0.3-0.2,0.5-0.5,0.5c-0.3,0-0.5-0.2-0.5-0.5c0-0.3,0.2-0.5,0.5-0.5&#xA;			C111.9,25.5,112.2,25.8,112.2,26.1z" />
	</g>
	<g>
		<path class="white" d="M112.2,28.3c0,0.3-0.2,0.6-0.5,0.6c-0.3,0-0.5-0.2-0.6-0.5c0-0.3,0.2-0.6,0.6-0.6&#xA;			C111.9,27.7,112.2,28,112.2,28.3z" />
	</g>
</g>
<g>
	<rect x="92.2" y="60.1" class="black" width="22.8" height="5.7" />
</g>
<g>
	<g>
		<path d="M118.3,66.1c-0.1,0-0.2-0.1-0.3-0.2c-0.1-0.2-0.1-0.4,0-0.6c0,0,0.1-0.1,0.1-0.1c0.8-0.8,1.6-1.6,2.4-2.4c0,0,0,0,0.1-0.1&#xA;			c0,0,0,0-0.1,0c-0.8-0.8-1.6-1.6-2.4-2.4c-0.1-0.1-0.2-0.3-0.1-0.5c0.1-0.3,0.5-0.4,0.7-0.2c0,0,0.1,0,0.1,0.1&#xA;			c0.9,0.9,1.8,1.8,2.8,2.8c0.2,0.2,0.2,0.4,0.1,0.6c0,0-0.1,0.1-0.1,0.1c-0.9,0.9-1.8,1.8-2.7,2.7c-0.1,0.1-0.2,0.2-0.3,0.2&#xA;			C118.4,66.1,118.4,66.1,118.3,66.1z" />
		<path d="M118.5,66.4l-0.2,0c-0.2-0.1-0.4-0.1-0.5-0.3c-0.2-0.3-0.2-0.7,0-1c0,0,0.1-0.1,0.1-0.1l2.2-2.2l-2.2-2.2&#xA;			c-0.2-0.2-0.3-0.5-0.2-0.8c0.1-0.2,0.3-0.4,0.5-0.5c0.2-0.1,0.5,0,0.7,0.1c0,0,0.1,0.1,0.1,0.1l2.8,2.8c0.3,0.3,0.3,0.7,0.1,1&#xA;			c0,0.1-0.1,0.1-0.2,0.2l-2.7,2.7C118.9,66.2,118.8,66.4,118.5,66.4L118.5,66.4z M118.4,65.8L118.4,65.8c0.1,0,0.1-0.1,0.2-0.1&#xA;			l2.7-2.7c0,0,0,0,0.1-0.1c0,0,0-0.1,0-0.2l-2.8-2.8c-0.1-0.1-0.1-0.1-0.1-0.1c0,0-0.1,0-0.1,0.1c0,0.1,0,0.1,0.1,0.2l2.4,2.4&#xA;			l0.3,0.2l-0.2,0.3c0,0.1-0.1,0.1-0.1,0.1l-2.4,2.4c0,0,0,0-0.1,0.1C118.3,65.6,118.3,65.7,118.4,65.8&#xA;			C118.3,65.7,118.3,65.7,118.4,65.8z" />
	</g>
</g>
<text transform="matrix(1 0 0 1 62.8068 42.8619)" class="st0 st3 st4">K</text>
</svg>