<?xml version="1.0" encoding="utf-8"?>
<!-- Generator: Adobe Illustrator 24.0.1, SVG Export Plug-In . SVG Version: 6.00 Build 0)  -->
<svg version="1.1" id="Capa_1" xmlns="http://www.w3.org/2000/svg" xmlns:xlink="http://www.w3.org/1999/xlink" x="0px" y="0px" viewBox="0 0 22 22" style="enable-background:new 0 0 22 22;" xml:space="preserve">
<style type="text/css">
	.st0{fill:#9D86EF;}
</style>
<g>
	<path class="st0" d="M10.76,54.83c-2.84,0-5.15,2.31-5.15,5.15v0.84H5.51c-1.19,0-2.16,0.97-2.16,2.16v7.49&#xA;		c0,1.19,0.97,2.16,2.16,2.16H16c1.19,0,2.16-0.97,2.16-2.16v-7.49c0-1.19-0.97-2.16-2.16-2.16h-0.09v-0.84&#xA;		C15.91,57.14,13.6,54.83,10.76,54.83z M6.92,59.98c0-2.11,1.72-3.84,3.84-3.84c2.12,0,3.84,1.72,3.84,3.84v0.84H6.92V59.98z&#xA;		 M16,62.14c0.46,0,0.84,0.38,0.84,0.84v7.49c0,0.46-0.38,0.84-0.84,0.84H5.51c-0.46,0-0.84-0.38-0.84-0.84v-7.49&#xA;		c0-0.46,0.38-0.84,0.84-0.84H16z" />
	<path class="st0" d="M10.76,69.62c0.36,0,0.66-0.29,0.66-0.66v-1.33l0.06-0.02c0.86-0.31,1.44-1.12,1.44-2.02&#xA;		c0-1.19-0.97-2.16-2.16-2.16S8.6,64.41,8.6,65.6c0,0.9,0.58,1.72,1.44,2.02l0.06,0.02v1.33C10.1,69.33,10.39,69.62,10.76,69.62z&#xA;		 M9.92,65.6c0-0.46,0.38-0.84,0.84-0.84s0.84,0.38,0.84,0.84c0,0.46-0.38,0.84-0.84,0.84S9.92,66.06,9.92,65.6z" />
</g>
<g>
	<path class="st0" d="M11.11,2.61c-2.84,0-5.15,2.31-5.15,5.15V8.6H5.86c-1.19,0-2.16,0.97-2.16,2.16v7.49&#xA;		c0,1.19,0.97,2.16,2.16,2.16h10.49c1.19,0,2.16-0.97,2.16-2.16v-7.49c0-1.19-0.97-2.16-2.16-2.16h-0.09V7.76&#xA;		C16.26,4.92,13.95,2.61,11.11,2.61z M7.27,7.76c0-2.11,1.72-3.84,3.84-3.84c2.12,0,3.84,1.72,3.84,3.84V8.6H7.27V7.76z M16.35,9.91&#xA;		c0.46,0,0.84,0.38,0.84,0.84v7.49c0,0.46-0.38,0.84-0.84,0.84H5.86c-0.46,0-0.84-0.38-0.84-0.84v-7.49c0-0.46,0.38-0.84,0.84-0.84&#xA;		H16.35z" />
	<path class="st0" d="M11.11,17.4c0.36,0,0.66-0.29,0.66-0.66v-1.33l0.06-0.02c0.86-0.31,1.44-1.12,1.44-2.02&#xA;		c0-1.19-0.97-2.16-2.16-2.16s-2.16,0.97-2.16,2.16c0,0.9,0.58,1.72,1.44,2.02l0.06,0.02v1.33C10.45,17.11,10.74,17.4,11.11,17.4z&#xA;		 M10.27,13.37c0-0.46,0.38-0.84,0.84-0.84c0.46,0,0.84,0.38,0.84,0.84c0,0.46-0.38,0.84-0.84,0.84&#xA;		C10.64,14.21,10.27,13.84,10.27,13.37z" />
</g>
</svg>