<?xml version="1.0" encoding="utf-8"?>
<!-- Generator: Adobe Illustrator 24.0.1, SVG Export Plug-In . SVG Version: 6.00 Build 0)  -->
<svg version="1.1" id="Capa_1" xmlns="http://www.w3.org/2000/svg" xmlns:xlink="http://www.w3.org/1999/xlink" x="0px" y="0px" viewBox="0 0 120 120" style="enable-background:new 0 0 120 120;" xml:space="preserve">
<style type="text/css">
	.st0{fill:#EF4874;}
</style>
<g>
	<g>
		<path class="st0" d="M109.98,49.77L100.72,49c-0.4-0.03-0.74-0.3-0.84-0.68c-0.9-3.23-2.2-6.36-3.85-9.28c-0.19-0.35-0.14-0.79,0.12-1.09&#xA;			l6-7.09c1.48-1.76,1.37-4.31-0.25-5.94l-7.82-7.82c-1.64-1.61-4.19-1.71-5.94-0.24l-7.1,6c-0.3,0.26-0.74,0.3-1.07,0.12&#xA;			c-2.93-1.66-6.06-2.95-9.28-3.86c-0.38-0.11-0.65-0.45-0.68-0.86l-0.77-9.25c-0.2-2.28-2.08-4.01-4.37-4.02H53.79&#xA;			c-2.29,0.01-4.17,1.74-4.37,4.03l-0.77,9.25c-0.03,0.39-0.3,0.73-0.68,0.84c-3.24,0.9-6.36,2.2-9.28,3.85&#xA;			c-0.35,0.19-0.78,0.15-1.09-0.12l-7.09-5.99c-1.75-1.46-4.3-1.36-5.94,0.25l-7.83,7.82c-1.61,1.63-1.71,4.18-0.23,5.94l6,7.09&#xA;			c0.26,0.3,0.31,0.74,0.12,1.07c-1.65,2.93-2.95,6.06-3.85,9.27c-0.12,0.38-0.45,0.65-0.86,0.68l-9.25,0.77&#xA;			c-2.29,0.2-4.01,2.09-4.02,4.38v11.07c0.01,2.29,1.74,4.17,4.03,4.37l9.25,0.77c0.4,0.03,0.73,0.3,0.84,0.67&#xA;			c0.9,3.23,2.2,6.36,3.85,9.28c0.19,0.35,0.14,0.79-0.12,1.09l-6,7.08c-1.48,1.76-1.37,4.31,0.25,5.94l7.82,7.83&#xA;			c1.63,1.61,4.18,1.71,5.94,0.24l7.1-6c0.3-0.26,0.74-0.3,1.07-0.12c2.93,1.65,6.06,2.94,9.29,3.84c0.38,0.11,0.65,0.45,0.68,0.86&#xA;			l0.77,9.25c0.2,2.28,2.07,4.01,4.36,4.03h11.06c2.29-0.01,4.17-1.74,4.38-4.03l0.77-9.25c0.03-0.4,0.3-0.74,0.68-0.85&#xA;			c3.24-0.9,6.36-2.2,9.28-3.84c0.35-0.19,0.78-0.15,1.09,0.12l7.09,6c1.75,1.47,4.31,1.37,5.94-0.25l7.83-7.82&#xA;			c1.62-1.64,1.71-4.2,0.23-5.95l-6-7.09c-0.26-0.3-0.31-0.74-0.12-1.08c1.65-2.93,2.95-6.06,3.85-9.28&#xA;			c0.11-0.38,0.45-0.65,0.86-0.68l9.25-0.77c2.29-0.2,4.01-2.09,4.02-4.38V54.14C113.99,51.85,112.26,49.97,109.98,49.77z&#xA;			 M94.88,69.62c-0.8,2.84-1.94,5.58-3.39,8.15c-1.24,2.23-0.96,5.03,0.69,6.98l5.52,6.53l-6.78,6.78l-6.52-5.52&#xA;			c-1.95-1.65-4.75-1.93-6.99-0.69c-2.56,1.45-5.3,2.58-8.15,3.38c-2.44,0.7-4.23,2.88-4.44,5.42l-0.71,8.51h-9.58l-0.71-8.51&#xA;			c-0.2-2.54-1.99-4.72-4.44-5.42c-2.84-0.8-5.58-1.94-8.14-3.38c-0.9-0.51-1.93-0.78-2.97-0.78c0,0-0.01,0-0.01,0&#xA;			c-1.47,0-2.89,0.52-4,1.46l-6.53,5.52l-6.78-6.78l5.52-6.53c1.65-1.95,1.93-4.75,0.68-6.98c-1.45-2.57-2.59-5.31-3.38-8.15&#xA;			c-0.7-2.44-2.88-4.22-5.42-4.43l-8.51-0.71v-9.59l8.51-0.71c2.54-0.2,4.71-1.99,5.42-4.44c0.8-2.84,1.94-5.58,3.39-8.15&#xA;			c1.24-2.23,0.96-5.03-0.69-6.98l-5.52-6.53l6.78-6.78l6.52,5.52c1.94,1.65,4.75,1.93,6.99,0.69c2.57-1.45,5.31-2.59,8.15-3.38&#xA;			c2.45-0.7,4.23-2.88,4.44-5.42l0.71-8.51h9.58l0.71,8.51c0.21,2.54,1.99,4.72,4.44,5.42c2.84,0.8,5.58,1.94,8.15,3.39&#xA;			c2.23,1.23,5.03,0.96,6.97-0.69l6.53-5.52l6.78,6.78l-5.52,6.53c-1.65,1.94-1.93,4.75-0.68,6.98c1.45,2.57,2.59,5.31,3.38,8.15&#xA;			c0.7,2.45,2.88,4.23,5.42,4.44l8.51,0.7v9.59l-8.51,0.71C97.76,65.39,95.58,67.17,94.88,69.62z" />
	</g>
	<g>
		<path class="st0" d="M59.33,31.94c-15.3,0-27.74,12.44-27.74,27.74c0,15.3,12.44,27.74,27.74,27.74s27.74-12.44,27.74-27.74&#xA;			C87.05,44.4,74.61,31.96,59.33,31.94z M81.87,59.68c-0.01,12.42-10.13,22.53-22.54,22.55c-12.43,0-22.54-10.11-22.54-22.55&#xA;			c0-12.43,10.11-22.54,22.54-22.54S81.87,47.25,81.87,59.68z" />
	</g>
</g>
</svg>