<?xml version="1.0" encoding="utf-8"?>
<!-- Generator: Adobe Illustrator 24.0.1, SVG Export Plug-In . SVG Version: 6.00 Build 0)  -->
<svg version="1.1" id="Capa_1" xmlns="http://www.w3.org/2000/svg" xmlns:xlink="http://www.w3.org/1999/xlink" x="0px" y="0px" viewBox="0 0 21 21" style="enable-background:new 0 0 21 21;" xml:space="preserve">
<style type="text/css">
	.st0{fill:#424242;}
</style>
<g>
	<g>
		<g>
			<path class="st0" d="M10.16,20.1c-0.13-0.03-0.25-0.06-0.38-0.09c-1.09-0.33-1.77-1.04-2.03-2.14c-0.01-0.05-0.02-0.1-0.04-0.16&#xA;				c-0.07,0-0.13,0-0.2,0c-1.28,0-2.55,0.01-3.83,0c-0.48,0-0.85-0.24-1.07-0.67c-0.21-0.43-0.16-0.85,0.11-1.24&#xA;				c0.07-0.1,0.16-0.18,0.25-0.26c1.27-1.14,1.9-2.57,1.92-4.27C4.9,10.43,4.88,9.58,4.9,8.74c0.05-2.31,1.6-4.4,3.78-5.13&#xA;				C8.85,3.55,8.91,3.48,8.9,3.3C8.89,2.98,8.88,2.66,8.92,2.34c0.07-0.72,0.56-1.25,1.27-1.41c0.03-0.01,0.06-0.02,0.09-0.03&#xA;				c0.15,0,0.3,0,0.45,0c0.1,0.03,0.2,0.06,0.3,0.09c0.65,0.23,1.06,0.82,1.07,1.54c0.01,0.27,0.01,0.55,0,0.82&#xA;				c0,0.13,0.04,0.19,0.17,0.24c1.87,0.67,3.08,1.95,3.64,3.86c0.15,0.51,0.19,1.03,0.19,1.56c0,0.92-0.02,1.85,0.03,2.77&#xA;				c0.09,1.44,0.71,2.65,1.76,3.64c0.08,0.08,0.17,0.15,0.25,0.23c0.35,0.35,0.46,0.87,0.27,1.31c-0.21,0.47-0.58,0.73-1.1,0.74&#xA;				c-1.29,0.01-2.59,0-3.88,0c-0.04,0-0.09,0-0.15,0c-0.02,0.09-0.04,0.18-0.07,0.27c-0.33,1.16-1.09,1.86-2.28,2.09&#xA;				c-0.03,0.01-0.07,0.02-0.1,0.04C10.61,20.1,10.39,20.1,10.16,20.1z M10.5,16.9L10.5,16.9c0.8-0.01,1.6-0.01,2.4-0.01&#xA;				c1.41,0,2.81,0.01,4.22,0.01c0.06,0,0.13,0,0.19,0c0.18-0.01,0.31-0.09,0.37-0.27c0.06-0.17,0.01-0.32-0.12-0.44&#xA;				c-0.1-0.1-0.21-0.18-0.3-0.28c-1.3-1.28-1.95-2.83-1.95-4.65c0-0.77,0-1.54,0-2.31c0-0.25-0.01-0.5-0.05-0.75&#xA;				c-0.44-2.86-3.17-4.66-5.98-3.95C7.23,4.78,5.73,6.68,5.7,8.78c-0.01,0.87,0.01,1.74-0.01,2.6c-0.02,1.47-0.48,2.79-1.42,3.94&#xA;				c-0.25,0.3-0.54,0.57-0.82,0.85c-0.13,0.13-0.2,0.27-0.14,0.45c0.07,0.19,0.21,0.27,0.41,0.27c0.06,0,0.11,0,0.17,0&#xA;				C6.1,16.9,8.3,16.9,10.5,16.9z M8.56,17.71c0.14,0.88,1.01,1.59,1.95,1.59s1.82-0.72,1.94-1.59&#xA;				C11.15,17.71,9.86,17.71,8.56,17.71z M9.71,3.32c0.53,0,1.05,0,1.57,0c0-0.32,0.03-0.65-0.01-0.98c-0.03-0.36-0.4-0.64-0.77-0.64&#xA;				c-0.39,0-0.75,0.3-0.78,0.67C9.69,2.69,9.71,3.01,9.71,3.32z" />
		</g>
	</g>
</g>
</svg>