<?xml version="1.0" encoding="utf-8"?>
<!-- Generator: Adobe Illustrator 24.0.1, SVG Export Plug-In . SVG Version: 6.00 Build 0)  -->
<svg version="1.1" id="Capa_1" xmlns="http://www.w3.org/2000/svg" xmlns:xlink="http://www.w3.org/1999/xlink" x="0px" y="0px" viewBox="0 0 15 15" style="enable-background:new 0 0 15 15;" xml:space="preserve">
<style type="text/css">
	.st0{fill:#FFFFFF;}
</style>
<g>
	<path class="st0" d="M4.11,1.9c0.35,0.07,0.6,0.29,0.84,0.54c0.42,0.44,0.86,0.86,1.28,1.3c0.39,0.42,0.39,0.98,0,1.41&#xA;		C5.97,5.44,5.68,5.72,5.39,6c-0.06,0.06-0.07,0.1-0.03,0.17c0.28,0.59,0.69,1.09,1.13,1.57c0.45,0.49,0.95,0.92,1.51,1.28&#xA;		c0.15,0.1,0.32,0.18,0.48,0.27C8.53,9.31,8.57,9.3,8.61,9.26c0.24-0.24,0.47-0.49,0.72-0.72c0.13-0.12,0.29-0.25,0.45-0.32&#xA;		c0.43-0.19,0.82-0.08,1.14,0.23c0.47,0.46,0.93,0.93,1.4,1.39c0.49,0.48,0.53,1.11,0.08,1.6c-0.33,0.36-0.67,0.71-1.03,1.04&#xA;		c-0.39,0.35-0.87,0.44-1.38,0.4c-0.8-0.06-1.53-0.35-2.25-0.7c-1.05-0.53-2.01-1.19-2.85-2.01C3.62,8.93,2.6,7.53,2.02,5.83&#xA;		C1.86,5.37,1.76,4.88,1.77,4.38C1.78,3.9,1.94,3.47,2.28,3.13c0.28-0.29,0.57-0.57,0.86-0.86C3.33,2.08,3.56,1.96,3.83,1.9&#xA;		C3.92,1.9,4.01,1.9,4.11,1.9z M10.17,12.34c0.34,0.01,0.64-0.08,0.89-0.31c0.32-0.31,0.63-0.63,0.94-0.96&#xA;		c0.22-0.24,0.22-0.51-0.01-0.75c-0.48-0.5-0.98-0.99-1.47-1.47c-0.19-0.19-0.43-0.19-0.65-0.04C9.81,8.85,9.76,8.9,9.71,8.95&#xA;		c-0.27,0.26-0.53,0.53-0.8,0.8C8.74,9.92,8.55,9.95,8.33,9.84C8.17,9.76,8.01,9.68,7.86,9.58c-0.67-0.4-1.25-0.9-1.78-1.47&#xA;		C5.58,7.57,5.12,7,4.82,6.32c-0.13-0.29-0.1-0.45,0.13-0.67c0.27-0.26,0.54-0.52,0.8-0.79c0.27-0.29,0.27-0.52,0-0.82&#xA;		C5.74,4.03,5.73,4.02,5.72,4.01C5.28,3.57,4.83,3.12,4.38,2.68C4.32,2.61,4.24,2.55,4.15,2.51c-0.25-0.12-0.46,0-0.64,0.17&#xA;		C3.25,2.94,2.98,3.2,2.72,3.48C2.6,3.61,2.49,3.77,2.42,3.94C2.27,4.3,2.31,4.67,2.38,5.04c0.14,0.7,0.41,1.35,0.76,1.97&#xA;		c1.25,2.21,3,3.87,5.33,4.91C9.02,12.15,9.58,12.32,10.17,12.34z" />
</g>
</svg>