<?xml version="1.0" encoding="utf-8"?>
<!-- Generator: Adobe Illustrator 24.0.1, SVG Export Plug-In . SVG Version: 6.00 Build 0)  -->
<svg version="1.1" id="Capa_1" xmlns="http://www.w3.org/2000/svg" xmlns:xlink="http://www.w3.org/1999/xlink" x="0px" y="0px" viewBox="0 0 60 60" style="enable-background:new 0 0 60 60;" xml:space="preserve">
<style type="text/css">
	.st0{fill:#CBDEE7;}
</style>
<g>
	<g>
		<path class="st0" d="M53.53,13.17l-28.03,0l-0.08-0.52c-0.01-0.07-0.02-0.13-0.03-0.18c-0.26-2.06-1.65-3.3-3.73-3.31&#xA;			c-1.27-0.01-2.55-0.01-3.81,0c-0.86,0-1.63,0.28-2.29,0.84c-0.79,0.66-1.21,1.55-1.29,2.74l-0.03,0.43l-3.07,0&#xA;			c-1.77,0-3.55,0-5.32,0.01c-0.83,0-1.48,0.56-1.57,1.35c-0.09,0.78,0.42,1.51,1.2,1.68c0.18,0.04,0.39,0.04,0.61,0.04l7.71,0h0.41&#xA;			l0.05,0.41c0.29,2.39,1.63,3.6,3.99,3.6l0.89,0c0.88,0,1.77,0.01,2.67,0c1.79-0.02,3.17-1.17,3.52-2.94&#xA;			c0.03-0.15,0.05-0.29,0.08-0.45l0.1-0.61l28.08,0c0.16,0,0.32,0.01,0.48-0.01c0.71-0.07,1.31-0.66,1.39-1.37&#xA;			c0.08-0.73-0.38-1.41-1.08-1.61C54.13,13.18,53.81,13.17,53.53,13.17z" />
		<path class="st0" d="M30.36,33.06c0.26,1.95,1.7,3.23,3.67,3.24l0.65,0c1.09,0.01,2.19,0.02,3.28-0.01&#xA;			c1.28-0.03,2.24-0.56,2.86-1.58c0.24-0.39,0.4-0.86,0.57-1.36c0.08-0.25,0.17-0.51,0.27-0.76l0.11-0.3h4.05c2.65,0,5.31,0,7.96,0&#xA;			c0,0,0,0,0.01,0c0.78,0,1.27-0.31,1.56-0.96c0.2-0.47,0.16-0.97-0.1-1.38c-0.3-0.46-0.84-0.74-1.45-0.74&#xA;			c-2.72-0.01-5.43-0.01-8.15,0h-4.12l-0.05-0.41c-0.28-2.39-1.63-3.6-4-3.6h-3.07c-2.49,0-3.76,1.11-4.11,3.61l-0.06,0.4H6.16&#xA;			c-0.13-0.01-0.26,0-0.38,0c-0.79,0.04-1.41,0.62-1.49,1.38c-0.07,0.77,0.47,1.5,1.23,1.66c0.19,0.04,0.4,0.04,0.61,0.03l24.13,0&#xA;			L30.36,33.06z" />
		<path class="st0" d="M53.54,45.26c-8.96-0.01-17.91-0.01-26.87-0.01h-1.16l-0.08-0.52c-0.01-0.07-0.02-0.13-0.03-0.18&#xA;			c-0.26-2.06-1.65-3.3-3.73-3.31c-1.27,0-2.54,0-3.82,0c-0.86,0-1.63,0.28-2.29,0.84c-0.79,0.66-1.21,1.55-1.29,2.74l-0.03,0.43&#xA;			l-3.07,0c-1.77,0-3.55,0-5.32,0.01c-0.83,0-1.48,0.56-1.57,1.35c-0.09,0.78,0.42,1.51,1.2,1.68c0.18,0.04,0.39,0.04,0.61,0.04&#xA;			l7.71,0h0.41l0.05,0.41c0.29,2.39,1.63,3.6,3.99,3.6l0.89,0c0.88,0,1.77,0.01,2.67,0c1.79-0.02,3.17-1.17,3.52-2.94&#xA;			c0.03-0.15,0.05-0.29,0.08-0.45l0.1-0.61l28.09,0c0.16,0,0.31,0,0.47-0.01c0.72-0.07,1.32-0.66,1.39-1.37&#xA;			c0.08-0.73-0.38-1.41-1.08-1.61C54.13,45.26,53.81,45.26,53.54,45.26z" />
	</g>
</g>
</svg>