<?xml version="1.0" encoding="utf-8"?>
<!-- Generator: Adobe Illustrator 24.0.1, SVG Export Plug-In . SVG Version: 6.00 Build 0)  -->
<svg version="1.1" id="Capa_1" xmlns="http://www.w3.org/2000/svg" xmlns:xlink="http://www.w3.org/1999/xlink" x="0px" y="0px" viewBox="0 0 16.34 16.34" style="enable-background:new 0 0 16.34 16.34;" xml:space="preserve">
<style type="text/css">
	.st1{fill:#5E94FF;}
</style>
<path class="st1" d="M10.15,14.46c0.03-0.09,0.05-0.18,0.07-0.27c0.01-0.04,0.02-0.09,0.03-0.13l0.02-0.09h0.93&#xA;	c0.59,0,1.18,0,1.77,0c0.18,0,0.32-0.01,0.44-0.04c0.57-0.13,1.02-0.55,1.19-1.11c0.17-0.56,0.04-1.16-0.36-1.59&#xA;	c-0.25-0.27-0.54-0.56-0.86-0.88c-0.22-0.21-0.32-0.46-0.32-0.77l0-0.26c0.01-0.77,0.01-1.57,0-2.35c-0.04-2.11-1.04-3.65-2.96-4.56&#xA;	c-0.11-0.05-0.23-0.1-0.35-0.14C9.7,2.23,9.64,2.21,9.58,2.19L9.49,2.15l0.01-0.1c0.05-0.44-0.05-0.83-0.31-1.13&#xA;	C8.96,0.65,8.6,0.48,8.26,0.46C7.9,0.45,7.58,0.56,7.31,0.79C6.95,1.11,6.8,1.53,6.87,2.05l0.01,0.1L6.8,2.18&#xA;	C6.72,2.21,6.64,2.24,6.57,2.27c-0.15,0.06-0.3,0.11-0.43,0.18c-1.75,0.88-2.7,2.28-2.82,4.17C3.28,7.34,3.29,8.08,3.3,8.8&#xA;	c0,0.25,0.01,0.5,0.01,0.75c0,0.33-0.1,0.58-0.32,0.79c-0.26,0.25-0.53,0.53-0.8,0.81c-0.15,0.16-0.25,0.29-0.32,0.43&#xA;	c-0.26,0.5-0.25,1.09,0.05,1.58c0.29,0.49,0.8,0.79,1.37,0.8c0.59,0.01,1.19,0.01,1.79,0l1.03,0l0.03,0.15&#xA;	c0.01,0.03,0.01,0.06,0.02,0.08c0.11,0.59,0.42,1.04,0.93,1.37c0.27,0.18,0.57,0.26,0.87,0.32h0.46c0.03-0.01,0.06-0.02,0.08-0.03&#xA;	C9.32,15.71,9.86,15.25,10.15,14.46z M7.8,1.46c0.08-0.1,0.21-0.16,0.35-0.17c0.14-0.01,0.27,0.04,0.37,0.13&#xA;	c0.11,0.1,0.17,0.26,0.16,0.45l0,0.12H7.71L7.7,1.87C7.68,1.71,7.71,1.57,7.8,1.46z M6.43,13.14c-1.02,0-2.05,0-3.08,0&#xA;	c-0.29,0-0.55-0.14-0.7-0.37c-0.15-0.22-0.18-0.48-0.08-0.72c0.04-0.11,0.12-0.21,0.22-0.33c0.28-0.3,0.55-0.57,0.81-0.82&#xA;	c0.36-0.36,0.54-0.78,0.54-1.3l0-0.37c0-0.75-0.01-1.53,0-2.3c0.03-1.78,0.85-3.05,2.44-3.78c1.11-0.51,2.38-0.46,3.49,0.12&#xA;	c1.12,0.59,1.89,1.62,2.1,2.83c0.05,0.26,0.07,0.55,0.08,0.87c0.01,0.87,0.01,1.75,0,2.62c0,0.52,0.17,0.94,0.53,1.3&#xA;	c0.32,0.31,0.6,0.6,0.86,0.88c0.15,0.16,0.23,0.37,0.22,0.58c-0.01,0.22-0.11,0.42-0.27,0.58c-0.15,0.14-0.34,0.21-0.59,0.21&#xA;	c0,0,0,0,0,0c-1.01,0-2.02,0-3.04,0H6.43z M8.23,15.07c-0.01,0-0.03,0-0.04,0c-0.58,0-1.12-0.42-1.2-0.96l-0.02-0.14h2.42L9.37,14.1&#xA;	C9.33,14.6,8.79,15.05,8.23,15.07z" />
</svg>