<?xml version="1.0" encoding="utf-8"?>
<!-- Generator: Adobe Illustrator 24.0.1, SVG Export Plug-In . SVG Version: 6.00 Build 0)  -->
<svg version="1.1" id="Capa_1" xmlns="http://www.w3.org/2000/svg" xmlns:xlink="http://www.w3.org/1999/xlink" x="0px" y="0px" viewBox="0 0 16.34 16.34" style="enable-background:new 0 0 16.34 16.34;" xml:space="preserve">
<style type="text/css">
	.st1{fill:#5E94FF;}
</style>
<g>
	<path class="st1" d="M0.72,16.08h0.21l2.14-0.7c0.33-0.11,0.65-0.21,0.98-0.31c0.04-0.01,0.09-0.02,0.13-0.02&#xA;		c0.08,0,0.15,0.02,0.21,0.05c0.84,0.46,1.77,0.77,2.75,0.91c0.13,0.02,0.27,0.03,0.4,0.05l0.17,0.02l0.95,0&#xA;		c0.08-0.01,0.18-0.02,0.28-0.04c0.2-0.02,0.42-0.05,0.62-0.09c2.48-0.48,4.36-1.84,5.58-4.06c0.52-0.94,0.82-1.98,0.9-3.1&#xA;		c0-0.04,0.01-0.07,0.02-0.11l0.01-0.04l0-0.91c-0.01-0.08-0.02-0.18-0.04-0.27c-0.02-0.21-0.05-0.42-0.09-0.63&#xA;		c-0.47-2.48-1.84-4.36-4.05-5.58c-0.94-0.52-1.99-0.82-3.12-0.9c-0.04,0-0.07-0.01-0.11-0.02L8.64,0.32l-0.9,0&#xA;		c-0.1,0.01-0.2,0.02-0.29,0.04c-0.2,0.02-0.42,0.05-0.62,0.09C4.35,0.93,2.47,2.29,1.25,4.51c-0.52,0.94-0.82,1.98-0.9,3.1&#xA;		c0,0.04-0.01,0.07-0.02,0.11L0.33,7.76l0,0.94l0.03,0.23C0.39,9.12,0.41,9.31,0.44,9.5c0.14,0.87,0.42,1.7,0.86,2.48&#xA;		c0.07,0.13,0.08,0.26,0.04,0.41c-0.23,0.7-0.45,1.4-0.68,2.11l-0.33,1.02v0.17C0.4,15.87,0.53,16,0.72,16.08z M2.04,5.16&#xA;		c1.03-2,2.63-3.24,4.77-3.69c1.98-0.41,3.8-0.01,5.44,1.19c1.43,1.05,2.33,2.44,2.67,4.14c0.4,1.98,0.01,3.81-1.17,5.43&#xA;		c-1.04,1.43-2.44,2.34-4.15,2.7c-0.49,0.1-0.98,0.15-1.45,0.15c-1.14,0-2.24-0.29-3.28-0.88c-0.39-0.22-0.7-0.25-1.08-0.11&#xA;		c-0.44,0.17-0.88,0.3-1.35,0.45c-0.2,0.06-0.4,0.12-0.61,0.19L1.6,14.8L2.18,13c0.07-0.21,0.14-0.43,0.21-0.64&#xA;		c0.08-0.21,0.05-0.39-0.07-0.59C1.86,11,1.56,10.17,1.42,9.29C1.18,7.82,1.4,6.43,2.04,5.16z" />
	<path class="st1" d="M5.09,7.55c0,0-0.01,0-0.01,0c-0.17,0-0.33,0.07-0.46,0.19c-0.13,0.12-0.2,0.29-0.2,0.46&#xA;		c0,0.35,0.29,0.65,0.64,0.66c0.17,0,0.34-0.06,0.47-0.19c0.13-0.12,0.2-0.29,0.2-0.46C5.73,7.85,5.44,7.55,5.09,7.55z" />
	<path class="st1" d="M7.55,8.18C7.54,8.54,7.82,8.84,8.18,8.85C8.36,8.87,8.52,8.8,8.65,8.68c0.13-0.12,0.2-0.29,0.21-0.46&#xA;		c0.01-0.36-0.27-0.66-0.63-0.67c-0.01,0-0.02,0-0.02,0c-0.16,0-0.32,0.06-0.44,0.18C7.63,7.85,7.55,8.01,7.55,8.18L7.55,8.18z" />
	<path class="st1" d="M11.34,7.55c0,0-0.01,0-0.01,0c-0.17,0-0.33,0.07-0.46,0.19c-0.13,0.12-0.2,0.29-0.2,0.46&#xA;		c0,0.35,0.29,0.65,0.64,0.66c0.18,0,0.34-0.06,0.47-0.19c0.13-0.12,0.2-0.29,0.2-0.46C11.99,7.86,11.69,7.55,11.34,7.55z" />
</g>
</svg>