<?xml version="1.0" encoding="utf-8"?>
<!-- Generator: Adobe Illustrator 24.0.1, SVG Export Plug-In . SVG Version: 6.00 Build 0)  -->
<svg version="1.1" id="Capa_1" xmlns="http://www.w3.org/2000/svg" xmlns:xlink="http://www.w3.org/1999/xlink" x="0px" y="0px"
	 viewBox="0 0 14 14" style="enable-background:new 0 0 14 14;" xml:space="preserve">
<style type="text/css">
	.st0{fill:#FFFFFF;}
</style>
<g>
	<g>
		<g>
			<g>
				<path class="st0" d="M4.59,4.2c-0.17-0.17-0.45-0.17-0.62,0C3.35,4.83,3.04,5.71,3.13,6.61C3.15,6.84,3.34,7,3.56,7
					C3.57,7,3.59,7,3.6,7c0.24-0.02,0.41-0.24,0.39-0.48c-0.06-0.64,0.15-1.26,0.6-1.71C4.76,4.65,4.76,4.37,4.59,4.2z"/>
			</g>
		</g>
		<g>
			<g>
				<path class="st0" d="M6.32,1.52c-2.75,0-4.98,2.23-4.98,4.98s2.23,4.98,4.98,4.98S11.3,9.24,11.3,6.5S9.06,1.52,6.32,1.52z
					 M6.32,10.6c-2.26,0-4.11-1.84-4.11-4.11s1.84-4.11,4.11-4.11c2.26,0,4.11,1.84,4.11,4.11S8.58,10.6,6.32,10.6z"/>
			</g>
		</g>
		<g>
			<g>
				<path class="st0" d="M13,12.56L9.83,9.4c-0.17-0.17-0.45-0.17-0.62,0s-0.17,0.45,0,0.62l3.16,3.16c0.09,0.09,0.2,0.13,0.31,0.13
					c0.11,0,0.22-0.04,0.31-0.13C13.17,13.01,13.17,12.73,13,12.56z"/>
			</g>
		</g>
	</g>
</g>
</svg>
