<?xml version="1.0" encoding="utf-8"?>
<!-- Generator: Adobe Illustrator 24.0.1, SVG Export Plug-In . SVG Version: 6.00 Build 0)  -->
<svg version="1.1" id="Capa_1" xmlns="http://www.w3.org/2000/svg" xmlns:xlink="http://www.w3.org/1999/xlink" x="0px" y="0px"
	 viewBox="0 0 114 114" style="enable-background:new 0 0 114 114;" xml:space="preserve">
<style type="text/css">
	.st0{opacity:0.3;}
	.st1{fill:#688BC7;}
	.st2{fill:#FFFFFF;}
</style>
<g>
	<g>
		<path class="st1" d="M58.59,94.54L58.59,94.54c-20.98,0-37.99-17.01-37.99-37.99l0,0c0-20.98,17.01-37.99,37.99-37.99l0,0
			c20.98,0,37.99,17.01,37.99,37.99l0,0C96.58,77.53,79.57,94.54,58.59,94.54z"/>
	</g>
</g>
<g>
	<g>
		<path class="st2" d="M58.26,35.79c0.8,0.12,1.61,0.21,2.41,0.35c7.83,1.39,14.18,7.76,15.59,15.61
			c1.74,9.66-3.71,18.93-12.97,22.1c-0.22,0.07-0.44,0.25-0.57,0.44c-1.38,2-2.74,4.01-4.11,6.02c-0.9,1.33-2.32,1.33-3.22,0
			c-1.37-2.01-2.73-4.02-4.11-6.02c-0.14-0.2-0.38-0.37-0.61-0.46C43.22,70.99,38.7,65.7,37.6,57.8
			c-1.26-9.08,4.01-17.6,12.61-20.81c1.66-0.62,3.38-1,5.15-1.13c0.13-0.01,0.26-0.05,0.39-0.08C56.6,35.79,57.43,35.79,58.26,35.79
			z M57,76.33c0.09-0.11,0.15-0.18,0.19-0.25c0.98-1.43,1.97-2.86,2.92-4.3c0.4-0.61,0.9-0.96,1.6-1.17
			c8.15-2.43,12.98-11.03,10.83-19.25C70.06,41.88,59.86,36.83,50.8,40.6c-6.78,2.82-10.88,10.08-9.59,17.29
			c1.16,6.44,4.98,10.68,11.2,12.74c0.6,0.2,1.08,0.51,1.43,1.05C54.87,73.22,55.92,74.74,57,76.33z"/>
	</g>
	<g>
		<path class="st2" d="M58.98,57.99c0,1.53-0.01,3.05,0.01,4.58c0.01,0.47-0.19,0.8-0.57,1.02c-0.89,0.51-1.8,0.53-2.71,0.05
			c-0.43-0.23-0.63-0.58-0.63-1.09c0.01-3.05,0.01-6.1,0-9.15c0-0.56,0.25-0.94,0.75-1.14c0.84-0.33,1.68-0.33,2.5,0.06
			c0.44,0.21,0.67,0.54,0.66,1.05C58.97,54.91,58.98,56.45,58.98,57.99z"/>
	</g>
	<g>
		<path class="st2" d="M57.01,49.72c-1.06,0-2-0.78-2.05-1.71c-0.06-1.07,0.98-1.97,2.17-1.88c0.18,0.01,0.35,0.04,0.52,0.09
			c0.89,0.26,1.5,1.07,1.39,1.87C58.92,49,58.03,49.72,57.01,49.72z"/>
	</g>
</g>
</svg>
