<?xml version="1.0" encoding="utf-8"?>
<!-- Generator: Adobe Illustrator 24.0.1, SVG Export Plug-In . SVG Version: 6.00 Build 0)  -->
<svg version="1.1" id="Layer_1" xmlns="http://www.w3.org/2000/svg" xmlns:xlink="http://www.w3.org/1999/xlink" x="0px" y="0px"
	 viewBox="0 0 124.6 116.7" style="enable-background:new 0 0 124.6 116.7;" xml:space="preserve">
<style type="text/css">
	.st0{fill:#ffffff;}
</style>
<g>
	<path class="st0" d="M82.1,19.4c-67,22.2-75.9-26.1-5.2-5.6C-9.1-28.6-4,63.6,82.1,19.4z"/>
	<path class="st0" d="M77.5,14.3C119,37,133.9-8,89.2,15C124,3.5,114.2,25,77.5,14.3z"/>
	<path class="st0" d="M122.9,50.7c0.6-3.1,0-5.7-1.8-7.8c-1.8-2.1-4.9-3.2-9.1-3.2H86.4L85,46.9c-0.2-0.6-0.4-1.3-0.7-1.9
		c-0.9-2-2.5-3.5-4.7-4.5c-2.2-1-5.5-1.5-9.8-1.5c-4.1,0-7.5,0.5-10,1.5c-2.6,1-4.7,2.5-6.3,4.4c-1.7,1.9-3.1,4.6-4.3,8.1l12.1,1
		c0.9-2.5,1.9-4.2,3.1-5.2c1.2-1,2.6-1.5,4.1-1.5c1.5,0,2.7,0.5,3.5,1.4c0.8,1,1.1,2.1,0.8,3.4c-0.3,1.2-1,2.6-2.3,3.9
		c-1.3,1.4-4,3.4-8.1,6.1c-6.8,4.4-11.5,8.1-14.3,11.3c-0.8,0.9-1.5,1.7-2.1,2.6l-8.1-19.9l19.5-16.6H39.1L21.4,56.4l3.4-16.7H11.2
		L2.1,83.9h13.6l2.2-10.8l8.6-7.4l5.6,18.1h9.8h6.9h28.5h1.3h22.2c1,0,3.1-0.2,6.2-0.6c2.4-0.3,4.2-0.8,5.5-1.4
		c2.1-1.1,3.8-2.5,5.2-4.3c1.4-1.8,2.4-3.9,2.9-6.2c0.6-2.8,0.3-5.1-0.8-7c-1.1-1.8-3.2-3.2-6.2-3.9c2.2-0.7,4-1.7,5.4-2.9
		C121.1,55.6,122.4,53.3,122.9,50.7z M79.4,73.9H61.6c1.3-1.1,2.5-2,3.5-2.7c1-0.7,2.9-1.9,5.7-3.6c4.7-2.9,8.2-5.6,10.2-8.1
		c0.7-0.8,1.3-1.7,1.9-2.6L79.4,73.9z M107.4,69.8c-0.3,1.4-1,2.5-2.1,3.4c-1.1,0.8-2.9,1.2-5.2,1.2h-7l1.8-8.9h6.9
		c2.4,0,4,0.4,4.8,1.2C107.4,67.4,107.6,68.5,107.4,69.8z M109.1,52.8c-0.3,1.4-0.9,2.4-1.9,3.2c-1,0.7-2.6,1.1-4.7,1.1h-5.9
		l1.7-8.4h6c2.1,0,3.4,0.4,4.1,1.1C109.2,50.5,109.4,51.5,109.1,52.8z"/>
	<polygon class="st0" points="10.5,97.4 18,97.4 18,112.6 20.8,112.6 20.8,97.4 28.3,97.4 28.3,94.9 10.5,94.9 	"/>
	<path class="st0" d="M48.1,97c-2-1.8-4.6-2.6-7.8-2.6c-3.2,0-5.8,0.9-7.8,2.7c-2,1.8-3,4-3,6.7c0,2.7,1,4.9,3,6.7c2,1.8,4.6,2.7,7.8,2.7
		c3.2,0,5.8-0.9,7.8-2.7c2-1.8,3.1-4,3.1-6.7C51.2,101,50.1,98.8,48.1,97z M46.1,108.6c-1.5,1.3-3.4,1.9-5.8,1.9
		c-2.4,0-4.3-0.6-5.8-1.9c-1.5-1.3-2.2-2.9-2.2-4.9c0-2,0.7-3.6,2.2-4.9c1.5-1.3,3.4-1.9,5.8-1.9c2.4,0,4.3,0.6,5.8,1.9
		c1.5,1.3,2.2,2.9,2.2,4.9C48.3,105.7,47.6,107.4,46.1,108.6z"/>
	<path class="st0" d="M72.8,97c-2-1.8-4.6-2.6-7.8-2.6c-3.2,0-5.8,0.9-7.8,2.7c-2,1.8-3,4-3,6.7c0,2.7,1,4.9,3,6.7c2,1.8,4.6,2.7,7.8,2.7
		c3.2,0,5.8-0.9,7.8-2.7c2-1.8,3-4,3-6.7C75.8,101,74.8,98.8,72.8,97z M70.8,108.6c-1.5,1.3-3.4,1.9-5.8,1.9c-2.4,0-4.3-0.6-5.8-1.9
		c-1.5-1.3-2.2-2.9-2.2-4.9c0-2,0.7-3.6,2.2-4.9c1.5-1.3,3.4-1.9,5.8-1.9c2.4,0,4.3,0.6,5.8,1.9c1.5,1.3,2.2,2.9,2.2,4.9
		C73,105.7,72.3,107.4,70.8,108.6z"/>
	<polygon class="st0" points="83.1,94.9 80.3,94.9 80.3,112.6 96.3,112.6 96.3,110 83.1,110 	"/>
	<path class="st0" d="M113.4,103.1c-1.4-1-3.6-1.4-6.4-1.4c-2,0-3.5-0.2-4.3-0.5c-0.8-0.3-1.2-0.9-1.2-1.7c0-0.8,0.4-1.4,1.2-1.8
		c0.8-0.5,1.9-0.7,3.2-0.7c1.2,0,2.4,0.2,3.6,0.6c1.3,0.4,2.5,1,3.6,1.7l1.4-2.3c-1.3-0.8-2.7-1.5-4.1-1.9c-1.4-0.4-2.9-0.6-4.4-0.6
		c-2.2,0-4,0.5-5.3,1.4c-1.3,0.9-2,2.2-2,3.7c0,1.6,0.6,2.8,1.8,3.5c1.2,0.7,3.4,1.1,6.6,1.1c1.9,0.1,3.3,0.3,4.2,0.8
		c0.9,0.5,1.3,1.2,1.3,2.3c0,1-0.5,1.8-1.5,2.5c-1,0.6-2.2,1-3.8,1c-1.3,0-2.7-0.2-4.1-0.7c-1.4-0.5-2.8-1.1-4-1.9l-1.3,2.3
		c1.4,0.9,3,1.6,4.7,2.1c1.7,0.5,3.4,0.7,5.1,0.7c2.3,0,4.2-0.6,5.7-1.7c1.5-1.1,2.2-2.5,2.2-4.2C115.5,105.4,114.8,104,113.4,103.1
		z"/>
</g>
</svg>
