<?xml version="1.0" encoding="utf-8"?>
<!-- Generator: Adobe Illustrator 24.0.1, SVG Export Plug-In . SVG Version: 6.00 Build 0)  -->
<svg version="1.1" id="Capa_1" xmlns="http://www.w3.org/2000/svg" xmlns:xlink="http://www.w3.org/1999/xlink" x="0px" y="0px" viewBox="0 0 60 60" style="enable-background:new 0 0 60 60;" xml:space="preserve">
<style type="text/css">
	.st0{fill:#000000;}
</style>
<g>
	<g>
		<path class="st0" d="M47.6,4.38c0.6,0.28,0.83,0.74,0.83,1.41c-0.02,3.76-0.01,7.52-0.01,11.28c0,1.08-0.38,1.45-1.47,1.45&#xA;			c-6.36,0-12.71,0-19.07,0c-1.18,0-1.53-0.36-1.53-1.54c0-3.71,0.01-7.42-0.01-11.12c0-0.68,0.2-1.17,0.82-1.47&#xA;			C33.98,4.38,40.79,4.38,47.6,4.38z M46.07,6.76c-5.8,0-11.56,0-17.32,0c0,3.14,0,6.24,0,9.34c5.8,0,11.55,0,17.32,0&#xA;			C46.07,12.98,46.07,9.9,46.07,6.76z" />
		<path class="st0" d="M13.78,15.75c0,3.19,0,6.34,0,9.52c1.34,0.36,2.41,1.09,3.15,2.28c0.56,0.9,0.8,1.89,0.77,2.94&#xA;			c-0.07,2-1.28,4.07-3.9,4.81c0,3.15,0,6.32,0,9.52c1.08,0.3,2.03,0.84,2.77,1.72c1.5,1.79,1.59,4.41,0.22,6.28&#xA;			c-1.42,1.94-3.92,2.64-6.13,1.72c-2.15-0.89-3.46-3.24-3.08-5.54c0.34-2.03,1.49-3.38,3.43-4.05c0.31-0.11,0.4-0.25,0.4-0.57&#xA;			c-0.01-2.88-0.01-5.76,0-8.65c0-0.32-0.09-0.46-0.41-0.56c-2.21-0.71-3.62-2.62-3.62-4.88c0-2.27,1.4-4.17,3.62-4.88&#xA;			c0.32-0.1,0.4-0.25,0.4-0.57c-0.01-2.88-0.01-5.76,0-8.65c0-0.32-0.09-0.46-0.41-0.57C8.5,14.79,7.16,12.46,7.61,9.8&#xA;			c0.41-2.4,2.66-4.24,5.11-4.18c2.54,0.06,4.66,1.95,4.99,4.45c0.32,2.42-1.14,4.77-3.46,5.53C14.1,15.65,13.96,15.69,13.78,15.75z&#xA;			 M12.64,47.06c-1.53,0-2.77,1.24-2.77,2.76c0,1.52,1.25,2.76,2.78,2.76c1.52,0,2.8-1.23,2.82-2.73&#xA;			C15.48,48.34,14.19,47.06,12.64,47.06z M12.68,13.49c1.51-0.01,2.79-1.28,2.78-2.77c-0.01-1.49-1.29-2.75-2.8-2.75&#xA;			c-1.52,0-2.74,1.25-2.72,2.79C9.95,12.28,11.18,13.5,12.68,13.49z M12.65,27.52c-1.52,0.01-2.73,1.25-2.72,2.79&#xA;			c0.01,1.51,1.24,2.72,2.74,2.72c1.5-0.01,2.72-1.23,2.72-2.74C15.4,28.76,14.18,27.52,12.65,27.52z" />
		<path class="st0" d="M40.3,37.35c-4.15,0-8.29,0-12.44,0c-1.14,0-1.5-0.36-1.5-1.52c0-3.72,0-7.45,0-11.17&#xA;			c0-1.05,0.39-1.44,1.42-1.44c8.36,0,16.72,0,25.08,0c1.07,0,1.44,0.37,1.44,1.42c0,3.76,0,7.52,0,11.28&#xA;			c0,1.08-0.37,1.44-1.47,1.44C48.66,37.35,44.48,37.35,40.3,37.35z M51.94,25.6c-7.76,0-15.47,0-23.21,0c0,3.13,0,6.22,0,9.35&#xA;			c7.74,0,15.46,0,23.21,0C51.94,31.83,51.94,28.73,51.94,25.6z" />
		<path class="st0" d="M37.38,56.17c-3.2,0-6.41,0-9.61,0c-1.01,0-1.41-0.39-1.41-1.4c0-3.78,0-7.55,0-11.33c0-1,0.41-1.4,1.42-1.4&#xA;			c6.41,0,12.81,0,19.22,0c1.05,0,1.43,0.39,1.43,1.44c0,3.76,0,7.52,0,11.28c0,1.06-0.37,1.42-1.44,1.42&#xA;			C43.78,56.17,40.58,56.17,37.38,56.17z M46.05,44.44c-5.78,0-11.54,0-17.3,0c0,3.14,0,6.25,0,9.35c5.8,0,11.55,0,17.3,0&#xA;			C46.05,50.65,46.05,47.55,46.05,44.44z" />
		<path class="st0" d="M37.44,12.04c2.04,0,4.08,0,6.12,0c0.47,0,0.87,0.12,1.14,0.52c0.47,0.7,0.07,1.64-0.77,1.8&#xA;			c-0.16,0.03-0.34,0.03-0.5,0.03c-4.01,0-8.02,0-12.04,0c-0.12,0-0.24,0-0.35-0.01c-0.67-0.06-1.14-0.55-1.13-1.19&#xA;			c0.01-0.64,0.49-1.14,1.17-1.14C33.19,12.04,35.31,12.05,37.44,12.04C37.44,12.05,37.44,12.05,37.44,12.04z" />
		<path class="st0" d="M34.42,10.86c-1.06,0-2.12,0-3.18,0c-0.82,0-1.35-0.47-1.35-1.18c0-0.71,0.51-1.16,1.35-1.16&#xA;			c2.14,0,4.28,0,6.41,0c0.83,0,1.35,0.46,1.35,1.17c0,0.71-0.52,1.17-1.35,1.17C36.58,10.86,35.5,10.86,34.42,10.86z" />
		<path class="st0" d="M37.37,33.21c-2.07,0-4.15,0-6.22,0c-0.77,0-1.28-0.51-1.25-1.21c0.02-0.62,0.49-1.1,1.14-1.12&#xA;			c0.71-0.02,1.42-0.01,2.12-0.01c3.46,0,6.91,0,10.37,0c0.76,0,1.24,0.36,1.34,0.96c0.12,0.77-0.4,1.37-1.23,1.38&#xA;			C41.55,33.22,39.46,33.21,37.37,33.21z" />
		<path class="st0" d="M34.46,29.68c-1.08,0-2.15,0.01-3.23,0c-0.82-0.01-1.34-0.48-1.33-1.19c0.01-0.69,0.53-1.15,1.32-1.15&#xA;			c2.15,0,4.31,0,6.46,0c0.8,0,1.31,0.45,1.33,1.14c0.02,0.72-0.5,1.19-1.32,1.2C36.61,29.69,35.53,29.68,34.46,29.68z" />
		<path class="st0" d="M37.39,52.04c-2.01,0-4.01,0-6.02,0c-0.22,0-0.44,0-0.65-0.05c-0.53-0.15-0.87-0.69-0.81-1.25&#xA;			c0.06-0.55,0.5-0.99,1.08-1.03c0.42-0.03,0.84-0.01,1.26-0.01c3.76,0,7.52,0,11.28,0c0.76,0,1.25,0.35,1.35,0.95&#xA;			c0.13,0.78-0.4,1.38-1.26,1.39C41.53,52.05,39.46,52.04,37.39,52.04z" />
		<path class="st0" d="M34.42,48.51c-1.08,0-2.15,0.01-3.23,0c-0.79-0.01-1.3-0.48-1.29-1.17c0-0.69,0.52-1.17,1.3-1.17&#xA;			c2.17-0.01,4.34-0.01,6.51,0c0.78,0,1.29,0.49,1.29,1.18c0,0.7-0.51,1.15-1.3,1.16C36.61,48.52,35.51,48.51,34.42,48.51z" />
	</g>
</g>
</svg>