<?xml version="1.0" encoding="utf-8"?>
<!-- Generator: Adobe Illustrator 24.0.1, SVG Export Plug-In . SVG Version: 6.00 Build 0)  -->
<svg version="1.1" id="Capa_1" xmlns="http://www.w3.org/2000/svg" xmlns:xlink="http://www.w3.org/1999/xlink" x="0px" y="0px"
	 viewBox="0 0 124.99 97.13" style="enable-background:new 0 0 124.99 97.13;" xml:space="preserve">
<style type="text/css">
	.st0{fill:#F18868;}
	.st1{fill:#FFFFFF;}
	.st2{fill:#B6DFF8;}
	.st3{fill:#FFFFFF;stroke:#5886C5;stroke-linejoin:round;stroke-miterlimit:10;}
	.st4{opacity:0.75;}
	.st5{opacity:0.55;fill:none;stroke:#B6DFF8;stroke-linejoin:round;stroke-miterlimit:10;}
	.st6{fill:none;stroke:#B6DFF8;stroke-linejoin:round;stroke-miterlimit:10;}
	.st7{fill:none;stroke:#5886C5;stroke-linejoin:round;stroke-miterlimit:10;}
	.st8{opacity:0.45;fill:#8CB3DF;}
	.st9{opacity:0.75;fill:none;stroke:#E1EBF8;stroke-linejoin:round;stroke-miterlimit:10;}
	.st10{opacity:0.45;}
	.st11{opacity:0.75;fill:#8CB3DF;}
	.st12{fill:#5886C5;}
	.st13{fill:#9CD1F3;}
	.st14{fill:#FFE393;}
	.st15{clip-path:url(#SVGID_2_);}
	.st16{fill:#3661AB;}
	.st17{fill:#4573B8;}
	.st18{fill:#8F83BD;}
</style>
<path class="st0" d="M59,10.58c0,0-0.77-1.1-2.48-0.95c-1.35,0.12-1.51,1.02-1.51,1.02S56.32,9.23,59,10.58z"/>
<g>
	<g>
		<path class="st1" d="M58.26,35.79c0.8,0.12,1.61,0.21,2.41,0.35c7.83,1.39,14.18,7.76,15.59,15.61
			c1.74,9.66-3.71,18.93-12.97,22.1c-0.22,0.07-0.44,0.25-0.57,0.44c-1.38,2-2.74,4.01-4.11,6.02c-0.9,1.33-2.32,1.33-3.22,0
			c-1.37-2.01-2.73-4.02-4.11-6.02c-0.14-0.2-0.38-0.37-0.61-0.46c-7.45-2.84-11.97-8.13-13.07-16.03
			c-1.26-9.08,4.01-17.6,12.61-20.81c1.66-0.62,3.38-1,5.15-1.13c0.13-0.01,0.26-0.05,0.39-0.08C56.6,35.79,57.43,35.79,58.26,35.79
			z M57,76.33c0.09-0.11,0.15-0.18,0.19-0.25c0.98-1.43,1.97-2.86,2.92-4.3c0.4-0.61,0.9-0.96,1.6-1.17
			c8.15-2.43,12.98-11.03,10.83-19.25c-2.48-9.48-12.68-14.53-21.74-10.76c-6.78,2.82-10.88,10.08-9.59,17.29
			c1.16,6.44,4.98,10.68,11.2,12.74c0.6,0.2,1.08,0.51,1.43,1.05C54.87,73.22,55.92,74.74,57,76.33z"/>
	</g>
	<g>
		<path class="st1" d="M58.98,57.99c0,1.53-0.01,3.05,0.01,4.58c0.01,0.47-0.19,0.8-0.57,1.02c-0.89,0.51-1.8,0.53-2.71,0.05
			c-0.43-0.23-0.63-0.58-0.63-1.09c0.01-3.05,0.01-6.1,0-9.15c0-0.56,0.25-0.94,0.75-1.14c0.84-0.33,1.68-0.33,2.5,0.06
			c0.44,0.21,0.67,0.54,0.66,1.05C58.97,54.91,58.98,56.45,58.98,57.99z"/>
	</g>
	<g>
		<path class="st1" d="M57.01,49.72c-1.06,0-2-0.78-2.05-1.71c-0.06-1.07,0.98-1.97,2.17-1.88c0.18,0.01,0.35,0.04,0.52,0.09
			c0.89,0.26,1.5,1.07,1.39,1.87C58.92,49,58.03,49.72,57.01,49.72z"/>
	</g>
</g>
<g>
	<path class="st2" d="M109.05,83.65H10.36c-4.21,0-7.62-3.41-7.62-7.62V16.51c0-4.21,3.41-7.62,7.62-7.62h98.69
		c4.21,0,7.62,3.41,7.62,7.62v59.52C116.67,80.24,113.26,83.65,109.05,83.65z"/>
	<path class="st3" d="M106.82,81H12.59c-3.67,0-6.65-2.98-6.65-6.65V18.19c0-3.67,2.98-6.65,6.65-6.65h94.23
		c3.67,0,6.65,2.98,6.65,6.65v56.16C113.48,78.03,110.5,81,106.82,81z"/>
	<g class="st4">
		<g>
			<path class="st5" d="M23.02,45.93H18.5c-3.46,0-6.26-2.8-6.26-6.26v-4.52c0-3.46,2.8-6.26,6.26-6.26h4.52
				c3.46,0,6.26,2.8,6.26,6.26v4.52C29.28,43.13,26.48,45.93,23.02,45.93z"/>
			<g>
				<polygon class="st6" points="19.24,33.78 15.13,41.73 23.35,41.73 				"/>
				<polygon class="st6" points="23.63,36.39 22.64,38.3 24.42,41.73 26.39,41.73 				"/>
				<path class="st6" d="M25.83,34.9c0,0.48-0.38,0.86-0.86,0.86c-0.47,0-0.86-0.39-0.86-0.86c0-0.48,0.38-0.86,0.86-0.86
					C25.45,34.04,25.83,34.43,25.83,34.9z"/>
			</g>
		</g>
		<g>
			<path class="st5" d="M49.08,45.93h-4.52c-3.46,0-6.26-2.8-6.26-6.26v-4.52c0-3.46,2.8-6.26,6.26-6.26h4.52
				c3.46,0,6.26,2.8,6.26,6.26v4.52C55.34,43.13,52.54,45.93,49.08,45.93z"/>
			<g>
				<polygon class="st6" points="45.3,33.78 41.19,41.73 49.41,41.73 				"/>
				<polygon class="st6" points="49.69,36.39 48.7,38.3 50.48,41.73 52.45,41.73 				"/>
				<path class="st6" d="M51.89,34.9c0,0.48-0.38,0.86-0.86,0.86c-0.47,0-0.86-0.39-0.86-0.86c0-0.48,0.38-0.86,0.86-0.86
					C51.51,34.04,51.89,34.43,51.89,34.9z"/>
			</g>
		</g>
		<g>
			<path class="st5" d="M75.14,45.93h-4.52c-3.46,0-6.26-2.8-6.26-6.26v-4.52c0-3.46,2.8-6.26,6.26-6.26h4.52
				c3.46,0,6.26,2.8,6.26,6.26v4.52C81.4,43.13,78.6,45.93,75.14,45.93z"/>
			<g>
				<polygon class="st6" points="71.36,33.78 67.25,41.73 75.47,41.73 				"/>
				<polygon class="st6" points="75.75,36.39 74.76,38.3 76.54,41.73 78.52,41.73 				"/>
				<path class="st6" d="M77.95,34.9c0,0.48-0.38,0.86-0.86,0.86c-0.47,0-0.86-0.39-0.86-0.86c0-0.48,0.38-0.86,0.86-0.86
					C77.57,34.04,77.95,34.43,77.95,34.9z"/>
			</g>
		</g>
		<g>
			<path class="st5" d="M101.2,45.93h-4.52c-3.46,0-6.26-2.8-6.26-6.26v-4.52c0-3.46,2.8-6.26,6.26-6.26h4.52
				c3.46,0,6.26,2.8,6.26,6.26v4.52C107.46,43.13,104.66,45.93,101.2,45.93z"/>
			<g>
				<polygon class="st6" points="97.42,33.78 93.31,41.73 101.54,41.73 				"/>
				<polygon class="st6" points="101.81,36.39 100.82,38.3 102.6,41.73 104.58,41.73 				"/>
				<path class="st6" d="M104.01,34.9c0,0.48-0.38,0.86-0.86,0.86c-0.47,0-0.86-0.39-0.86-0.86c0-0.48,0.38-0.86,0.86-0.86
					C103.63,34.04,104.01,34.43,104.01,34.9z"/>
			</g>
		</g>
	</g>
	<g class="st4">
		<g>
			<path class="st5" d="M23.02,67.95H18.5c-3.46,0-6.26-2.8-6.26-6.26v-4.52c0-3.46,2.8-6.26,6.26-6.26h4.52
				c3.46,0,6.26,2.8,6.26,6.26v4.52C29.28,65.15,26.48,67.95,23.02,67.95z"/>
			<g>
				<polygon class="st6" points="19.24,55.8 15.13,63.75 23.35,63.75 				"/>
				<polygon class="st6" points="23.63,58.41 22.64,60.32 24.42,63.75 26.39,63.75 				"/>
				<path class="st6" d="M25.83,56.92c0,0.48-0.38,0.86-0.86,0.86c-0.47,0-0.86-0.39-0.86-0.86c0-0.48,0.38-0.86,0.86-0.86
					C25.45,56.06,25.83,56.44,25.83,56.92z"/>
			</g>
		</g>
		<g>
			<path class="st5" d="M49.08,67.95h-4.52c-3.46,0-6.26-2.8-6.26-6.26v-4.52c0-3.46,2.8-6.26,6.26-6.26h4.52
				c3.46,0,6.26,2.8,6.26,6.26v4.52C55.34,65.15,52.54,67.95,49.08,67.95z"/>
			<g>
				<polygon class="st6" points="45.3,55.8 41.19,63.75 49.41,63.75 				"/>
				<polygon class="st6" points="49.69,58.41 48.7,60.32 50.48,63.75 52.45,63.75 				"/>
				<path class="st6" d="M51.89,56.92c0,0.48-0.38,0.86-0.86,0.86c-0.47,0-0.86-0.39-0.86-0.86c0-0.48,0.38-0.86,0.86-0.86
					C51.51,56.06,51.89,56.44,51.89,56.92z"/>
			</g>
		</g>
		<g>
			<path class="st5" d="M75.14,67.95h-4.52c-3.46,0-6.26-2.8-6.26-6.26v-4.52c0-3.46,2.8-6.26,6.26-6.26h4.52
				c3.46,0,6.26,2.8,6.26,6.26v4.52C81.4,65.15,78.6,67.95,75.14,67.95z"/>
			<g>
				<polygon class="st6" points="71.36,55.8 67.25,63.75 75.47,63.75 				"/>
				<polygon class="st6" points="75.75,58.41 74.76,60.32 76.54,63.75 78.52,63.75 				"/>
				<path class="st6" d="M77.95,56.92c0,0.48-0.38,0.86-0.86,0.86c-0.47,0-0.86-0.39-0.86-0.86c0-0.48,0.38-0.86,0.86-0.86
					C77.57,56.06,77.95,56.44,77.95,56.92z"/>
			</g>
		</g>
		<g>
			<path class="st5" d="M101.2,67.95h-4.52c-3.46,0-6.26-2.8-6.26-6.26v-4.52c0-3.46,2.8-6.26,6.26-6.26h4.52
				c3.46,0,6.26,2.8,6.26,6.26v4.52C107.46,65.15,104.66,67.95,101.2,67.95z"/>
			<g>
				<polygon class="st6" points="97.42,55.8 93.31,63.75 101.54,63.75 				"/>
				<polygon class="st6" points="101.81,58.41 100.82,60.32 102.6,63.75 104.58,63.75 				"/>
				<path class="st6" d="M104.01,56.92c0,0.48-0.38,0.86-0.86,0.86c-0.47,0-0.86-0.39-0.86-0.86c0-0.48,0.38-0.86,0.86-0.86
					C103.63,56.06,104.01,56.44,104.01,56.92z"/>
			</g>
		</g>
	</g>
	<line class="st7" x1="5.94" y1="20.04" x2="113.48" y2="20.04"/>
	<path class="st8" d="M100.56,17.57H26.48c-1.02,0-1.84-0.82-1.84-1.84l0,0c0-1.02,0.82-1.84,1.84-1.84h74.08
		c1.02,0,1.84,0.82,1.84,1.84l0,0C102.4,16.75,101.58,17.57,100.56,17.57z"/>
	<g>
		<path class="st7" d="M11.22,15.83c0,0.54-0.44,0.98-0.98,0.98s-0.98-0.44-0.98-0.98c0-0.54,0.44-0.98,0.98-0.98
			S11.22,15.28,11.22,15.83z"/>
		<path class="st7" d="M15.79,15.83c0,0.54-0.44,0.98-0.98,0.98c-0.54,0-0.98-0.44-0.98-0.98c0-0.54,0.44-0.98,0.98-0.98
			C15.35,14.85,15.79,15.28,15.79,15.83z"/>
		<path class="st7" d="M20.37,15.83c0,0.54-0.44,0.98-0.98,0.98c-0.54,0-0.98-0.44-0.98-0.98c0-0.54,0.44-0.98,0.98-0.98
			C19.93,14.85,20.37,15.28,20.37,15.83z"/>
	</g>
	<line class="st9" x1="92.41" y1="23.62" x2="96.76" y2="23.62"/>
	<line class="st9" x1="98.87" y1="23.62" x2="103.22" y2="23.62"/>
	<g class="st10">
		<rect x="104.79" y="22.44" class="st11" width="0.59" height="0.59"/>
		<rect x="105.6" y="22.44" class="st11" width="0.59" height="0.59"/>
		<rect x="106.42" y="22.44" class="st11" width="0.59" height="0.59"/>
		<rect x="104.79" y="23.33" class="st11" width="0.59" height="0.59"/>
		<rect x="105.6" y="23.33" class="st11" width="0.59" height="0.59"/>
		<rect x="106.42" y="23.33" class="st11" width="0.59" height="0.59"/>
		<rect x="104.79" y="24.21" class="st11" width="0.59" height="0.59"/>
		<rect x="105.6" y="24.21" class="st11" width="0.59" height="0.59"/>
		<rect x="106.42" y="24.21" class="st11" width="0.59" height="0.59"/>
	</g>
	<path class="st8" d="M110.91,23.62c0,0.82-0.66,1.48-1.48,1.48s-1.48-0.66-1.48-1.48c0-0.82,0.66-1.48,1.48-1.48
		S110.91,22.8,110.91,23.62z"/>
	<g>
		<path class="st12" d="M110.89,13.9c0,0.21-0.17,0.39-0.39,0.39c-0.21,0-0.39-0.17-0.39-0.39c0-0.21,0.17-0.39,0.39-0.39
			C110.72,13.51,110.89,13.68,110.89,13.9z"/>
		<path class="st12" d="M110.89,15.73c0,0.21-0.17,0.39-0.39,0.39c-0.21,0-0.39-0.17-0.39-0.39c0-0.21,0.17-0.39,0.39-0.39
			C110.72,15.35,110.89,15.52,110.89,15.73z"/>
		<path class="st12" d="M110.89,17.57c0,0.21-0.17,0.39-0.39,0.39c-0.21,0-0.39-0.17-0.39-0.39c0-0.21,0.17-0.39,0.39-0.39
			C110.72,17.19,110.89,17.36,110.89,17.57z"/>
	</g>
	<g>
		<g>
			
				<rect x="28.55" y="1.67" transform="matrix(-1.836970e-16 1 -1 -1.836970e-16 96.6912 -23.0109)" class="st3" width="62.6" height="70.35"/>
			<g>
				<path class="st13" d="M28.03,65.29c-0.28,0-0.5-0.22-0.5-0.5V8.89c0-0.28,0.22-0.5,0.5-0.5h63.65c0.28,0,0.5,0.22,0.5,0.5v55.9
					c0,0.28-0.22,0.5-0.5,0.5H28.03z"/>
				<path class="st12" d="M91.68,8.89v55.9H28.03V8.89H91.68 M91.68,7.89H28.03c-0.55,0-1,0.45-1,1v55.9c0,0.55,0.45,1,1,1h63.65
					c0.55,0,1-0.45,1-1V8.89C92.68,8.34,92.23,7.89,91.68,7.89L91.68,7.89z"/>
			</g>
			
				<ellipse transform="matrix(0.2276 -0.9738 0.9738 0.2276 34.7547 83.902)" class="st14" cx="70.26" cy="20.04" rx="5.81" ry="5.81"/>
			<g>
				<defs>
					<rect id="SVGID_1_" x="28.03" y="8.89" width="63.65" height="55.9"/>
				</defs>
				<clipPath id="SVGID_2_">
					<use xlink:href="#SVGID_1_"  style="overflow:visible;"/>
				</clipPath>
				<g class="st15">
					<polygon class="st16" points="48.28,73.6 79.06,32.74 106.26,73.6 					"/>
					<polygon class="st17" points="11.45,74.76 50.3,23.17 84.65,74.76 					"/>
				</g>
			</g>
		</g>
	</g>
</g>
<circle class="st18" cx="106.17" cy="76.15" r="16.5"/>
<g>
	<path class="st1" d="M114.52,66.95c-1.01-1.01-2.64-1.01-3.65,0l-0.91,0.92l-9.72,9.72l-0.02,0.02c-0.01,0.01-0.01,0.01-0.01,0.01
		c-0.01,0.02-0.03,0.03-0.04,0.05c0,0.01-0.01,0.01-0.01,0.01c-0.01,0.02-0.02,0.03-0.03,0.04c-0.01,0.01-0.01,0.01-0.01,0.02
		c-0.01,0.02-0.01,0.03-0.02,0.04c0,0-0.01,0-0.01,0.01l-2.16,6.49c-0.06,0.18-0.02,0.39,0.12,0.53c0.1,0.1,0.23,0.15,0.37,0.15
		c0.06,0,0.11-0.01,0.17-0.03l6.48-2.16c0.01,0,0.01,0,0.01-0.01c0.02,0,0.03-0.01,0.05-0.02c0,0,0.01,0,0.01-0.01
		c0.02-0.01,0.04-0.02,0.05-0.03c0.02-0.01,0.03-0.03,0.05-0.04c0.01-0.01,0.01-0.01,0.01-0.01c0.01-0.01,0.02-0.01,0.02-0.02
		l10.64-10.64c1.01-1.01,1.01-2.64,0-3.65L114.52,66.95z M104.92,81.54l-3.59-3.59l8.99-8.99l3.59,3.59L104.92,81.54z M100.82,78.91
		l3.14,3.14l-4.71,1.57L100.82,78.91z M115.19,71.27l-0.55,0.55l-3.59-3.59l0.55-0.55c0.6-0.6,1.58-0.6,2.19,0l1.4,1.4
		C115.8,69.69,115.79,70.66,115.19,71.27z"/>
</g>
</svg>
