<?xml version="1.0" encoding="utf-8"?>
<!-- Generator: Adobe Illustrator 24.0.1, SVG Export Plug-In . SVG Version: 6.00 Build 0)  -->
<svg version="1.1" id="Capa_1" xmlns="http://www.w3.org/2000/svg" xmlns:xlink="http://www.w3.org/1999/xlink" x="0px" y="0px" viewBox="0 0 48.9 48.9" style="enable-background:new 0 0 48.9 48.9;" xml:space="preserve">
<style type="text/css">
	.st0{fill:#2A898E;}
</style>
<g>
	<path class="st0" d="M19.78,16.75c-1.13,0-2.07,0.9-2.08,2c-0.01,1.1,0.92,2,2.06,2.01c1.14,0.01,2.1-0.88,2.11-2&#xA;		C21.89,17.68,20.91,16.74,19.78,16.75z" />
	<path class="st0" d="M35.4,27.69c-0.44-0.53-0.88-1.05-1.32-1.58c-1.05-1.25-2.1-2.5-3.15-3.73c-0.26-0.31-0.53-0.32-0.83-0.05&#xA;		c-0.05,0.05-0.1,0.1-0.16,0.15c-2.3,2.22-4.6,4.43-6.91,6.65c-0.46,0.44-0.78,0.46-1.28,0.05c-0.92-0.73-1.84-1.47-2.76-2.2&#xA;		c-0.37-0.3-0.53-0.3-0.89-0.01c-1.53,1.26-3.07,2.51-4.6,3.76c-0.08,0.06-0.15,0.2-0.15,0.29c-0.01,0.78-0.01,1.56,0,2.34&#xA;		c0,0.17,0.02,0.34,0.07,0.51c0.23,0.79,0.88,1.24,1.81,1.24c3.07,0,6.14,0,9.2,0c3.08,0,6.16,0,9.22,0c1.13,0,1.87-0.71,1.87-1.78&#xA;		c0-1.77,0-3.55,0-5.31C35.53,27.9,35.47,27.78,35.4,27.69z" />
	<path class="st0" d="M33.71,13.77c-6.18,0-12.36,0-18.53,0.01c-0.28,0-0.57,0.06-0.83,0.18c-0.72,0.32-1,0.9-1,1.64&#xA;		c0,4.37,0,8.74,0,13.1c0,0.07,0,0.15,0,0.26c0.09-0.07,0.16-0.11,0.21-0.16c1.19-0.97,2.37-1.93,3.55-2.9&#xA;		c0.93-0.76,1.88-0.78,2.81-0.03c0.74,0.58,1.48,1.18,2.2,1.77c0.06,0.05,0.12,0.09,0.22,0.16c0.06-0.07,0.11-0.15,0.18-0.21&#xA;		c2.14-2.07,4.28-4.14,6.44-6.2c0.17-0.16,0.35-0.31,0.55-0.43c0.92-0.49,1.89-0.27,2.58,0.54c1.08,1.28,2.16,2.57,3.24,3.85&#xA;		c0.05,0.05,0.1,0.1,0.18,0.19c0-0.09,0.01-0.12,0.01-0.17c0-3.29,0-6.56,0-9.85C35.53,14.49,34.79,13.77,33.71,13.77z M19.77,22.19&#xA;		c-1.97-0.01-3.56-1.54-3.56-3.43c0-1.88,1.59-3.42,3.56-3.43c1.97-0.01,3.59,1.54,3.59,3.43S21.75,22.2,19.77,22.19z" />
	<path class="st0" d="M24.44,0C10.94,0,0,10.94,0,24.44s10.94,24.44,24.44,24.44s24.44-10.94,24.44-24.44S37.94,0,24.44,0z&#xA;		 M37.01,33.8c-0.01,0.04-0.03,0.08-0.04,0.14c-0.23,1.22-0.97,2.03-2.16,2.45c-0.21,0.07-0.43,0.1-0.63,0.16&#xA;		c-6.48,0-12.96,0-19.45,0c-0.04-0.01-0.07-0.03-0.11-0.04c-1.27-0.22-2.12-0.92-2.56-2.07c-0.08-0.21-0.11-0.43-0.18-0.63&#xA;		c0-6.24,0-12.47,0-18.71c0.02-0.09,0.05-0.2,0.07-0.29c0.35-1.48,1.62-2.44,3.23-2.44c5.14,0,10.28,0,15.4,0&#xA;		c1.08,0,2.16-0.01,3.23,0c1.38,0.02,2.57,0.84,3.02,2.1c0.07,0.21,0.11,0.43,0.18,0.63C37.01,21.33,37.01,27.56,37.01,33.8z" />
</g>
</svg>