<?xml version="1.0" encoding="utf-8"?>
<!-- Generator: Adobe Illustrator 24.0.1, SVG Export Plug-In . SVG Version: 6.00 Build 0)  -->
<svg version="1.1" id="Capa_1" xmlns="http://www.w3.org/2000/svg" xmlns:xlink="http://www.w3.org/1999/xlink" x="0px" y="0px" viewBox="0 0 120 120" style="enable-background:new 0 0 120 120;" xml:space="preserve">
<style type="text/css">
	.st0{fill:#35ADB4;}
</style>
<g>
	<g>
		<path class="st0" d="M13.35,19.08c-3.33-0.51-6.42,1.49-7.39,4.68l-0.04,0.13l-0.23-0.06v2.79l0.3,1.02c0.88,2.78,3.59,4.74,6.4,4.74&#xA;			c0.28,0,0.55-0.02,0.82-0.06c3.45-0.53,5.86-3.25,5.87-6.63C19.09,22.41,16.62,19.56,13.35,19.08z" />
	</g>
	<g>
		<path class="st0" d="M15.36,87.51c-2.82-1.4-6.11-0.72-8.01,1.66c-0.5,0.62-0.83,1.41-1.19,2.26c-0.13,0.32-0.27,0.63-0.41,0.94l-0.06,2.1&#xA;			l0.04,0.22c0.1,0.28,0.15,0.44,0.2,0.62c0.84,2.86,3.47,4.89,6.2,4.89c0.14,0,0.29-0.01,0.43-0.02c3.11-0.13,5.72-2.29,6.36-5.26&#xA;			C19.55,91.93,18.09,88.87,15.36,87.51z" />
	</g>
	<g>
		<path class="st0" d="M13.5,52.98c-3.37-0.53-6.49,1.42-7.52,4.64c-0.07,0.22-0.16,0.45-0.25,0.69l-0.05,2.32l0.05,0.24&#xA;			c0.12,0.3,0.19,0.48,0.25,0.69c0.91,2.83,3.57,4.72,6.46,4.72c0.35,0,0.71-0.03,1.07-0.08c3.13-0.51,5.53-3.33,5.57-6.56&#xA;			C19.12,56.42,16.67,53.5,13.5,52.98z" />
	</g>
	<g>
		<path class="st0" d="M36.53,64.41l71.69-0.01c0.58,0,1.15-0.01,1.72-0.09c1.28-0.18,2.44-0.9,3.19-1.99c0.76-1.11,1.03-2.47,0.74-3.73&#xA;			c-0.4-1.74-1.65-3.82-5.39-3.82l-71.9,0c-0.43,0-0.87,0.01-1.29,0.07c-2.08,0.3-3.42,1.44-3.99,3.38&#xA;			c-0.58,1.96-0.07,3.65,1.49,5.04C33.7,64.07,34.82,64.41,36.53,64.41z" />
	</g>
	<g>
		<path class="st0" d="M36.46,30.07c6.87-0.01,13.73-0.01,20.6-0.01h51.18c0.62,0,0.99,0.01,1.36-0.02c1.33-0.09,2.57-0.78,3.42-1.9&#xA;			c0.84-1.12,1.15-2.51,0.86-3.82c-0.55-2.47-2.45-3.89-5.24-3.89l-72.39,0c-0.24,0-0.44,0-0.64,0.02c-2.01,0.14-3.66,1.4-4.29,3.3&#xA;			c-0.62,1.88-0.04,3.92,1.48,5.2C33.72,29.73,34.84,30.07,36.46,30.07z" />
	</g>
	<g>
		<path class="st0" d="M108.84,89.12l-56.06-0.01c-5.67,0-11.34,0-17.01,0.02c-2.25,0.01-4.27,1.72-4.61,3.91c-0.38,2.44,0.9,4.66,3.11,5.37&#xA;			c0.65,0.21,1.44,0.31,2.43,0.31c12.63,0.01,25.25,0.02,37.88,0.02c5.65,0,11.3,0,16.94,0h16.87c0.48,0,0.76,0,1.03-0.02&#xA;			c2.73-0.17,4.73-2.43,4.56-5.13C113.82,90.92,111.75,89.12,108.84,89.12z" />
	</g>
</g>
</svg>