<?xml version="1.0" encoding="utf-8"?>
<!-- Generator: Adobe Illustrator 24.0.1, SVG Export Plug-In . SVG Version: 6.00 Build 0)  -->
<svg version="1.1" id="Capa_1" xmlns="http://www.w3.org/2000/svg" xmlns:xlink="http://www.w3.org/1999/xlink" x="0px" y="0px" viewBox="0 0 15 15" style="enable-background:new 0 0 15 15;" xml:space="preserve">
<style type="text/css">
	.st0{fill:#FFFFFF;}
	.st1{fill:none;}
</style>
<g>
	<path class="st0" d="M11.58,5.37c-0.13-1.25-0.72-2.19-1.74-2.8C8.59,1.84,7.25,1.72,5.84,2.24C4.81,2.63,4.08,3.32,3.68,4.31&#xA;		c-0.29,0.72-0.36,1.51-0.2,2.43C3.62,7.52,3.9,8.32,4.35,9.18c0.51,0.97,1.15,1.91,2.03,2.97l0.17,0.2H6.11c-0.32,0-0.65,0-0.97,0&#xA;		c-0.12,0-0.23,0.05-0.3,0.14c-0.07,0.08-0.09,0.2-0.07,0.31c0.03,0.14,0.14,0.22,0.24,0.27l4.94,0.01l0,0&#xA;		c0.23-0.11,0.31-0.26,0.27-0.45c-0.05-0.24-0.3-0.28-0.43-0.28H8.45l0.33-0.4c0.15-0.19,0.3-0.37,0.45-0.56&#xA;		c0.88-1.16,1.47-2.18,1.88-3.21C11.52,7.13,11.67,6.24,11.58,5.37z M10.34,8.13c-0.46,1.07-1.12,2.13-2.08,3.32&#xA;		c-0.15,0.18-0.3,0.36-0.45,0.54L7.5,12.35l-0.21-0.24c-0.12-0.14-0.24-0.28-0.36-0.42c-0.86-1.04-1.49-1.97-1.97-2.91&#xA;		C4.55,7.96,4.3,7.26,4.18,6.56C4.06,5.8,4.1,5.17,4.33,4.6c0.32-0.8,0.92-1.37,1.79-1.69c0.95-0.35,1.92-0.33,2.85,0.03&#xA;		c1.24,0.49,1.96,1.6,1.91,2.96C10.86,6.6,10.68,7.33,10.34,8.13z" />
	<path class="st0" d="M7.5,3.88c-1.14,0-2.06,0.93-2.06,2.06c0,1.14,0.92,2.06,2.06,2.07L7.5,8.13V8.01c0.55,0,1.07-0.21,1.46-0.6&#xA;		c0.39-0.39,0.61-0.91,0.61-1.46C9.56,4.8,8.64,3.88,7.5,3.88z M7.51,7.28c-0.36,0-0.7-0.14-0.95-0.39C6.3,6.64,6.16,6.3,6.16,5.94&#xA;		c0-0.74,0.6-1.34,1.34-1.34c0.36,0,0.7,0.14,0.95,0.39c0.26,0.26,0.4,0.6,0.4,0.95C8.84,6.68,8.24,7.28,7.51,7.28z" />
</g>
<rect class="st1" width="15" height="15" />
</svg>