<?xml version="1.0" encoding="utf-8"?>
<!-- Generator: Adobe Illustrator 24.0.1, SVG Export Plug-In . SVG Version: 6.00 Build 0)  -->
<svg version="1.1" id="Capa_1" xmlns="http://www.w3.org/2000/svg" xmlns:xlink="http://www.w3.org/1999/xlink" x="0px" y="0px" viewBox="0 0 120 120" style="enable-background:new 0 0 120 120;" xml:space="preserve">
<style type="text/css">
	.st0{fill:#5A6EE0;}
</style>
<g>
	<g>
		<path class="st0" d="M72.48,46c-1.26,0-2.28,1.02-2.28,2.28v43.03c0,1.26,1.02,2.28,2.28,2.28c1.26,0,2.28-1.02,2.28-2.28V48.28&#xA;			C74.76,47.02,73.74,46,72.48,46z" />
	</g>
	<g>
		<path class="st0" d="M45.62,46c-1.26,0-2.28,1.02-2.28,2.28v43.03c0,1.26,1.02,2.28,2.28,2.28s2.28-1.02,2.28-2.28V48.28&#xA;			C47.89,47.02,46.87,46,45.62,46z" />
	</g>
	<g>
		<path class="st0" d="M26.04,39.72v56.1c0,3.32,1.22,6.43,3.34,8.66c2.11,2.24,5.06,3.51,8.14,3.52h43.08c3.08-0.01,6.02-1.28,8.14-3.52&#xA;			c2.12-2.23,3.34-5.35,3.34-8.66v-56.1c4.22-1.12,6.96-5.2,6.39-9.53c-0.57-4.33-4.26-7.57-8.62-7.57H78.18v-2.85&#xA;			c0.01-2.39-0.93-4.69-2.63-6.38c-1.69-1.69-4-2.63-6.39-2.61H48.94c-2.39-0.02-4.7,0.92-6.39,2.61c-1.69,1.69-2.64,3.99-2.63,6.38&#xA;			v2.85H28.27c-4.37,0-8.06,3.24-8.62,7.57C19.08,34.52,21.81,38.6,26.04,39.72z M80.59,103.45H37.51c-3.89,0-6.92-3.34-6.92-7.63&#xA;			v-55.9h56.92v55.9C87.51,100.1,84.48,103.45,80.59,103.45z M44.48,19.77c-0.02-1.19,0.45-2.33,1.29-3.16&#xA;			c0.84-0.84,1.98-1.3,3.17-1.28h20.22c1.19-0.02,2.33,0.44,3.17,1.28c0.84,0.84,1.31,1.98,1.29,3.16v2.85H44.48V19.77z&#xA;			 M28.27,27.17h61.57c2.26,0,4.1,1.83,4.1,4.1s-1.83,4.1-4.1,4.1H28.27c-2.26,0-4.1-1.83-4.1-4.1S26,27.17,28.27,27.17z" />
	</g>
	<g>
		<path class="st0" d="M59.05,46c-1.26,0-2.28,1.02-2.28,2.28v43.03c0,1.26,1.02,2.28,2.28,2.28s2.28-1.02,2.28-2.28V48.28&#xA;			C61.33,47.02,60.31,46,59.05,46z" />
	</g>
</g>
</svg>