<?xml version="1.0" encoding="utf-8"?>
<!-- Generator: Adobe Illustrator 24.0.1, SVG Export Plug-In . SVG Version: 6.00 Build 0)  -->
<svg version="1.1" id="Capa_1" xmlns="http://www.w3.org/2000/svg" xmlns:xlink="http://www.w3.org/1999/xlink" x="0px" y="0px" viewBox="0 0 120 120" style="enable-background:new 0 0 120 120;" xml:space="preserve">
<style type="text/css">
	.st0{fill:#5A6EE0;}
</style>
<g>
	<g>
		<path class="st0" d="M12.59,84.33c0.34,0.1,0.66,0.16,0.98,0.16c0.96,0,1.85-0.49,2.82-1.53L45.3,51.4l1-1.71l1.56,1.21&#xA;			c0.71,0.56,1.07,1,1.38,1.35l1.59,1.73c3.1,3.35,6.21,6.7,9.36,10.01c0.61,0.63,1.3,1.12,1.86,1.32c1.32,0.5,2.52,0.09,3.85-1.34&#xA;			l35.65-37.83l0.31,7.79l0.01,8.27c0.02,0.91,0.15,1.48,0.26,1.78c0.59,1.82,2.34,2.74,3.82,2.5c1.82-0.34,3.04-1.94,3.06-3.96&#xA;			v-0.01c0.02-8.69,0.01-17.39,0.01-26.08c0-1.65-0.52-4.43-3.98-4.43H81.04c-1.11,0-2.12,0.39-2.85,1.12&#xA;			c-0.72,0.73-1.09,1.72-1.09,2.86c0.01,2.35,1.62,3.94,3.99,3.95L92.32,20l3.4,0.4L62.65,56.03l-1.52-1.93&#xA;			c-0.26-0.34-0.4-0.53-0.57-0.7l-1.84-1.99c-2.91-3.14-5.83-6.29-8.78-9.37c-0.63-0.66-1.3-1.15-1.88-1.36&#xA;			c-0.18-0.07-0.57-0.21-1.06-0.21c-1.23,0-2.17,0.85-2.85,1.59L11.45,77.21c-0.22,0.24-0.45,0.49-0.67,0.77&#xA;			c-0.84,1.11-1.07,2.57-0.63,3.92C10.35,82.47,10.97,83.88,12.59,84.33z" />
	</g>
	<g>
		<path class="st0" d="M104.92,99.33l-90.99,0c-2.32,0.1-3.97,1.7-4.01,3.87c-0.02,1.15,0.37,2.2,1.11,2.96c0.72,0.72,1.66,1.1,2.75,1.1&#xA;			l88.4,0.01c0.47,0,0.93,0.01,1.4,0.01c0.64,0,1.28-0.01,1.93-0.02h0.01c0.9-0.03,1.75-0.44,2.39-1.12&#xA;			c0.74-0.8,1.13-1.93,1.08-3.09C108.88,100.79,107.28,99.33,104.92,99.33z" />
	</g>
</g>
</svg>