<?xml version="1.0" encoding="utf-8"?>
<!-- Generator: Adobe Illustrator 24.0.1, SVG Export Plug-In . SVG Version: 6.00 Build 0)  -->
<svg version="1.1" id="Capa_1" xmlns="http://www.w3.org/2000/svg" xmlns:xlink="http://www.w3.org/1999/xlink" x="0px" y="0px" viewBox="0 0 120 120" style="enable-background:new 0 0 120 120;" xml:space="preserve">
<style type="text/css">
	.st0{fill:#5A6EE0;}
</style>
<g>
	<g>
		<path class="st0" d="M40.72,4.46c-2.64-0.01-5.29-0.01-7.93-0.01l-3.61,0l-3.7,0c-1.23,0-2.46,0-3.69,0c-1.48,0-2.96,0-4.44,0.01&#xA;			C9.91,4.5,4.47,9.93,4.45,17.37c-0.03,7.79-0.03,15.57,0,23.36c0.03,7.45,5.46,12.88,12.91,12.91c7.79,0.03,15.57,0.03,23.36,0&#xA;			c7.44-0.03,12.88-5.46,12.9-12.91c0.03-7.79,0.03-15.57,0-23.36C53.6,9.93,48.16,4.5,40.72,4.46z M47.6,40.67&#xA;			c-0.01,4.14-2.79,6.93-6.91,6.95c-1.68,0.01-3.34,0.01-5.02,0.01c-1.12,0-2.23,0-3.34,0l-3.34,0l-3.46,0l-8.08-0.01&#xA;			c-4.25-0.02-6.99-2.78-6.99-7.04c-0.01-7.69-0.01-15.39,0-23.09c0.01-4.26,2.75-7.02,6.99-7.02c7.74-0.02,15.48-0.02,23.24,0&#xA;			c4.13,0.01,6.91,2.8,6.91,6.95C47.63,25.18,47.63,32.92,47.6,40.67z" />
	</g>
	<g>
		<path class="st0" d="M66.81,17.43c-0.03,7.74-0.03,15.48,0,23.22c0.03,7.51,5.47,12.98,12.97,13c7.74,0.03,15.48,0.03,23.21,0&#xA;			c7.5-0.02,12.97-5.48,13-12.98c0.01-2.74,0.01-5.48,0.01-8.23V25.8c0.01-2.78,0.01-5.56-0.01-8.34c-0.03-7.51-5.49-12.98-12.97-13&#xA;			c-3.87-0.01-7.74-0.02-11.6-0.02s-7.74,0.01-11.6,0.02C72.3,4.48,66.83,9.93,66.81,17.43z M72.83,17.5&#xA;			c0.01-4.26,2.75-7.02,6.98-7.02c7.74-0.02,15.49-0.01,23.24,0c4.13,0.01,6.91,2.8,6.92,6.95c0.01,7.75,0.01,15.49,0,23.24&#xA;			c-0.01,4.15-2.79,6.95-6.91,6.96c-3.9,0.01-7.8,0.01-11.7,0.01c-3.9,0-7.79,0-11.7-0.01c-4.01-0.01-6.81-2.84-6.84-6.87&#xA;			c-0.01-2.82-0.01-5.65-0.01-8.47L72.83,17.5z" />
	</g>
	<g>
		<path class="st0" d="M4.45,79.82c-0.02,7.74-0.03,15.48,0,23.22c0.03,7.5,5.49,12.95,12.99,12.98c7.74,0.02,15.47,0.02,23.21,0&#xA;			c7.48-0.02,12.94-5.49,12.98-13l0.01-15.43c0-2.59,0.01-5.18-0.01-7.78c-0.04-7.5-5.51-12.96-13-12.98&#xA;			c-3.87-0.01-7.74-0.02-11.6-0.02s-7.74,0.01-11.6,0.02C9.93,66.85,4.47,72.32,4.45,79.82z M10.46,79.7&#xA;			c0.01-4.07,2.77-6.83,6.86-6.85c2.67-0.01,5.37,0,8.04-0.01l3.65,0l3.46,0l8.09,0.01c4.27,0.01,7.04,2.75,7.04,6.98&#xA;			c0.02,7.74,0.02,15.49,0,23.24c-0.01,4.14-2.8,6.92-6.93,6.93c-3.88,0.01-7.75,0.01-11.62,0.01c-3.88,0-7.75,0-11.62-0.01&#xA;			c-4.16-0.01-6.96-2.79-6.97-6.91C10.45,95.29,10.44,87.49,10.46,79.7z" />
	</g>
	<g>
		<path class="st0" d="M115.98,79.75c-0.04-7.46-5.47-12.89-12.9-12.92c-3.9-0.01-7.79-0.02-11.68-0.02c-3.9,0-7.79,0.01-11.68,0.02&#xA;			c-7.45,0.03-12.88,5.46-12.91,12.91c-0.03,7.79-0.03,15.57,0,23.36c0.03,7.45,5.46,12.89,12.9,12.92c7.79,0.03,15.57,0.03,23.36,0&#xA;			c7.44-0.03,12.87-5.46,12.91-12.91c0.02-2.69,0.01-5.38,0.01-8.06l-0.01-3.47l0.01-3.55C116,85.26,116.01,82.5,115.98,79.75z&#xA;			 M109.97,103.01c-0.01,4.24-2.77,6.98-7.04,6.99c-4.12,0.01-8.24,0.01-12.36,0.01c-3.58,0-7.15,0-10.72-0.01&#xA;			c-4.26,0-7.02-2.75-7.02-7l-0.01-14.54l0.01-8.55c0.01-4.34,2.73-7.05,7.11-7.05c7.64-0.01,15.29-0.01,22.93,0&#xA;			c4.38,0,7.1,2.72,7.1,7.08C109.98,87.62,109.98,95.31,109.97,103.01z" />
	</g>
</g>
</svg>