<?xml version="1.0" encoding="utf-8"?>
<!-- Generator: Adobe Illustrator 24.0.1, SVG Export Plug-In . SVG Version: 6.00 Build 0)  -->
<svg version="1.1" id="Capa_1" xmlns="http://www.w3.org/2000/svg" xmlns:xlink="http://www.w3.org/1999/xlink" x="0px" y="0px" viewBox="0 0 120 120" style="enable-background:new 0 0 120 120;" xml:space="preserve">
<style type="text/css">
	.st0{fill:#EF4874;}
</style>	 
<g>
	<path class="st0" d="M49.64,67.46c0.41-0.58,0.62-0.99,0.93-1.3C60.82,55.9,71.07,45.65,81.33,35.4c2.46-2.46,5.58-2.77,8-0.82&#xD;&#xA;		c2.38,1.91,2.82,5.32,0.99,7.77c-0.36,0.49-0.79,0.93-1.22,1.36C77.5,55.32,65.89,66.92,54.28,78.53&#xD;&#xA;		c-3.16,3.16-6.25,3.15-9.43-0.03c-5.91-5.9-11.82-11.8-17.71-17.72c-2.71-2.72-2.68-6.42,0.03-8.7c2.07-1.74,4.96-1.81,7.09-0.14&#xD;&#xA;		c0.45,0.35,0.86,0.75,1.26,1.15c4.35,4.35,8.7,8.69,13.05,13.05C48.88,66.45,49.13,66.83,49.64,67.46z" />
</g>
</svg>